<svg xmlns="http://www.w3.org/2000/svg" width="24" height="24" viewBox="0 0 24 24" fill="none">
  <g clip-path="url(#clip0_560_20915)">
    <path d="M18.1467 4.77896C19.7673 6.39933 20.6941 8.58643 20.7313 10.8778C20.7684 13.1692 19.913 15.3852 18.3458 17.0572L18.1467 17.2632L13.9853 21.4236C13.4573 21.9513 12.7484 22.2585 12.0023 22.2831C11.2563 22.3077 10.5287 22.0478 9.9671 21.556L9.82587 21.4236L5.66349 17.2622C4.00811 15.6068 3.07813 13.3616 3.07812 11.0206C3.07813 8.67952 4.00811 6.43434 5.66349 4.77896C7.31887 3.12359 9.56404 2.1936 11.9051 2.1936C14.2462 2.1936 16.4913 3.12359 18.1467 4.77896ZM11.9051 8.07827C11.5187 8.07827 11.1361 8.15438 10.7791 8.30224C10.4222 8.45011 10.0978 8.66684 9.82458 8.94005C9.55136 9.21327 9.33463 9.53763 9.18676 9.89461C9.0389 10.2516 8.96279 10.6342 8.96279 11.0206C8.96279 11.407 9.0389 11.7896 9.18676 12.1466C9.33463 12.5035 9.55136 12.8279 9.82458 13.1011C10.0978 13.3743 10.4222 13.5911 10.7791 13.7389C11.1361 13.8868 11.5187 13.9629 11.9051 13.9629C12.6855 13.9629 13.4338 13.6529 13.9856 13.1011C14.5374 12.5493 14.8474 11.8009 14.8474 11.0206C14.8474 10.2402 14.5374 9.49184 13.9856 8.94005C13.4338 8.38826 12.6855 8.07827 11.9051 8.07827Z" fill="#ED6F4D"/>
  </g>
  <defs>
    <clipPath id="clip0_560_20915">
      <rect width="23.5385" height="23.5385" fill="white" transform="translate(0.132812 0.230713)"/>
    </clipPath>
  </defs>
</svg>