<svg xmlns="http://www.w3.org/2000/svg" width="17" height="17" viewBox="0 0 17 17" fill="none">
  <path d="M11.1969 8.8499C11.1969 7.35873 9.98804 6.1499 8.49687 6.1499C7.00571 6.1499 5.79687 7.35873 5.79687 8.8499C5.79687 10.3411 7.00571 11.5499 8.49687 11.5499C9.98804 11.5499 11.1969 10.3411 11.1969 8.8499ZM11.1969 8.8499V9.8624C11.1969 10.7944 11.9524 11.5499 12.8844 11.5499C13.8164 11.5499 14.5719 10.7944 14.5719 9.8624V8.8499C14.5719 5.49477 11.852 2.7749 8.49687 2.7749C5.14174 2.7749 2.42188 5.49477 2.42188 8.8499C2.42188 12.205 5.14174 14.9249 8.49687 14.9249M11.5344 14.111C10.5759 14.6644 9.52933 14.9269 8.49685 14.9259" stroke="#A1A1AA" stroke-width="1.8" stroke-linecap="round" stroke-linejoin="round"/>
</svg>