<svg xmlns="http://www.w3.org/2000/svg" width="14" height="18" viewBox="0 0 14 18" fill="none">
  <path d="M4.39215 10.5737C3.47293 9.1699 1.14718 9.28599 0.415412 7.62489C0.341947 7.462 0.310321 7.32561 0.359088 7.20541C0.663032 6.44382 3.43626 7.92118 5.39663 6.93563C7.96201 5.64311 8.01632 0.684665 8.97272 0.804271C9.04168 0.809941 9.08835 0.844781 9.17034 0.90367C10.4873 1.8844 7.77413 5.78026 9.2179 7.79496C10.0264 8.91896 12.056 9.34047 12.9528 10.7236C13.0078 10.8031 13.0776 10.9293 13.0373 11.045C12.8279 11.6501 10.218 10.3682 8.29962 11.231C5.61674 12.4403 5.17666 17.4364 4.54183 17.282C4.52874 17.2783 4.50256 17.2707 4.46441 17.2314C3.55459 16.3609 5.66344 12.5243 4.39215 10.5737Z" fill="#FA9A0A"/>
</svg>