<svg xmlns="http://www.w3.org/2000/svg" width="145" height="145" viewBox="0 0 145 145" fill="none">
  <g clip-path="url(#clip0_560_22881)">
    <path d="M27.9437 52.3113C31.3189 48.8131 35.0027 47.2373 38.4025 46.8806C41.7995 46.5262 44.929 47.4185 47.1267 48.9208C48.2263 49.6701 49.0888 50.5668 49.6516 51.5094C50.216 52.457 50.4857 53.4375 50.4462 54.4259C50.4034 55.4128 50.0592 56.4382 49.2578 57.5127C48.4549 58.584 47.179 59.6896 45.3014 60.7285C45.1745 60.7973 45.0465 60.8671 44.9151 60.9355C44.8189 60.9864 44.5728 61.0954 44.2607 61.2114C43.9453 61.3281 43.5557 61.4588 43.1254 61.5856C42.2624 61.8389 41.2339 62.0738 40.2992 62.1786C39.8328 62.2313 39.3899 62.2525 39.014 62.2329C38.6373 62.2162 38.331 62.1578 38.1434 62.0861C37.9499 62.0153 37.8988 61.9521 37.8895 61.9382C37.8848 61.9204 37.8545 61.916 37.8533 61.7104C37.8665 61.2065 38.0055 60.7579 38.289 60.2865C38.5736 59.8186 39.0118 59.3399 39.593 58.8772C40.7511 57.9491 42.4616 57.1153 44.3306 56.4422C46.2008 55.7659 48.2272 55.2392 50.0419 54.8421C51.8566 54.4428 53.4547 54.1729 54.4967 53.9988C55.5716 53.8179 56.9964 53.7123 58.506 53.757C60.0144 53.8006 61.61 53.9945 63.0417 54.3862C64.475 54.7722 65.7311 55.3609 66.6013 56.1146C67.0381 56.4922 67.3833 56.9057 67.6369 57.3682C67.8928 57.8331 68.0617 58.3497 68.1285 58.9685C68.1942 59.586 68.1327 60.1913 67.9554 60.8074C67.7772 61.42 67.4798 62.0419 67.0737 62.6553C66.2615 63.882 65.0084 65.0645 63.5473 66.0458C62.0869 67.0309 60.4225 67.8201 58.8297 68.3095C57.2387 68.8018 55.7147 68.9851 54.5959 68.8437C54.5784 68.8414 54.5679 68.8396 54.5656 68.8393C54.5668 68.8406 54.563 68.8394 54.5667 68.8406C54.569 68.8408 54.5746 68.8425 54.5816 68.8452C54.6092 68.8542 54.6758 68.8752 54.7722 68.9406C54.8668 69.0032 54.9914 69.1188 55.0826 69.2788C55.1778 69.4355 55.2268 69.6258 55.2332 69.7719C55.2406 69.9215 55.2171 70.0255 55.1987 70.0855C55.1807 70.1474 55.1661 70.1689 55.1661 70.1689C55.165 70.1676 55.2213 70.0834 55.3228 69.9729C55.5253 69.7437 55.9032 69.4033 56.3726 69.0336C56.8443 68.662 57.411 68.2559 58.017 67.8442C59.2328 67.0196 60.6068 66.1779 61.7469 65.516C62.3155 65.1853 62.8259 64.8986 63.2286 64.6816C63.4273 64.5744 63.6014 64.4841 63.7351 64.416C63.8679 64.3486 63.9696 64.3017 63.9901 64.2947C65.3604 63.7158 67.5027 63.2837 69.8795 63.1659C72.2578 63.0424 74.882 63.2211 77.2817 63.7626C79.684 64.2996 81.8505 65.2113 83.3498 66.4497C84.1013 67.0673 84.6903 67.7606 85.1048 68.5361C85.5186 69.3135 85.7672 70.1786 85.8108 71.202C85.8268 71.6717 85.7022 72.1188 85.3838 72.6335C85.066 73.1415 84.5472 73.6861 83.8647 74.2043C82.5025 75.2463 80.5164 76.1602 78.507 76.775C76.5013 77.394 74.4543 77.7209 73.0367 77.7036C72.3347 77.7027 71.7897 77.5974 71.579 77.5038C71.5275 77.4829 71.4967 77.4655 71.4892 77.4592C71.487 77.4591 71.487 77.4591 71.487 77.4591C71.487 77.4591 71.488 77.4602 71.4912 77.4615C71.4977 77.4667 71.508 77.4754 71.5201 77.4893C71.5763 77.5389 71.6633 77.7097 71.6661 77.8282C71.6378 77.4832 71.6765 77.2103 71.7621 76.9577C71.8488 76.7041 71.9872 76.4645 72.2039 76.2165C72.631 75.7205 73.4049 75.209 74.4707 74.7923C76.5968 73.9432 79.7927 73.4893 83.1463 73.3927C86.5036 73.2929 90.0376 73.5268 92.9326 73.938C94.378 74.1437 95.668 74.3931 96.6789 74.6576C97.1843 74.7885 97.6199 74.9252 97.9621 75.0529C98.3036 75.1799 98.5545 75.3064 98.6636 75.3785C101.264 77.0502 102.783 78.7882 103.489 80.3219C103.845 81.0912 104.007 81.8115 104.023 82.4854C104.038 83.1606 103.906 83.7961 103.637 84.4131C103.102 85.6365 101.971 86.8025 100.255 87.6714C98.5455 88.5419 96.2728 89.0967 93.6012 89.1133C93.4095 89.1153 93.201 89.1258 92.9394 89.1384C92.6811 89.1522 92.3807 89.1681 92.0534 89.181C91.3998 89.2078 90.6367 89.22 89.9394 89.1816C89.2465 89.1482 88.6077 89.0433 88.3094 88.9255C88.2359 88.8992 88.1847 88.8732 88.1623 88.8601C88.1567 88.8562 88.152 88.8534 88.151 88.8522C88.1478 88.851 88.1488 88.8522 88.1478 88.851C88.15 88.8511 88.1577 88.8573 88.172 88.8713C88.1962 88.8964 88.2441 88.9539 88.2808 89.034C88.3189 89.1129 88.3402 89.2105 88.3423 89.2835C88.3425 89.2459 88.3441 89.22 88.3631 89.1661C88.3834 89.1138 88.4239 89.0342 88.5061 88.9293C88.6661 88.7219 88.9983 88.4324 89.4733 88.1501C90.4218 87.574 91.8988 87.0293 93.475 86.616C95.0525 86.1991 96.7361 85.8988 98.1559 85.7273C98.8653 85.6409 99.5102 85.5864 100.031 85.5633C100.55 85.5391 100.964 85.5522 101.126 85.576C103.935 85.9368 106.046 86.5981 107.533 87.4048C109.027 88.2151 109.889 89.1411 110.358 90.0949C110.822 91.0512 110.93 92.0908 110.694 93.2769C110.457 94.4577 109.848 95.7593 108.898 97.0519C107.004 99.6395 103.754 102.145 99.8259 103.713C95.8978 105.289 91.3165 105.944 86.6977 105C85.8964 104.837 85.1138 105.354 84.951 106.156C84.7869 106.956 85.304 107.738 86.1056 107.901C91.3704 108.976 96.5331 108.224 100.929 106.462C105.326 104.693 108.98 101.927 111.284 98.8053C112.432 97.24 113.247 95.5754 113.597 93.866C113.944 92.1623 113.802 90.3874 113.017 88.793C112.237 87.195 110.852 85.8309 108.942 84.8015C107.027 83.7671 104.575 83.0378 101.503 82.6403C101.037 82.5824 100.524 82.5816 99.9023 82.6068C99.2842 82.634 98.5728 82.6955 97.7996 82.7893C96.253 82.9768 94.4577 83.2977 92.7187 83.7562C90.9782 84.2182 89.3056 84.8058 87.9502 85.6136C87.2727 86.024 86.6666 86.4912 86.1821 87.1004C85.9414 87.4067 85.7345 87.7515 85.5903 88.1388C85.4465 88.5257 85.3703 88.9551 85.3872 89.3908C85.3971 89.6921 85.4708 90.0035 85.5978 90.2754C85.7246 90.5495 85.9002 90.7837 86.0883 90.969C86.4679 91.3414 86.879 91.5456 87.2807 91.697C88.0851 91.9892 88.9277 92.0836 89.778 92.1334C90.6251 92.1797 91.4686 92.1614 92.1702 92.1341C92.52 92.1193 92.8349 92.1024 93.0904 92.0903C93.3413 92.0781 93.544 92.0686 93.6204 92.0679C96.6883 92.0471 99.4007 91.4167 101.592 90.3044C103.777 89.1953 105.466 87.5873 106.341 85.598C106.775 84.6059 106.998 83.5254 106.972 82.4187C106.947 81.3107 106.676 80.1822 106.165 79.0821C105.137 76.8768 103.187 74.7878 100.256 72.9015C99.8761 72.6594 99.4651 72.4728 98.9944 72.296C98.5274 72.1208 98.0016 71.9614 97.4214 71.8102C96.2628 71.5073 94.8787 71.2434 93.3446 71.0267C90.2774 70.5944 86.6113 70.3526 83.0573 70.4588C79.4994 70.5732 76.0726 71.017 73.3935 72.0688C72.0534 72.6016 70.8787 73.294 70.0001 74.2909C69.5652 74.7883 69.2133 75.3675 68.994 76.0139C68.7739 76.6563 68.692 77.3589 68.7521 78.071C68.7884 78.5999 69.0408 79.1232 69.3757 79.4747C69.7105 79.8339 70.0959 80.0538 70.4808 80.2109C71.2537 80.5176 72.0833 80.6119 73.0126 80.624C74.8594 80.6341 77.1073 80.2531 79.365 79.5598C81.6182 78.8615 83.8596 77.8597 85.6274 76.5164C86.5098 75.8417 87.2798 75.076 87.8466 74.1729C88.4097 73.2757 88.7598 72.2122 88.709 71.0823C88.6504 69.6433 88.2783 68.3212 87.6597 67.1678C87.0402 66.0133 86.1846 65.0318 85.1848 64.2127C83.1774 62.5755 80.6154 61.5578 77.9137 60.9498C75.2094 60.3464 72.3555 60.1613 69.7296 60.2984C67.1022 60.4413 64.7179 60.8908 62.883 61.6551C62.7448 61.714 62.6112 61.7798 62.4433 61.8647C62.2765 61.9485 62.0856 62.049 61.8696 62.1669C61.4341 62.4015 60.9003 62.702 60.3095 63.0477C59.1242 63.738 57.7068 64.6088 56.4161 65.4877C55.7705 65.9273 55.1565 66.3703 54.6111 66.8017C54.0662 67.2327 53.5928 67.6454 53.2064 68.0767C53.0114 68.295 52.8367 68.5155 52.6828 68.7903C52.6064 68.9294 52.5359 69.0832 52.4787 69.267C52.4239 69.4512 52.384 69.6705 52.3973 69.925C52.4094 70.1782 52.4858 70.4655 52.6312 70.7102C52.775 70.9585 52.9753 71.1532 53.1707 71.2839C53.5673 71.5471 53.9195 71.616 54.2582 71.6615C55.9418 71.8578 57.7908 71.589 59.6637 71.0116C61.5354 70.4306 63.4235 69.5299 65.1241 68.3816C66.8211 67.2298 68.3345 65.8315 69.4115 64.2025C69.95 63.388 70.3776 62.5119 70.6445 61.5824C70.9114 60.653 71.0153 59.6678 70.9065 58.668C70.8016 57.6978 70.5129 56.8043 70.078 56.0206C69.6456 55.237 69.0703 54.5669 68.4148 54.0041C67.0956 52.879 65.4682 52.1721 63.7652 51.7113C62.0598 51.2526 60.2679 51.0453 58.5822 51.0002C56.8965 50.9551 55.3219 51.0726 54.0387 51.29C52.9905 51.4695 51.3386 51.7533 49.4512 52.1721C47.5633 52.5934 45.4344 53.15 43.4052 53.8902C41.3728 54.6354 39.4359 55.5501 37.9077 56.7723C37.1445 57.3848 36.4801 58.0804 35.9888 58.8956C35.4963 59.7073 35.1885 60.6505 35.1715 61.6545C35.1521 62.3307 35.3453 63.024 35.7496 63.5508C36.1499 64.081 36.6948 64.4084 37.2311 64.6003C37.7722 64.7946 38.3258 64.8747 38.8901 64.9016C39.4544 64.9262 40.0285 64.8941 40.6028 64.8264C41.7499 64.6925 42.8994 64.4202 43.8762 64.1315C44.3654 63.9864 44.81 63.8362 45.1887 63.693C45.5723 63.5477 45.8829 63.4176 46.1498 63.2772C46.2973 63.1992 46.4436 63.12 46.5862 63.0396C48.71 61.8544 50.2828 60.5142 51.3498 59.063C52.4153 57.6155 52.9601 56.0416 52.9951 54.5055C53.0349 52.9672 52.5756 51.4948 51.772 50.2105C50.9689 48.9235 49.8252 47.8103 48.4556 46.9204C45.7135 45.1411 42.0416 44.2315 38.1475 44.7422C34.2549 45.2514 30.1607 47.2069 26.6401 51.0957C25.9793 51.8257 27.2598 53.0195 27.9437 52.3113Z" fill="#C084FC"/>
  </g>
  <defs>
    <clipPath id="clip0_560_22881">
      <rect width="102.441" height="102.441" fill="white" transform="translate(77.2188) rotate(48.9214)"/>
    </clipPath>
  </defs>
</svg>