<svg xmlns="http://www.w3.org/2000/svg" width="82" height="82" viewBox="0 0 82 82" fill="none">
  <g clip-path="url(#clip0_560_22883)">
    <mask id="mask0_560_22883" style="mask-type:luminance" maskUnits="userSpaceOnUse" x="0" y="0" width="82" height="82">
      <path d="M18.2656 0L81.6669 18.2464L63.4205 81.6476L0.0192327 63.4012L18.2656 0Z" fill="white"/>
    </mask>
    <g mask="url(#mask0_560_22883)">
      <path d="M27.6 22.3441C25.5251 23.2636 22.1998 23.7058 19.1159 23.0654C16.2522 22.4763 13.1668 20.8591 12.5085 21.7984C12.4075 21.9457 12.365 22.1334 12.4081 22.3929C12.7233 24.6467 18.2621 25.3356 21.1916 28.2712C25.7256 32.8207 23.8208 42.7482 22.8782 47.6151C22.2236 51.0357 20.7499 56.1963 21.6989 56.5751C21.8369 56.6268 21.9813 56.5742 22.0484 56.5464C23.4789 55.9472 29.4539 37.3503 33.6609 34.3757C34.6647 33.6652 36.2285 32.3987 38.6351 31.7982C43.1081 30.6753 47.6643 32.4101 48.0826 31.284C48.1187 31.2002 48.1281 31.0856 48.0619 30.8666C47.3474 28.6507 42.226 28.6343 39.96 26.3362C35.6182 21.9358 38.7666 6.13542 38.5142 5.90993C38.3546 5.76977 38.2462 5.7386 38.1095 5.72279C35.5693 5.35611 35.0295 19.0389 27.6 22.3441Z" fill="#FB7185"/>
      <path d="M61.8587 32.1568C60.3313 29.8243 56.4668 30.0172 55.2509 27.2571C55.1288 26.9864 55.0762 26.7598 55.1573 26.5601C55.6623 25.2946 60.2704 27.7494 63.5277 26.1118C67.7904 23.9641 67.8807 15.7251 69.4699 15.9238C69.5844 15.9332 69.662 15.9911 69.7982 16.089C71.9865 17.7186 67.4782 24.192 69.8772 27.5397C71.2207 29.4073 74.5931 30.1077 76.0832 32.406C76.1745 32.538 76.2906 32.7478 76.2237 32.9401C75.8757 33.9455 71.5391 31.8154 68.3514 33.2491C63.8935 35.2584 63.1622 43.56 62.1074 43.3035C62.0856 43.2973 62.0421 43.2848 61.9787 43.2194C60.467 41.773 63.9711 35.398 61.8587 32.1568Z" fill="#FB7185"/>
      <path d="M45.8234 51.5839C50.2308 49.7485 49.9986 40.6288 52.8231 40.7009C52.9737 40.7087 53.1136 40.7138 53.2672 40.7931C55.1895 41.8751 49.4011 50.5086 52.2611 54.7883C54.6053 58.2846 62.0307 57.8114 61.9179 59.2254C61.9178 59.3076 61.8773 59.3665 61.8305 59.4473C60.9026 61.1198 56.1701 59.6286 52.9343 60.5783C46.0738 62.6013 44.1823 76.1186 42.4776 75.628C42.4452 75.6187 42.4156 75.5981 42.3566 75.5576C39.7402 73.8639 45.5056 64.1663 41.9901 58.1222C39.7224 54.2365 34.0251 52.5853 34.6162 51.0624C34.6318 51.0083 34.6848 50.9058 34.8463 50.7523C36.8458 48.8704 42.1328 53.1319 45.8234 51.5839Z" fill="#FB7185"/>
    </g>
  </g>
  <defs>
    <clipPath id="clip0_560_22883">
      <rect width="66.0577" height="66.0577" fill="white" transform="translate(18.2656) rotate(16.0554)"/>
    </clipPath>
  </defs>
</svg>