<svg xmlns="http://www.w3.org/2000/svg" width="541" height="138" viewBox="0 0 541 138" fill="none">
  <path d="M28.5661 133.26C19.0441 139.58 9.52203 139.58 0 133.26V0L287 3L285.661 133.26C276.139 126.94 266.617 126.94 257.095 133.26C247.573 139.58 238.051 139.58 228.529 133.26C219.007 126.94 209.485 126.94 199.963 133.26C190.441 139.58 180.919 139.58 171.397 133.26C161.875 126.94 166.933 126.94 157.411 133.26C147.889 139.58 123.786 139.58 114.264 133.26C104.742 126.94 95.2203 126.94 85.6983 133.26C76.1763 139.58 66.6542 139.58 57.1322 133.26C47.6102 126.94 38.0881 126.94 28.5661 133.26Z" fill="#F5D0FE"/>
  <path d="M285.5 133C293.96 139.322 302.921 139.58 311.381 133.259C319.841 126.937 328.302 126.937 336.762 133.259C342.245 137.356 347.728 138.797 353.21 137.584C363.965 138.265 376.288 136.553 381.443 132.701C382.409 131.979 383.124 131.347 383.644 130.803C384.937 131.474 386.231 132.292 387.524 133.259C395.984 139.58 404.445 139.58 412.905 133.259C421.366 126.937 429.826 126.937 438.286 133.259C446.747 139.58 447.143 139.302 455.603 132.98C464.064 126.658 480.588 126.937 489.048 133.259C497.509 139.58 505.969 139.58 514.429 133.259C522.89 126.937 531.35 126.937 539.81 133.259L541 3H286L285.5 133Z" fill="#F5D0FE"/>
</svg>