<svg xmlns="http://www.w3.org/2000/svg" width="1809" height="373" viewBox="0 0 1809 373" fill="none">
  <path d="M95.353 356C63.5687 378.667 31.7843 378.667 0 356V0H1809L1805.01 356C1776.64 333.333 1748.28 333.333 1719.91 356C1691.54 378.667 1663.18 378.667 1634.81 356C1627.64 350.273 1618.75 345.928 1609 343H1546.17C1537.33 345.737 1529.27 349.728 1522.67 355C1494.3 377.667 1492.97 378.667 1464.61 356C1457.3 350.164 1450 345.831 1442.7 343H1401.42C1394.11 345.831 1386.81 350.164 1379.51 356C1351.14 378.667 1322.77 378.667 1294.4 356C1290.07 352.535 1285.73 349.599 1281.39 347.194C1279.65 349.145 1277.25 351.412 1274.02 354C1256.73 367.813 1215.41 373.951 1179.35 371.509C1160.97 375.859 1142.59 370.689 1124.2 356C1116.9 350.164 1109.6 345.831 1102.29 343H1061.01C1053.71 345.831 1046.4 350.164 1039.1 356C1010.73 378.667 982.367 378.667 954 356V343H953.694L953.53 356C945.347 350.164 937.164 345.831 928.98 343H882.727C874.544 345.831 866.361 350.164 858.177 356C826.393 378.667 794.609 378.667 762.824 356C754.641 350.164 746.458 345.831 738.274 343H692.021C683.838 345.831 675.655 350.164 667.471 356C635.687 378.667 603.903 378.667 572.118 356C565.019 350.937 560.348 347.005 557.02 344.204C556.512 343.776 556.035 343.375 555.586 343H541.968C541.518 343.375 541.041 343.776 540.533 344.204C537.205 347.005 532.534 350.937 525.435 356C493.651 378.667 413.196 378.667 381.412 356C373.229 350.164 365.045 345.831 356.862 343H310.609C302.426 345.831 294.242 350.164 286.059 356C254.275 378.667 222.49 378.667 190.706 356C158.922 333.333 127.137 333.333 95.353 356Z" fill="#F5D0FE"/>
</svg>