<svg xmlns="http://www.w3.org/2000/svg" width="40" height="52" viewBox="0 0 40 52" fill="none">
  <path d="M15.2055 36.7633C13.8719 36.1723 11.7346 35.8881 9.75244 36.2997C7.91189 36.6783 5.92877 37.7177 5.50571 37.1141C5.44077 37.0194 5.41346 36.8987 5.44115 36.7319C5.64371 35.2833 9.20368 34.8406 11.0866 32.9538C14.0007 30.0297 12.7764 23.649 12.1706 20.5209C11.7499 18.3223 10.8027 15.0055 11.4126 14.762C11.5013 14.7287 11.5942 14.7625 11.6373 14.7804C12.5567 15.1656 16.397 27.1183 19.101 29.0302C19.7462 29.4869 20.7513 30.3009 22.2981 30.6868C25.173 31.4086 28.1014 30.2936 28.3703 31.0173C28.3935 31.0712 28.3995 31.1449 28.3569 31.2856C27.8977 32.7098 24.6061 32.7204 23.1496 34.1974C20.359 37.0258 22.3826 47.1811 22.2204 47.3261C22.1178 47.4162 22.0481 47.4362 21.9602 47.4463C20.3276 47.682 19.9806 38.8877 15.2055 36.7633Z" fill="#329DA3"/>
  <path d="M26.9219 17.9699C29.7546 19.1495 29.6054 25.011 31.4208 24.9647C31.5176 24.9597 31.6075 24.9564 31.7062 24.9054C32.9418 24.21 29.2214 18.661 31.0596 15.9103C32.5663 13.6631 37.3388 13.9672 37.2663 13.0584C37.2663 13.0056 37.2402 12.9677 37.2101 12.9158C36.6137 11.8408 33.572 12.7993 31.4923 12.1889C27.0828 10.8886 25.8671 2.20062 24.7714 2.51593C24.7506 2.52193 24.7315 2.53514 24.6936 2.56119C23.012 3.64978 26.7176 9.88272 24.4581 13.7674C23.0006 16.2649 19.3387 17.3262 19.7186 18.305C19.7286 18.3398 19.7627 18.4057 19.8665 18.5044C21.1517 19.7139 24.5498 16.9749 26.9219 17.9699Z" fill="#329DA3"/>
</svg>