<svg xmlns="http://www.w3.org/2000/svg" width="20" height="20" viewBox="0 0 20 20" fill="none">
  <g clip-path="url(#clip0_560_21925)">
    <path d="M2.5 16.6667H17.5V10C17.5 9.33696 17.2366 8.70107 16.7678 8.23223C16.2989 7.76339 15.663 7.5 15 7.5H5C4.33696 7.5 3.70107 7.76339 3.23223 8.23223C2.76339 8.70107 2.5 9.33696 2.5 10V16.6667Z" stroke="#475569" stroke-width="1.2" stroke-linecap="round" stroke-linejoin="round"/>
    <path d="M2.5 12.335C2.76 12.4475 3.045 12.505 3.33333 12.4991C3.65791 12.5059 3.97927 12.4336 4.26965 12.2884C4.56002 12.1432 4.81069 11.9295 5 11.6658C5.18931 11.4021 5.43998 11.1884 5.73035 11.0432C6.02073 10.898 6.34209 10.8257 6.66667 10.8325C6.99125 10.8257 7.3126 10.898 7.60298 11.0432C7.89336 11.1884 8.14402 11.4021 8.33333 11.6658C8.52264 11.9295 8.77331 12.1432 9.06369 12.2884C9.35406 12.4336 9.67542 12.5059 10 12.4991C10.3246 12.5059 10.6459 12.4336 10.9363 12.2884C11.2267 12.1432 11.4774 11.9295 11.6667 11.6658C11.856 11.4021 12.1066 11.1884 12.397 11.0432C12.6874 10.898 13.0088 10.8257 13.3333 10.8325C13.6579 10.8257 13.9793 10.898 14.2696 11.0432C14.56 11.1884 14.8107 11.4021 15 11.6658C15.1893 11.9295 15.44 12.1432 15.7304 12.2884C16.0207 12.4336 16.3421 12.5059 16.6667 12.4991C16.9583 12.505 17.2433 12.4475 17.5 12.335" stroke="#475569" stroke-width="1.2" stroke-linecap="round" stroke-linejoin="round"/>
    <path d="M10.0021 3.33398L11.2229 4.69898C11.4408 4.93318 11.5866 5.22511 11.6431 5.53994C11.6996 5.85477 11.6642 6.1792 11.5413 6.4745C11.4184 6.7698 11.2132 7.0235 10.95 7.20532C10.6869 7.38715 10.377 7.48941 10.0573 7.4999C9.73762 7.5104 9.42167 7.42869 9.14717 7.26452C8.87266 7.10035 8.65119 6.86066 8.50919 6.57406C8.36719 6.28746 8.31066 5.96605 8.34634 5.64819C8.38203 5.33034 8.50842 5.02947 8.71044 4.78148L10.0021 3.33398Z" stroke="#475569" stroke-width="1.2" stroke-linecap="round" stroke-linejoin="round"/>
  </g>
  <defs>
    <clipPath id="clip0_560_21925">
      <rect width="20" height="20" fill="white"/>
    </clipPath>
  </defs>
</svg>