<svg xmlns="http://www.w3.org/2000/svg" width="96" height="96" viewBox="0 0 96 96" fill="none">
  <path d="M2.90625 87.2713C2.90625 90.4859 5.50989 93.0895 8.72443 93.0895H87.2699C90.4844 93.0895 93.0881 90.4859 93.0881 87.2713V18.0059H2.90625V87.2713Z" fill="#F3F5F6"/>
  <path d="M87.2699 2.9082H8.72443C5.50989 2.9082 2.90625 5.51184 2.90625 8.72638V18.0064H93.0881V8.72638C93.0881 5.51184 90.4844 2.9082 87.2699 2.9082Z" fill="#050D3B"/>
  <path d="M11.6328 26.7344H84.3601V63.9853H11.6328V26.7344Z" fill="#367CA0"/>
  <path d="M17.0575 13.367C18.6642 13.367 19.9666 12.0646 19.9666 10.4579C19.9666 8.85127 18.6642 7.54883 17.0575 7.54883C15.4509 7.54883 14.1484 8.85127 14.1484 10.4579C14.1484 12.0646 15.4509 13.367 17.0575 13.367Z" fill="#FEC807"/>
  <path d="M27.62 13.367C29.2267 13.367 30.5291 12.0646 30.5291 10.4579C30.5291 8.85127 29.2267 7.54883 27.62 7.54883C26.0134 7.54883 24.7109 8.85127 24.7109 10.4579C24.7109 12.0646 26.0134 13.367 27.62 13.367Z" fill="#ED6F4D"/>
  <path d="M38.1747 13.367C39.7814 13.367 41.0838 12.0646 41.0838 10.4579C41.0838 8.85127 39.7814 7.54883 38.1747 7.54883C36.5681 7.54883 35.2656 8.85127 35.2656 10.4579C35.2656 12.0646 36.5681 13.367 38.1747 13.367Z" fill="#0696B9"/>
  <path d="M17.451 84.3629C20.6643 84.3629 23.2692 81.758 23.2692 78.5447C23.2692 75.3315 20.6643 72.7266 17.451 72.7266C14.2377 72.7266 11.6328 75.3315 11.6328 78.5447C11.6328 81.758 14.2377 84.3629 17.451 84.3629Z" fill="#0696B9"/>
  <path d="M44.477 77.0907H28.8842C28.0842 77.0907 27.4297 76.4362 27.4297 75.6362C27.4297 74.8362 28.0842 74.1816 28.8842 74.1816H44.477C45.277 74.1816 45.9315 74.8362 45.9315 75.6362C45.9315 76.4362 45.277 77.0907 44.477 77.0907Z" fill="#E3E5E6"/>
  <path d="M38.1788 82.9091H28.8842C28.0842 82.9091 27.4297 82.2545 27.4297 81.4545C27.4297 80.6545 28.0842 80 28.8842 80H38.1788C38.9788 80 39.6333 80.6545 39.6333 81.4545C39.6333 82.2545 38.9788 82.9091 38.1788 82.9091Z" fill="#E3E5E6"/>
  <path d="M57.3338 84.3629C60.5471 84.3629 63.152 81.758 63.152 78.5447C63.152 75.3315 60.5471 72.7266 57.3338 72.7266C54.1205 72.7266 51.5156 75.3315 51.5156 78.5447C51.5156 81.758 54.1205 84.3629 57.3338 84.3629Z" fill="#ED6F4D"/>
  <path d="M19.7905 73.2207C20.1105 73.9334 20.285 74.7334 20.285 75.5625C20.285 78.7771 17.6814 81.3807 14.4668 81.3807C13.6377 81.3807 12.8377 81.1916 12.125 80.8862C13.0268 82.9371 15.0777 84.3625 17.4486 84.3625C20.6632 84.3625 23.2668 81.7589 23.2668 78.5443C23.2668 76.1734 21.8414 74.1225 19.7905 73.2207Z" fill="#008CAF"/>
  <path d="M59.6733 73.2207C59.9933 73.9334 60.1678 74.7334 60.1678 75.5625C60.1678 78.7771 57.5642 81.3807 54.3496 81.3807C53.5205 81.3807 52.7205 81.1916 52.0078 80.8862C52.9096 82.9371 54.946 84.3625 57.3314 84.3625C60.546 84.3625 63.1496 81.7589 63.1496 78.5443C63.1496 76.1734 61.7242 74.1225 59.6733 73.2207Z" fill="#E36543"/>
  <path d="M84.3598 77.0907H68.767C67.967 77.0907 67.3125 76.4362 67.3125 75.6362C67.3125 74.8362 67.967 74.1816 68.767 74.1816H84.3598C85.1598 74.1816 85.8143 74.8362 85.8143 75.6362C85.8143 76.4362 85.1598 77.0907 84.3598 77.0907Z" fill="#E3E5E6"/>
  <path d="M78.0616 82.9091H68.767C67.967 82.9091 67.3125 82.2545 67.3125 81.4545C67.3125 80.6545 67.967 80 68.767 80H78.0616C78.8616 80 79.5161 80.6545 79.5161 81.4545C79.5161 82.2545 78.8616 82.9091 78.0616 82.9091Z" fill="#E3E5E6"/>
  <path d="M66.0757 63.9854C60.5193 59.7381 59.4721 44.8145 52.1121 44.8145C44.7666 44.8145 43.7048 59.7381 38.1484 63.9854H66.0757Z" fill="#FEDC07"/>
  <path d="M62.8041 59.6217H60.7095C53.1895 59.6217 48.2586 51.4908 52.0113 44.9599C52.0404 44.9163 52.0695 44.8581 52.0986 44.8145C44.7822 44.8581 43.7204 59.7381 38.1641 63.9854H66.0768C64.7822 62.9963 63.735 61.4399 62.8041 59.6217Z" fill="#FEC807"/>
  <path d="M71.0503 45.4835C74.5127 45.4835 77.3194 42.6767 77.3194 39.2144C77.3194 35.7521 74.5127 32.9453 71.0503 32.9453C67.588 32.9453 64.7812 35.7521 64.7812 39.2144C64.7812 42.6767 67.588 45.4835 71.0503 45.4835Z" fill="#F3F5F6"/>
  <path d="M73.7564 33.584C74.1491 34.4131 74.3964 35.3149 74.3964 36.2894C74.3964 39.7513 71.5891 42.5585 68.1273 42.5585C67.1528 42.5585 66.2364 42.3113 65.4219 41.9185C66.4401 44.0131 68.5637 45.4822 71.051 45.4822C74.5128 45.4822 77.3201 42.6749 77.3201 39.2131C77.3201 36.7258 75.851 34.6022 73.7564 33.584Z" fill="#E3E5E6"/>
  <path d="M52.4765 63.985C44.3455 57.7741 42.8037 35.9414 32.0546 35.9414C21.3055 35.9414 19.7637 57.7741 11.6328 63.985H52.4765Z" fill="#FEDC07"/>
  <path d="M48.8121 59.6214H45.7721C33.7866 59.6214 26.4412 46.1087 33.3066 36.2905C33.3503 36.2178 33.4084 36.1596 33.4521 36.0869C33.0012 35.9996 32.5503 35.9414 32.0703 35.9414C21.3212 35.9414 19.7793 57.7741 11.6484 63.985H52.4921C51.0812 62.9232 49.8884 61.396 48.8121 59.6214Z" fill="#FEC807"/>
</svg>