<svg xmlns="http://www.w3.org/2000/svg" width="80" height="80" viewBox="0 0 80 80" fill="none">
  <g clip-path="url(#clip0_560_22852)">
    <path d="M75.5475 33.3381C75.3229 32.7794 74.9738 32.2794 74.5268 31.876L68.9682 26.6622L46.4303 5.51739L40.9406 0.372567C40.414 -0.124189 39.5914 -0.124189 39.0648 0.372567L33.5751 5.51739L11.0372 26.6622L5.47856 31.876C5.03156 32.2794 4.68248 32.7794 4.45787 33.3381C4.24974 33.8363 4.14194 34.3706 4.14063 34.9105V77.2415C4.13997 78.0234 4.47683 78.7675 5.06476 79.2829C5.56183 79.7481 6.21846 80.0048 6.89925 80.0001H73.1061C73.7869 80.0048 74.4435 79.7481 74.9406 79.2829C75.5285 78.7675 75.8654 78.0234 75.8648 77.2415V34.9105C75.8634 34.3706 75.7556 33.8363 75.5475 33.3381Z" fill="#006E91"/>
    <path d="M11.0391 63.9879V6.89689C11.0391 6.13512 11.6566 5.51758 12.4184 5.51758H67.5908C68.3526 5.51758 68.9701 6.13512 68.9701 6.89689V63.9879H11.0391Z" fill="#ECF0F1"/>
    <path d="M26.2074 37.2422H53.7936C54.5554 37.2422 55.1729 37.8597 55.1729 38.6215V42.7594H24.8281V38.6215C24.8281 37.8597 25.4457 37.2422 26.2074 37.2422Z" fill="#CF014B"/>
    <path d="M40.0043 24.8282C39.2425 24.8282 38.625 24.2107 38.625 23.4489V19.311C38.625 18.5492 39.2425 17.9316 40.0043 17.9316C40.7661 17.9316 41.3836 18.5492 41.3836 19.311V23.4489C41.3836 24.2107 40.7661 24.8282 40.0043 24.8282Z" fill="#ED6F4D"/>
    <path d="M40.0043 16.552C39.2425 16.552 38.625 15.9345 38.625 15.1727V13.7934C38.625 13.0316 39.2425 12.4141 40.0043 12.4141C40.7661 12.4141 41.3836 13.0316 41.3836 13.7934V15.1727C41.3836 15.9345 40.7661 16.552 40.0043 16.552Z" fill="#FFC706"/>
    <path d="M46.9027 24.8282C46.141 24.8282 45.5234 24.2107 45.5234 23.4489V19.311C45.5234 18.5492 46.141 17.9316 46.9027 17.9316C47.6645 17.9316 48.2821 18.5492 48.2821 19.311V23.4489C48.2821 24.2107 47.6645 24.8282 46.9027 24.8282Z" fill="#ED6F4D"/>
    <path d="M46.9027 16.552C46.141 16.552 45.5234 15.9345 45.5234 15.1727V13.7934C45.5234 13.0316 46.141 12.4141 46.9027 12.4141C47.6645 12.4141 48.2821 13.0316 48.2821 13.7934V15.1727C48.2821 15.9345 47.6645 16.552 46.9027 16.552Z" fill="#FFC706"/>
    <path d="M33.1059 24.8282C32.3441 24.8282 31.7266 24.2107 31.7266 23.4489V19.311C31.7266 18.5492 32.3441 17.9316 33.1059 17.9316C33.8676 17.9316 34.4852 18.5492 34.4852 19.311V23.4489C34.4852 24.2107 33.8676 24.8282 33.1059 24.8282Z" fill="#ED6F4D"/>
    <path d="M33.1059 16.552C32.3441 16.552 31.7266 15.9345 31.7266 15.1727V13.7934C31.7266 13.0316 32.3441 12.4141 33.1059 12.4141C33.8676 12.4141 34.4852 13.0316 34.4852 13.7934V15.1727C34.4852 15.9345 33.8676 16.552 33.1059 16.552Z" fill="#FFC706"/>
    <path d="M20.6918 13.7922C19.93 13.7922 19.3125 13.1747 19.3125 12.4129V11.0336C19.3125 10.2718 19.93 9.6543 20.6918 9.6543C21.4536 9.6543 22.0711 10.2718 22.0711 11.0336V12.4129C22.0711 13.1747 21.4536 13.7922 20.6918 13.7922Z" fill="#CF014B"/>
    <path d="M24.8289 16.5516H23.4496C22.6879 16.5516 22.0703 15.9341 22.0703 15.1723C22.0703 14.4105 22.6879 13.793 23.4496 13.793H24.8289C25.5907 13.793 26.2082 14.4105 26.2082 15.1723C26.2082 15.9341 25.5907 16.5516 24.8289 16.5516Z" fill="#CF014B"/>
    <path d="M20.6918 20.6887C19.93 20.6887 19.3125 20.0712 19.3125 19.3094V17.9301C19.3125 17.1683 19.93 16.5508 20.6918 16.5508C21.4536 16.5508 22.0711 17.1683 22.0711 17.9301V19.3094C22.0711 20.0712 21.4536 20.6887 20.6918 20.6887Z" fill="#CF014B"/>
    <path d="M17.9305 16.5516H16.5512C15.7894 16.5516 15.1719 15.9341 15.1719 15.1723C15.1719 14.4105 15.7894 13.793 16.5512 13.793H17.9305C18.6923 13.793 19.3098 14.4105 19.3098 15.1723C19.3098 15.9341 18.6923 16.5516 17.9305 16.5516Z" fill="#CF014B"/>
    <path d="M59.3168 13.7922C58.555 13.7922 57.9375 13.1747 57.9375 12.4129V11.0336C57.9375 10.2718 58.555 9.6543 59.3168 9.6543C60.0786 9.6543 60.6961 10.2718 60.6961 11.0336V12.4129C60.6961 13.1747 60.0786 13.7922 59.3168 13.7922Z" fill="#ED6F4D"/>
    <path d="M63.4539 16.5516H62.0746C61.3129 16.5516 60.6953 15.9341 60.6953 15.1723C60.6953 14.4105 61.3129 13.793 62.0746 13.793H63.4539C64.2157 13.793 64.8332 14.4105 64.8332 15.1723C64.8332 15.9341 64.2157 16.5516 63.4539 16.5516Z" fill="#ED6F4D"/>
    <path d="M59.3168 20.6887C58.555 20.6887 57.9375 20.0712 57.9375 19.3094V17.9301C57.9375 17.1683 58.555 16.5508 59.3168 16.5508C60.0786 16.5508 60.6961 17.1683 60.6961 17.9301V19.3094C60.6961 20.0712 60.0786 20.6887 59.3168 20.6887Z" fill="#ED6F4D"/>
    <path d="M56.5555 16.5516H55.1762C54.4144 16.5516 53.7969 15.9341 53.7969 15.1723C53.7969 14.4105 54.4144 13.793 55.1762 13.793H56.5555C57.3173 13.793 57.9348 14.4105 57.9348 15.1723C57.9348 15.9341 57.3173 16.5516 56.5555 16.5516Z" fill="#ED6F4D"/>
    <path d="M75.8656 34.9103V77.2413C75.8662 78.0232 75.5294 78.7673 74.9414 79.2827L45.3828 56.5517L75.5483 33.3379C75.7565 33.8361 75.8643 34.3704 75.8656 34.9103Z" fill="#10A0C3"/>
    <path d="M34.6234 56.5517L5.06476 79.2827C4.47683 78.7673 4.13997 78.0232 4.14063 77.2413V34.9103C4.14194 34.3704 4.24974 33.8361 4.45787 33.3379L34.6234 56.5517Z" fill="#10A0C3"/>
    <path d="M74.9384 79.2818C74.4413 79.747 73.7847 80.0037 73.1039 79.9991H6.89698C6.2162 80.0037 5.55957 79.747 5.0625 79.2818L34.6211 56.5508L39.159 60.0404C39.6535 60.4266 40.3474 60.4266 40.8418 60.0404L45.3797 56.5508L74.9384 79.2818Z" fill="#0696B9"/>
    <path d="M27.5902 23.4492H52.4178C53.1796 23.4492 53.7971 24.0668 53.7971 24.8285V37.2423H26.2109V24.8285C26.2109 24.0668 26.8285 23.4492 27.5902 23.4492Z" fill="#FFC706"/>
    <path d="M44.1385 31.7235H26.2074C25.4457 31.7235 24.8281 31.1059 24.8281 30.3442C24.8281 29.5824 25.4457 28.9648 26.2074 28.9648H44.1385C44.9002 28.9648 45.5178 29.5824 45.5178 30.3442C45.5178 31.1059 44.9002 31.7235 44.1385 31.7235Z" fill="#E64C3C"/>
    <path d="M53.7985 31.7235H49.6606C48.8988 31.7235 48.2812 31.1059 48.2812 30.3442C48.2812 29.5824 48.8988 28.9648 49.6606 28.9648H53.7985C54.5603 28.9648 55.1778 29.5824 55.1778 30.3442C55.1778 31.1059 54.5603 31.7235 53.7985 31.7235Z" fill="#E64C3C"/>
  </g>
  <defs>
    <clipPath id="clip0_560_22852">
      <rect width="80" height="80" fill="white"/>
    </clipPath>
  </defs>
</svg>