<svg xmlns="http://www.w3.org/2000/svg" width="80" height="80" viewBox="0 0 80 80" fill="none">
  <g clip-path="url(#clip0_560_22825)">
    <path d="M53.3587 53.3575L60.9495 41.8552L53.3587 39.8994C52.3644 36.9163 50.6736 34.0984 48.287 31.7119C45.9334 29.3583 43.1492 27.6345 40.0995 26.6402L40 26.7397L30.7519 26.375L26.6414 26.6402C23.5919 27.6345 20.8075 29.3583 18.4539 31.7119L6.16547 44.0003C-2.05516 52.2209 -2.05516 65.5816 6.16547 73.8022C14.6181 82.2548 27.9769 81.8241 35.9986 73.8022L48.287 61.545C50.6739 59.1581 52.3645 56.3408 53.3587 53.3575ZM27.7117 65.515C23.9991 69.2277 18.0658 69.1283 14.4525 65.515C10.8063 61.8687 10.8063 55.902 14.4525 52.2558L26.6414 40.0981L33.3042 46.6945L40.0002 53.2578L27.7117 65.515Z" fill="#223059"/>
    <path d="M48.2856 61.546L35.9972 73.8032C27.9753 81.8251 14.6167 82.2559 6.16406 73.8032L14.4509 65.5162C18.0642 69.1295 23.9975 69.2288 27.7102 65.5162L39.9986 53.2591L33.3028 46.6957L48.2856 31.7129C50.6722 34.0995 52.363 36.9171 53.3573 39.9004L60.9481 41.8562L53.3573 53.3585C52.363 56.342 50.6723 59.1593 48.2856 61.546Z" fill="#050D3B"/>
    <path opacity="0.1" d="M64.8613 68.1761L61.5464 64.8612C60.6304 63.9451 60.6304 62.4625 61.5464 61.5464C62.4625 60.6304 63.9452 60.6303 64.8613 61.5464L68.1761 64.8612C69.0922 65.7773 69.0922 67.26 68.1761 68.1761C67.2599 69.0922 65.7774 69.0922 64.8613 68.1761Z" fill="#050D3B"/>
    <path opacity="0.1" d="M15.1427 18.4533L11.8277 15.1384C10.9116 14.2223 10.9116 12.7397 11.8277 11.8237C12.7438 10.9078 14.2264 10.9076 15.1424 11.8237L18.4571 15.1384C19.3732 16.0545 19.3732 17.5372 18.4571 18.4531C17.541 19.369 16.0586 19.3692 15.1427 18.4533Z" fill="#050D3B"/>
    <path opacity="0.1" d="M69.4316 47.8845C69.7666 46.6332 71.0518 45.892 72.3029 46.227L76.8316 47.4409C78.0829 47.7695 78.8208 49.061 78.4891 50.3121C78.1541 51.5634 76.8689 52.3046 75.6179 51.9696L71.0891 50.7557C69.8461 50.4231 69.0963 49.1431 69.4316 47.8845Z" fill="#050D3B"/>
    <path opacity="0.1" d="M1.50978 29.6852C1.84478 28.434 3.12994 27.6927 4.38103 28.0277L8.90978 29.2418C10.1562 29.5687 10.9006 30.8604 10.5673 32.1131C10.2323 33.3643 8.94713 34.1056 7.69603 33.7706L3.16728 32.5565C1.92432 32.2238 1.17431 30.9438 1.50978 29.6852Z" fill="#050D3B"/>
    <path opacity="0.1" d="M47.443 76.8304L46.2289 72.3017C45.8939 71.0504 46.6352 69.7654 47.8864 69.4304C49.1377 69.0954 50.4211 69.8318 50.7577 71.0879L51.9716 75.6167C52.3066 76.8679 51.5653 78.1529 50.3141 78.4879C49.0558 78.8232 47.7756 78.0734 47.443 76.8304Z" fill="#050D3B"/>
    <path opacity="0.1" d="M29.2399 8.90937L28.0258 4.38062C27.6908 3.12937 28.432 1.84437 29.6833 1.50937C30.9345 1.17765 32.2211 1.91078 32.5545 3.16687L33.7686 7.69562C34.1036 8.94687 33.3624 10.2319 32.1111 10.5669C30.8527 10.9019 29.5727 10.152 29.2399 8.90937Z" fill="#050D3B"/>
    <path d="M73.834 6.19553C65.6134 -2.02509 52.2546 -2.05837 44.0009 6.19553L31.7125 18.4527C29.3259 20.8393 27.6353 23.6568 26.6407 26.6402C25.1821 31.0158 25.1823 35.7227 26.6409 40.0983C27.6353 43.0815 29.3259 45.8994 31.7125 48.286C34.0329 50.6065 36.8173 52.3299 39.9001 53.3576L39.9995 53.2582C43.6459 49.6118 43.6457 43.6452 39.9995 39.999C36.3532 36.3527 36.3532 30.386 39.9995 26.7398L52.2879 14.4826C54.0781 12.6924 56.3984 11.7644 58.9178 11.7644C58.9839 11.6983 59.5473 11.7313 59.6801 11.7976C61.4701 11.7974 63.8234 12.7587 65.5471 14.4826C69.1934 18.1288 69.1936 24.0954 65.5471 27.7418L53.3584 39.8993C54.817 44.2749 54.817 48.9819 53.3584 53.3576C56.3746 52.3301 59.2256 50.6063 61.5459 48.2858L73.8343 36.0287C82.055 27.8079 82.0546 14.4162 73.834 6.19553Z" fill="#FEDC07"/>
    <path d="M39.998 53.2575L39.8986 53.3569C36.8159 52.3294 34.0312 50.6058 31.7109 48.2853L39.998 39.9983C43.6442 43.6447 43.6444 49.6113 39.998 53.2575Z" fill="#FEC807"/>
    <path d="M73.8353 36.0284L61.5469 48.2856C59.2266 50.6061 56.3758 52.3298 53.3594 53.3573C54.818 48.9817 54.818 44.2747 53.3594 39.8991L65.5481 27.7416C69.1945 24.0952 69.1944 18.1286 65.5481 14.4823L73.8352 6.19531C82.0559 14.4158 82.0563 27.8075 73.8353 36.0284Z" fill="#FEC807"/>
  </g>
  <defs>
    <clipPath id="clip0_560_22825">
      <rect width="80" height="80" fill="white"/>
    </clipPath>
  </defs>
</svg>