<svg xmlns="http://www.w3.org/2000/svg" width="1924" height="254" viewBox="0 0 1924 254" preserveAspectRatio="none" fill="none">
  <path d="M1828.05 27.9839C1860.03 -9.32797 1892.02 -9.32797 1924 27.9839V254H960L964.498 27.9839C996.481 65.2958 1028.46 65.2958 1060.45 27.9839C1092.43 -9.32797 1124.41 -9.32797 1156.4 27.9839C1188.38 65.2958 1220.36 65.2958 1252.35 27.9839C1284.33 -9.32797 1316.32 -9.32797 1348.3 27.9839C1380.28 65.2958 1363.29 65.2958 1395.27 27.9839C1427.26 -9.32797 1508.22 -9.32797 1540.2 27.9839C1572.18 65.2958 1604.17 65.2958 1636.15 27.9839C1668.13 -9.32797 1700.12 -9.32797 1732.1 27.9839C1764.08 65.2958 1796.07 65.2958 1828.05 27.9839Z" fill="#FBF0CA"/>
  <path d="M964 27.9839C932.017 -9.32797 900.033 -9.32797 868.05 27.9839C836.066 65.2958 804.083 65.2958 772.1 27.9839C751.372 3.80365 730.645 -4.7064 709.918 2.45376C669.261 -1.56508 622.677 8.53904 603.187 31.2761C599.535 35.5369 596.834 39.2682 594.867 42.4799C589.978 38.5199 585.088 33.6879 580.199 27.9839C548.216 -9.32797 516.232 -9.32797 484.249 27.9839C452.265 65.2958 420.282 65.2958 388.299 27.9839C356.315 -9.32797 354.816 -7.68186 322.833 29.63C290.849 66.9419 228.382 65.2958 196.398 27.9839C164.415 -9.32797 132.431 -9.32797 100.448 27.9839C68.4645 65.2958 36.4811 65.2958 4.49762 27.9839L0 254H964V27.9839Z" fill="#FBF0CA"/>
</svg>