<svg xmlns="http://www.w3.org/2000/svg" width="126" height="126" viewBox="0 0 126 126" fill="none">
  <g opacity="0.6">
    <path d="M18.5744 33.7138C18.3071 33.5228 20.9226 30.2201 25.5617 28.2156C30.1817 26.1728 34.3817 26.4783 34.3435 26.8028C34.3626 27.2038 30.4298 27.4901 26.0962 29.4183C21.7244 31.3083 18.8417 34.0001 18.5744 33.7138Z" fill="#AA8C22"/>
    <path d="M25.2601 25.447C21.2128 27.3561 18.1774 29.4179 17.9483 29.1124C17.7192 28.8452 20.4874 26.2297 24.6874 24.2442C28.8874 22.2397 32.6674 21.7624 32.7247 22.1061C32.8201 22.4879 29.3074 23.5188 25.2601 25.447Z" fill="#AA8C22"/>
    <path d="M38.6788 97.6487C39.0034 97.8778 36.7888 101.142 35.6052 105.743C34.3643 110.325 34.6888 114.258 34.2879 114.296C33.9634 114.391 33.0088 110.287 34.3261 105.4C35.5861 100.493 38.4497 97.4005 38.6788 97.6487Z" fill="#AA8C22"/>
    <path d="M34.0008 95.9889C34.3445 96.1607 32.9699 99.5589 31.9772 103.912C30.9463 108.264 30.6981 111.93 30.2972 111.93C29.9535 111.949 29.6099 108.15 30.679 103.625C31.729 99.0816 33.6954 95.8171 34.0008 95.9889Z" fill="#AA8C22"/>
    <path d="M104.449 47.6499C104.163 47.9363 101.376 45.1299 97.0802 43.1063C92.8039 41.0254 88.8902 40.6054 88.9284 40.2045C88.9093 39.8608 93.1093 39.7081 97.653 41.9036C102.216 44.0799 104.717 47.459 104.449 47.6499Z" fill="#AA8C22"/>
    <path d="M3.39741 75.2361C4.52377 73.7088 6.24196 72.7161 7.73105 72.2961C10.7092 71.3225 13.3629 71.0552 15.5201 70.8834C18.4601 70.7116 20.4647 70.7116 21.4574 70.7688C21.2665 69.5852 21.3429 68.4207 21.4001 67.3898C21.4574 66.5307 21.5338 65.6907 21.591 64.8507C21.6292 63.9916 21.6674 63.1325 21.7247 62.2925C21.9347 58.8943 22.3547 55.6298 22.6601 52.5179C22.9656 49.4252 23.0611 46.2943 23.8438 43.297C24.5883 40.2998 26.2683 37.5125 28.6356 35.7943C30.9838 34.057 33.6183 33.2552 36.062 32.797C38.4865 32.3579 40.7965 32.1288 42.9538 32.0143C47.2683 31.7852 50.9529 31.957 53.9501 32.1098C56.9474 32.2816 59.2765 32.4343 60.8611 32.5679C62.4456 32.7016 63.2665 32.8352 63.2665 32.9116C63.2665 33.007 62.4265 33.0643 60.842 33.1025C59.2574 33.1407 56.9283 33.1407 53.9311 33.1407C50.9338 33.1407 47.2683 33.1407 43.0683 33.4843C40.9683 33.6752 38.7347 33.9616 36.4056 34.4388C34.1338 34.9352 31.7474 35.737 29.8001 37.2643C27.8338 38.7725 26.4974 41.1016 25.8674 43.7934C25.2183 46.5043 25.161 49.5207 24.8938 52.7088C24.6838 55.3434 24.4165 58.0352 24.2256 60.7652C24.3783 60.7461 24.8365 60.8225 25.6192 60.8225C26.5356 60.8225 27.9292 60.4979 29.1129 59.2761C29.7047 58.6652 30.2201 57.8634 30.6592 56.8898C31.1365 55.897 31.3274 54.847 31.7474 53.4725C31.9765 52.8043 32.3774 52.0025 33.1411 51.4488C33.9047 50.8761 34.9165 50.7425 35.8138 50.8761C36.7111 51.0288 37.551 51.4107 38.2765 52.0216C39.021 52.6516 39.5365 53.4534 39.9183 54.2934C40.682 55.9543 40.9301 57.7107 41.6747 59.0852C42.4001 60.517 43.6029 61.4143 45.0729 61.1279C46.562 60.8798 47.7647 59.6579 48.242 57.9398C48.5283 57.0807 48.4901 56.2407 48.7383 54.9234C48.872 54.2934 49.1774 53.5679 49.6929 52.957C50.2083 52.3461 50.9147 51.9452 51.602 51.7543C53.0147 51.3343 54.4083 51.5252 55.6683 52.0407C56.9092 52.5179 58.1501 53.6061 58.742 54.8279C60.0592 57.3861 59.7156 60.0398 59.7156 62.2925C59.6965 63.4379 59.7347 64.5452 60.021 65.4998C60.2501 66.4352 60.8038 67.3325 61.4529 67.8098C61.7774 68.0388 62.0829 68.1343 62.4074 68.1534C62.6938 68.1725 63.1711 68.0198 63.4001 67.8479C63.9729 67.4661 64.5265 66.4543 64.8892 65.3852C65.6911 63.247 65.7101 60.7652 66.7029 58.1307C67.1801 56.8516 68.1347 55.4007 69.662 54.7134C70.4065 54.3698 71.1892 54.217 71.9338 54.217C72.6211 54.1788 73.4992 54.3125 74.2056 54.6179C77.1074 55.8779 78.2147 58.7798 78.8638 60.8988C79.2265 61.987 79.5511 62.9798 80.0092 63.8198C80.4483 64.6025 81.0974 65.2898 81.8038 65.7098C83.2356 66.5688 84.7438 66.0534 85.6411 64.5261C86.5765 63.037 86.9583 61.0707 87.512 59.1998C87.7983 58.2452 87.9511 57.4052 88.3711 56.3361C88.6002 55.8207 88.9056 55.2479 89.4783 54.7898C90.0511 54.3316 90.872 54.1216 91.5783 54.2743C92.972 54.5798 93.7738 55.5725 94.2129 56.5461C94.6138 57.4816 94.7665 58.3025 95.072 58.8943C95.5874 60.0207 96.9047 60.7079 98.1456 60.8416C99.4056 60.9943 100.608 60.6125 101.353 59.8488C102.136 59.047 102.632 57.9207 103.281 56.9279C103.93 55.9161 104.77 55.1525 105.572 54.5988C107.214 53.5107 108.741 53.2052 109.734 53.1479C110.402 53.1098 110.822 53.167 111.051 53.2434C111.204 50.8379 111.032 48.5661 110.23 46.5425C109.734 45.3016 109.008 44.1943 108.149 43.2398C107.271 42.2852 106.24 41.5025 105.171 40.8152C100.742 38.1998 95.8929 37.3216 91.7692 36.5579C87.5692 35.8325 83.9611 35.2979 80.9829 34.8779C76.8592 34.3052 74.0338 33.9425 72.6783 33.7134C72.6592 33.8661 72.6401 34.0379 72.6211 34.1907C71.9338 39.0207 71.3229 41.9798 70.9601 41.9416C70.5783 41.9034 70.5401 38.8679 70.7501 34.0188C70.8647 31.5943 70.9792 28.7116 71.1129 25.5234C71.1701 23.9388 71.2274 22.2398 71.1511 20.617C71.1129 19.8725 70.9792 19.0898 70.6929 18.5361C70.3874 17.9634 70.1392 17.7725 69.6238 17.6961C69.0511 17.6579 68.6692 17.7916 68.2683 18.1925C67.8674 18.6125 67.5047 19.2616 67.2756 20.0061C66.7601 21.457 66.5311 23.0988 66.3401 24.6452C65.9965 27.8334 65.6911 30.7161 65.4238 33.1407C64.8511 37.9516 64.3165 40.9298 63.9538 40.9107C63.5911 40.8725 63.4574 37.8561 63.5529 32.9688C63.5911 31.747 63.6292 30.4107 63.6674 28.9788C63.7247 27.5279 63.8011 26.0961 63.8965 24.4161C64.0492 22.7743 64.202 21.0179 64.8129 19.1661C65.0992 18.2498 65.5383 17.257 66.3783 16.3598C67.1801 15.4243 68.6883 14.8516 69.9674 15.0425C70.6165 15.1188 71.3229 15.3861 71.8956 15.8252C72.4492 16.2643 72.8311 16.837 73.0792 17.3716C73.5756 18.4407 73.7092 19.4716 73.7474 20.4643C73.8047 22.3352 73.6711 24.0152 73.5565 25.6379C73.3274 28.5207 73.022 31.117 72.7165 33.3507C73.0983 33.3507 73.5565 33.3507 74.1674 33.3698C75.752 33.427 78.0811 33.5607 81.0783 33.8088C84.0756 34.0761 87.7411 34.4579 91.9792 35.0498C96.1983 35.6988 101.181 36.4052 106.126 39.1734C107.328 39.9179 108.531 40.7579 109.581 41.8652C110.612 42.9725 111.509 44.2898 112.12 45.7598C113.361 48.6998 113.418 52.0979 113.075 55.2479C112.483 61.5288 111.853 68.2488 111.185 75.3316C111.089 76.2479 110.765 77.1261 110.345 77.9279C110.574 77.9661 110.822 78.0234 111.108 78.0807C112.197 78.3289 113.857 78.6725 115.862 79.5316C117.79 80.4098 120.272 81.5743 122.429 84.037C122.926 84.6861 123.441 85.3925 123.727 86.2898C123.995 87.1298 124.224 88.2561 123.785 89.287C122.907 91.3298 121.036 92.3607 119.26 93.2007C117.447 94.0407 115.48 94.6134 113.437 95.167C111.414 95.6825 109.276 96.1979 107.004 96.5607C102.498 97.3052 97.6683 97.5916 92.5901 97.7634C82.4147 98.0879 71.2847 97.1525 59.6965 96.2552C54.8856 95.8925 50.1892 95.4152 45.6074 94.8616C45.5883 95.9307 44.5383 100.302 43.2592 106.984C42.9347 108.951 42.0947 111.051 41.8083 113.093C41.6556 114.124 41.7129 115.098 42.1138 115.9C42.4765 116.721 43.2783 117.351 44.2901 117.981C48.3374 120.443 54.122 120.424 60.002 121.073C62.9229 121.341 65.7674 121.512 68.4783 121.417C71.1701 121.322 73.7856 120.997 75.9047 120.1C78.0811 119.241 79.4174 117.618 79.6847 115.671C79.8756 114.773 79.6656 113.876 79.3983 112.864C79.112 111.852 78.8256 110.879 78.5583 109.943C76.4201 102.46 75.2747 97.7825 75.6183 97.6679C75.962 97.5534 77.7374 102.04 80.3338 109.371C80.6583 110.287 81.002 111.261 81.3456 112.253C81.6892 113.265 82.0711 114.563 81.8611 115.957C81.7274 117.255 81.212 118.63 80.2956 119.756C79.3983 120.902 78.1574 121.742 76.8783 122.314C74.282 123.479 71.4183 123.842 68.5547 123.994C65.672 124.128 62.7129 123.956 59.7347 123.689C56.7374 123.364 53.9311 123.173 51.0483 122.753C48.2038 122.295 45.3783 121.551 42.9729 120.023C41.8274 119.298 40.5483 118.286 39.9565 116.835C39.3265 115.403 39.3838 113.914 39.6129 112.712C40.1092 110.23 41.0065 108.378 41.4265 106.526C43.0874 100.016 44.672 95.7589 45.302 94.7852C38.9065 94.0025 32.7783 93.067 27.032 92.0361C22.0492 91.1961 17.2383 89.9934 13.0001 88.447C10.8429 87.7025 8.78105 86.8625 6.89105 85.7743C5.03923 84.667 3.16831 83.3116 2.29013 81.1352C1.46922 78.9589 2.27104 76.7443 3.39741 75.2361ZM110.975 53.3961C110.746 53.4534 110.345 53.5107 109.734 53.6443C108.837 53.8734 107.481 54.2934 106.107 55.4007C105.438 55.9543 104.789 56.6607 104.274 57.5579C103.739 58.4552 103.338 59.677 102.346 60.8225C101.315 62.0061 99.5965 62.617 97.8974 62.4834C96.2365 62.3688 94.3083 61.567 93.2965 59.6961C92.8383 58.8179 92.6474 57.9588 92.342 57.3288C92.0938 56.7561 91.5401 56.2979 91.1392 56.2598C90.7956 56.2216 90.5283 56.3934 90.242 57.1188C89.9938 57.787 89.7838 58.837 89.5547 59.7343C89.0583 61.567 88.772 63.6479 87.5501 65.7288C86.9392 66.7407 85.9847 67.8098 84.6101 68.2679C83.2738 68.7452 81.6701 68.497 80.5247 67.8098C79.3411 67.1416 78.4438 66.1679 77.7756 65.0034C77.1456 63.8961 76.7638 62.7316 76.4011 61.6625C76.0383 60.5934 75.6756 59.5816 75.1601 58.7798C74.6256 57.9779 73.9192 57.2716 73.1556 56.9852C72.4874 56.6988 71.3801 56.737 70.712 57.0616C70.0056 57.367 69.4711 58.0734 69.0892 59.0661C68.3065 61.0134 68.2492 63.6479 67.3138 66.2443C66.8365 67.5234 66.2829 68.917 64.8129 70.0052C64.0111 70.5398 63.2474 70.7498 62.312 70.7688C61.3956 70.7688 60.4983 70.4061 59.8301 69.9098C58.5129 68.8979 57.8065 67.5425 57.4247 66.1679C57.0429 64.7934 57.0429 63.457 57.062 62.2543C57.1192 59.8298 57.2911 57.5961 56.451 56.0116C56.0311 55.1907 55.4774 54.6943 54.6374 54.3316C53.8547 53.9879 52.9192 53.8925 52.232 54.1025C51.5256 54.3125 51.182 54.6752 50.9911 55.477C50.8001 56.2407 50.7811 57.5198 50.3801 58.6461C50.0174 59.7725 49.4256 60.8607 48.5283 61.7198C47.6311 62.5788 46.5047 63.1325 45.302 63.3234C44.1183 63.5334 42.782 63.2279 41.8083 62.5598C40.8156 61.8916 40.1856 60.9561 39.7465 60.0588C38.8492 58.207 38.6774 56.4507 38.0856 55.0952C37.7992 54.427 37.4365 53.8161 36.9974 53.4343C36.5392 53.0143 35.9474 52.7279 35.3938 52.5943C34.2292 52.3461 33.4274 52.9188 33.0074 54.0452C32.6065 55.1334 32.2438 56.4888 31.6711 57.5007C31.1174 58.5507 30.4492 59.4479 29.7047 60.097C28.1774 61.4334 26.4592 61.6052 25.4665 61.4334C24.7029 61.2998 24.2638 61.0898 24.1111 60.9561C24.0729 61.4716 24.0156 61.987 23.9965 62.5025C23.9583 63.3425 23.9392 64.1825 23.9011 65.0225C23.8629 65.9198 23.7865 66.7788 23.7292 67.6188C23.6147 69.2798 23.6529 70.9216 24.3211 72.0288C24.6838 72.6207 25.0656 72.9643 25.8674 73.4416C26.5738 73.9188 27.3374 74.3388 28.1011 74.7588C29.6474 75.5798 31.2892 76.2861 32.9883 76.9161C36.3865 78.157 40.0329 79.0352 43.7747 79.7798C51.3156 81.2879 59.162 82.5098 67.2756 83.0252C71.3229 83.2925 75.332 83.3689 79.2838 83.3116C83.1974 83.197 87.1874 83.0061 90.9865 82.777C94.7856 82.4907 98.5083 82.0516 101.887 80.9825C105.247 80.0089 108.321 78.0234 108.646 75.1216C109.409 68.0961 110.039 61.357 110.784 55.0952C110.898 54.4652 110.937 53.9307 110.975 53.3961ZM121.265 84.9534C119.527 82.7389 117.198 81.4216 115.366 80.467C113.514 79.4934 111.929 79.0161 110.898 78.5961C110.593 78.4816 110.326 78.367 110.116 78.2716C109.562 79.207 108.817 80.0279 107.997 80.6579C106.393 81.9752 104.541 82.7389 102.708 83.3307C98.9856 84.5334 95.1292 84.9916 91.2347 85.297C87.3211 85.5452 83.4456 85.7552 79.3983 85.8698C75.3701 85.9461 71.2847 85.8698 67.1611 85.6025C58.9138 85.087 50.9147 83.827 43.3165 82.2616C39.4983 81.4789 35.7374 80.5625 32.1674 79.2261C30.3729 78.5579 28.6356 77.7943 26.9747 76.897C26.1538 76.4389 25.3329 75.9616 24.5692 75.4461C23.8247 75.007 22.7938 74.167 22.2783 73.2125C21.8774 72.5061 21.6483 71.7998 21.5147 71.0934C20.5411 71.2652 18.5365 71.4943 15.6347 71.8952C13.5538 72.2198 10.9956 72.6398 8.24651 73.6898C6.85287 74.167 5.66923 74.9689 4.77196 76.2289C4.52377 76.5725 4.33286 76.9734 4.16105 77.3743C6.20377 78.0807 11.7401 80.5052 20.1783 82.4907C25.4856 83.7698 31.9192 84.8198 39.0974 85.6598C46.2947 86.4998 54.2747 87.1298 62.6174 87.9889C70.9411 88.7907 78.902 89.2488 86.1374 89.3443C93.3538 89.4207 99.9211 89.1534 105.362 88.8288C114.087 88.3134 119.928 86.7289 122.009 86.2898C121.799 85.7934 121.551 85.3352 121.265 84.9534ZM4.0656 80.5243C4.65742 81.937 6.20378 83.1207 7.92196 84.0752C9.65923 85.0107 11.6447 85.7743 13.7447 86.4616C17.9829 87.8934 22.5074 88.9434 27.4901 89.707C37.4365 91.3489 48.3565 92.7616 59.9447 93.6398C71.552 94.537 82.5674 95.5298 92.5711 95.3389C97.5729 95.2434 102.346 95.0143 106.698 94.4034C108.875 94.0979 110.956 93.6398 112.979 93.1816C114.965 92.7234 116.874 92.2079 118.535 91.5016C120.196 90.8143 121.723 89.8598 122.238 88.6952C122.487 88.1034 122.41 87.3779 122.181 86.6716C121.475 87.0343 120.215 87.5498 118.439 88.1225C115.48 89.077 111.051 90.0698 105.553 90.6807C100.036 91.2534 93.4874 91.7116 86.1565 91.7879C78.8256 91.8452 70.7883 91.4443 62.3883 90.6425C54.0265 89.7834 46.0656 89.077 38.8111 88.1034C31.5565 87.1107 25.0656 85.8507 19.7201 84.3234C14.3747 82.7961 10.1747 81.1352 7.4065 79.7225C5.82196 78.9398 4.69559 78.2907 4.02741 77.8516C3.74105 78.7107 3.68378 79.6843 4.0656 80.5243Z" fill="#AA8C22"/>
    <path d="M71.6077 13.6873C70.8823 14.1646 70.0423 14.3364 69.2595 14.1455C68.4768 13.9355 67.9995 13.4391 67.7323 13.0191C67.465 12.58 67.3504 12.1982 67.3123 11.8737C67.2168 11.2246 67.3886 10.8809 67.5604 10.8618C67.7514 10.8237 67.9423 11.11 68.2668 11.4918C68.5723 11.8737 69.145 12.3891 69.565 12.3127C70.0041 12.2746 70.5959 11.8164 70.7868 10.9573C71.0159 9.94548 70.9777 8.74275 70.5768 7.54002C70.4623 7.25366 70.3668 6.96729 70.2523 6.68093C70.2332 6.60457 70.2523 6.66184 70.2523 6.62366C70.2523 6.62366 70.2523 6.5282 70.2332 6.50911C70.2141 6.49002 70.1759 6.49002 70.1186 6.5282L70.0804 6.54729L69.8895 6.79548C69.7559 6.96729 69.6414 7.1582 69.5268 7.31093C69.0495 7.97911 68.7059 8.55184 68.4577 9.06729C67.9423 10.0791 67.8659 10.8046 67.5795 10.8618C67.3314 10.9382 66.8159 10.1364 66.9877 8.66639C67.0641 7.96002 67.3314 7.12002 67.7132 6.28002C67.8086 6.07002 67.9041 5.86002 68.0186 5.65002L68.1904 5.30639L68.515 4.71457C68.935 3.93184 69.3932 2.92002 69.8895 1.9082C70.1568 2.13729 70.5386 2.5382 70.8632 2.86275C71.2068 3.20639 71.5504 3.55002 71.875 4.02729C72.1995 4.48548 72.4859 5.11548 72.715 5.65002C72.8486 5.97457 72.9632 6.26093 73.0968 6.64275C73.6695 8.30366 73.6695 10.1173 73.135 11.6064C72.8486 12.4846 72.3141 13.21 71.6077 13.6873Z" fill="#AA8C22"/>
  </g>
</svg>