<svg xmlns="http://www.w3.org/2000/svg" width="101" height="101" viewBox="0 0 101 101" fill="none">
  <g opacity="0.4" clip-path="url(#clip0_560_23025)">
    <path d="M32.1345 63.3403C32.4496 62.4659 33.4137 62.0126 34.2879 62.3277C35.1622 62.6428 35.6155 63.607 35.3004 64.4811C35.2926 64.5026 35.2844 64.5238 35.2758 64.5451C33.7412 68.5498 33.6302 71.6123 34.9729 72.9584C36.6018 74.5839 40.6587 74.0757 45.8279 71.6022C52.7483 68.0088 59.0388 63.3146 64.4535 57.7033C77.6339 44.5212 83.0723 31.5864 79.7086 28.2228C78.6353 27.3751 77.2401 27.0495 75.9024 27.3343C74.9757 27.4025 74.169 26.7063 74.1009 25.7795C74.035 24.8837 74.6843 24.0941 75.576 23.9858C77.9155 23.5718 80.3158 24.254 82.0879 25.8367C88.2532 32.0004 78.8286 48.0784 66.8328 60.0759C61.1493 65.9572 54.5452 70.873 47.28 74.6293C45.9644 75.2593 44.6086 75.8018 43.2214 76.2531L55.1768 80.7863C71.1413 74.7168 82.6337 60.5638 85.2968 43.6933C85.4409 42.7752 86.302 42.1476 87.2201 42.2916C88.1382 42.4357 88.7658 43.2968 88.6218 44.2149C88.3576 45.8976 88.0042 47.5803 87.5718 49.226C83.697 63.9071 73.4913 76.1034 59.7234 82.506L79.4007 89.9518C79.4909 89.8012 79.6045 89.6662 79.7372 89.5513C84.7381 85.5363 87.8759 79.6479 88.4198 73.258L89.2006 63.803C89.262 62.887 90.0546 62.1941 90.9708 62.2556C90.9882 62.2568 91.0057 62.2581 91.0229 62.26C91.9492 62.3336 92.6406 63.1444 92.567 64.0707C92.5668 64.0745 92.5664 64.0785 92.566 64.0823L91.7717 73.5339C91.1803 80.3641 87.9941 86.7078 82.8687 91.2609L96.9056 96.5748L94.3816 86.2163C94.1613 85.3129 94.7149 84.4021 95.6183 84.1819C96.5217 83.9617 97.4325 84.5153 97.6527 85.4187L100.936 98.8801C101.157 99.7826 100.605 100.694 99.7018 100.915C99.3707 100.996 99.023 100.975 98.7044 100.854L36.4453 77.2964C36.3462 77.248 36.2526 77.1893 36.166 77.1214C34.8186 76.9144 33.5694 76.2914 32.5936 75.3394C30.9263 73.6719 29.491 70.2342 32.1345 63.3403Z" fill="#AA8C22"/>
    <path d="M16.2535 58.9998C25.3498 55.5945 35.1815 54.6398 44.7631 56.2318L50.7753 57.2414C51.6879 57.4168 52.2855 58.2988 52.1101 59.2114C51.9405 60.0931 51.1087 60.6865 50.22 60.5596L44.2095 59.5584C35.2109 58.0623 25.977 58.9596 17.4347 62.1599C17.2452 62.227 17.0452 62.2606 16.8441 62.2591C15.9148 62.2606 15.1601 61.5087 15.1587 60.5792C15.1574 59.8756 15.5941 59.2457 16.2535 58.9998Z" fill="#AA8C22"/>
    <path d="M10.2734 32.9305C10.673 32.0913 11.6772 31.735 12.5164 32.1346L47.8527 48.9614C48.6917 49.3608 49.0482 50.3647 48.6488 51.204L48.6486 51.2044C48.2491 52.0434 47.2452 52.3999 46.406 52.0005L46.4056 52.0003L11.0693 35.1735C10.2301 34.7739 9.87378 33.7697 10.2734 32.9305Z" fill="#AA8C22"/>
    <path d="M60.1129 11.4203C60.298 10.5095 61.1862 9.92121 62.097 10.1063C63.0077 10.2914 63.596 11.1796 63.4109 12.0904C63.4069 12.1106 63.4023 12.1306 63.3975 12.1505C61.2676 21.6659 62.1454 31.608 65.9097 40.6029L68.3563 46.4738C68.7099 47.3292 68.3063 48.3096 67.4527 48.668C67.2483 48.754 67.0285 48.798 66.8066 48.7976C66.1274 48.7976 65.5149 48.3895 65.2535 47.7627L62.8052 41.8986C58.772 32.2634 57.8312 21.6133 60.1129 11.4203Z" fill="#AA8C22"/>
    <path d="M8.42853 60.5762C11.2165 60.5762 13.4766 62.8362 13.4766 65.6242C13.4766 68.4122 11.2165 70.6722 8.42853 70.6722C5.64054 70.6722 3.3805 68.4122 3.3805 65.6242C3.3805 62.8362 5.64054 60.5762 8.42853 60.5762ZM8.42853 67.3069C9.35779 67.3069 10.1112 66.5535 10.1112 65.6242C10.1112 64.6949 9.35779 63.9415 8.42853 63.9415C7.49927 63.9415 6.74585 64.6949 6.74585 65.6242C6.74585 66.5535 7.49927 67.3069 8.42853 67.3069Z" fill="#AA8C22"/>
    <path d="M48.8113 13.4609C51.5993 13.4609 53.8594 15.721 53.8594 18.509C53.8594 21.297 51.5993 23.557 48.8113 23.557C46.0234 23.557 43.7633 21.297 43.7633 18.509C43.7633 15.721 46.0234 13.4609 48.8113 13.4609ZM48.8113 20.1916C49.7406 20.1916 50.494 19.4382 50.494 18.509C50.494 17.5797 49.7406 16.8263 48.8113 16.8263C47.8821 16.8263 47.1287 17.5797 47.1287 18.509C47.1287 19.4382 47.8821 20.1916 48.8113 20.1916Z" fill="#AA8C22"/>
    <path d="M63.9628 6.73071C62.1041 6.73071 60.5974 5.22399 60.5974 3.36536C60.5974 1.50672 62.1041 0 63.9628 0C65.8214 0 67.3281 1.50672 67.3281 3.36536C67.3281 5.22399 65.8214 6.73071 63.9628 6.73071Z" fill="#AA8C22"/>
    <path d="M16.8408 8.41406C17.77 8.41406 18.5234 9.16748 18.5234 10.0967V11.7794C18.5234 12.7087 17.77 13.4621 16.8408 13.4621C15.9115 13.4621 15.1581 12.7087 15.1581 11.7794V10.0967C15.1581 9.16748 15.9115 8.41406 16.8408 8.41406Z" fill="#AA8C22"/>
    <path d="M16.8408 0C17.77 0 18.5234 0.753419 18.5234 1.68268V3.36536C18.5234 4.29461 17.77 5.04803 16.8408 5.04803C15.9115 5.04803 15.1581 4.29461 15.1581 3.36536V1.68268C15.1581 0.753419 15.9115 0 16.8408 0Z" fill="#AA8C22"/>
    <path d="M11.7987 5.04883H13.4814C14.4106 5.04883 15.1641 5.80225 15.1641 6.73151C15.1641 7.66076 14.4106 8.41418 13.4814 8.41418H11.7987C10.8694 8.41418 10.116 7.66076 10.116 6.73151C10.116 5.80225 10.8694 5.04883 11.7987 5.04883Z" fill="#AA8C22"/>
    <path d="M20.2128 5.04883H21.8954C22.8247 5.04883 23.5781 5.80225 23.5781 6.73151C23.5781 7.66076 22.8247 8.41418 21.8954 8.41418H20.2128C19.2835 8.41418 18.5301 7.66076 18.5301 6.73151C18.5301 5.80225 19.2835 5.04883 20.2128 5.04883Z" fill="#AA8C22"/>
    <path d="M28.6264 18.4746H37.0751C38.0044 18.4746 38.7578 19.228 38.7578 20.1573V28.606C38.7578 29.5353 38.0044 30.2887 37.0751 30.2887H28.6264C27.6972 30.2887 26.9437 29.5353 26.9437 28.606V20.1573C26.9437 19.228 27.6972 18.4746 28.6264 18.4746ZM30.3091 26.9233H35.3925V21.84H30.3091V26.9233Z" fill="#AA8C22"/>
    <path d="M40.8814 32.5245C41.4992 31.8651 42.5273 31.8112 43.2104 32.4025L60.0372 47.5466C60.7275 48.1683 60.7833 49.232 60.1617 49.9225C59.54 50.6129 58.4763 50.6686 57.7858 50.0471L40.959 34.903C40.2807 34.2675 40.246 33.2028 40.8814 32.5245Z" fill="#AA8C22"/>
    <path d="M10.1142 38.7012C11.0435 38.7012 11.7969 39.4546 11.7969 40.3838V42.0665C11.7969 42.9958 11.0435 43.7492 10.1142 43.7492C9.18494 43.7492 8.43152 42.9958 8.43152 42.0665V40.3838C8.43152 39.4546 9.18494 38.7012 10.1142 38.7012Z" fill="#AA8C22"/>
    <path d="M2.97436 38.4121L4.16401 37.2225C4.83245 36.5767 5.89759 36.5952 6.54332 37.2637C7.17306 37.9157 7.17306 38.9495 6.54332 39.6018L5.35366 40.7914C4.68522 41.4371 3.62008 41.4186 2.97436 40.7502C2.3444 40.0979 2.3444 39.0641 2.97436 38.4121Z" fill="#AA8C22"/>
    <path d="M1.69714 31.9707H3.37982C4.30908 31.9707 5.0625 32.7241 5.0625 33.6534C5.0625 34.5826 4.30908 35.3361 3.37982 35.3361H1.69714C0.767886 35.3361 0.0144668 34.5826 0.0144668 33.6534C0.0144668 32.7241 0.767886 31.9707 1.69714 31.9707Z" fill="#AA8C22"/>
    <path d="M3.01865 26.5153C3.67068 25.8855 4.70448 25.8855 5.35673 26.5153L6.54638 27.7049C7.20347 28.3622 7.20325 29.4276 6.54596 30.0847C6.23046 30.3999 5.80264 30.5773 5.35673 30.5773C4.9104 30.5773 4.48257 30.3997 4.16707 30.0842L2.97742 28.8946C2.33169 28.2261 2.3502 27.1608 3.01865 26.5153Z" fill="#AA8C22"/>
    <path d="M10.1142 23.5566C11.0435 23.5566 11.7969 24.3101 11.7969 25.2393V26.922C11.7969 27.8513 11.0435 28.6047 10.1142 28.6047C9.18494 28.6047 8.43152 27.8513 8.43152 26.922V25.2393C8.43152 24.3101 9.18494 23.5566 10.1142 23.5566Z" fill="#AA8C22"/>
    <path d="M13.6853 27.705L14.875 26.5153C15.5434 25.8698 16.6085 25.8881 17.2543 26.5566C17.884 27.2086 17.884 28.2424 17.2543 28.8947L16.0646 30.0843C15.3962 30.73 14.331 30.7115 13.6853 30.0431C13.0553 29.3908 13.0553 28.357 13.6853 27.705Z" fill="#AA8C22"/>
    <path d="M80.8648 7.27618C81.0629 6.66747 81.5894 6.22409 82.2227 6.13196L87.1613 5.41346L89.364 0.939219C89.8549 0.105662 90.9287 -0.17219 91.7622 0.318731C92.0184 0.469541 92.2319 0.683031 92.3827 0.939219L94.5954 5.41346L99.5341 6.13196C100.454 6.26468 101.092 7.11801 100.959 8.03781C100.906 8.404 100.734 8.74243 100.47 9.00093L96.8973 12.4841L97.7387 17.4025C97.9002 18.3177 97.2894 19.1906 96.3742 19.3521C96.0057 19.4171 95.6263 19.3576 95.2954 19.1828L90.8784 16.854L86.4614 19.1761C85.6387 19.6085 84.6213 19.2924 84.1889 18.4698C84.0166 18.1423 83.9573 17.7673 84.0198 17.4025L84.8611 12.4841L81.2871 9.00093C80.8296 8.55313 80.666 7.88468 80.8648 7.27618ZM87.8496 10.692C88.2458 11.078 88.4269 11.6341 88.3342 12.1795L87.9169 14.611L90.0959 13.4617C90.5858 13.2045 91.171 13.2045 91.6608 13.4617L93.8483 14.6093L93.431 12.1778C93.3366 11.6345 93.5145 11.0792 93.9072 10.692L95.6757 8.97064L93.2341 8.61559C92.686 8.53609 92.2121 8.19177 91.9671 7.69517L90.8784 5.48581L89.788 7.69517C89.5432 8.19135 89.0701 8.53546 88.5226 8.61559L86.0827 8.97064L87.8496 10.692Z" fill="#AA8C22"/>
    <path d="M5.7024 84.3439H5.70913L6.4024 83.304C10.2896 77.491 16.4021 73.5384 23.2982 72.3784C24.2182 72.2472 25.0704 72.8866 25.2017 73.8066C25.3285 74.6955 24.7352 75.5273 23.8534 75.6966C18.8794 76.5409 14.3465 79.0679 11.0129 82.8548C13.8156 83.3589 16.2669 85.0422 17.7436 87.4771C19.5559 90.7227 18.3938 94.8228 15.1481 96.635C11.9024 98.4473 7.80238 97.2852 5.99014 94.0395C5.29792 92.7033 4.92416 91.2248 4.89808 89.7201C3.10771 92.3205 2.96447 95.7163 4.52957 98.4582C5.00367 99.2575 4.74012 100.29 3.94085 100.764C3.14158 101.238 2.10925 100.974 1.63516 100.175C1.62001 100.15 1.6055 100.124 1.59162 100.097C-1.48936 94.594 0.325407 87.6401 5.7024 84.3439ZM8.92473 92.3972C9.82286 94.0246 11.87 94.6156 13.4972 93.7175C15.1243 92.8194 15.7156 90.7722 14.8175 89.145C14.8124 89.136 14.8074 89.1267 14.8023 89.1177C13.8093 87.4918 12.1344 86.4018 10.2456 86.1528C9.95306 86.1448 9.66343 86.2121 9.40429 86.348C7.98412 87.1405 7.90839 90.5766 8.92473 92.3972Z" fill="#AA8C22"/>
  </g>
  <defs>
    <clipPath id="clip0_560_23025">
      <rect width="101" height="101" fill="white" transform="matrix(-1 0 0 1 101 0)"/>
    </clipPath>
  </defs>
</svg>