<svg width="17" height="17" viewBox="0 0 17 17" fill="none" xmlns="http://www.w3.org/2000/svg">
<path d="M8.35509 0C15.0392 0 16.7102 1.67102 16.7102 8.3551C16.7102 15.0392 15.0392 16.7102 8.35509 16.7102C1.67102 16.7102 0 15.0392 0 8.3551C0 1.67102 1.67102 0 8.35509 0Z" fill="#475569"/>
<path d="M4.14339 8.11026C3.92688 8.11077 3.71498 8.16272 3.53218 8.26009C3.34939 8.35746 3.20317 8.49629 3.11046 8.66049C3.01774 8.8247 2.98231 9.00759 3.00827 9.18799C3.03423 9.36839 3.12051 9.53894 3.25714 9.67991L6.16965 12.6744C6.2735 12.7826 6.40661 12.8685 6.55794 12.9249C6.70926 12.9813 6.87443 13.0065 7.03972 12.9986C7.39324 12.9826 7.7124 12.8239 7.91589 12.5629L13.9659 4.38505C13.9669 4.38369 13.968 4.38233 13.969 4.381C14.0258 4.30784 14.0074 4.16287 13.8902 4.07179C13.858 4.04678 13.8201 4.02757 13.7787 4.01533C13.7373 4.0031 13.6934 3.9981 13.6497 4.00065C13.6059 4.00319 13.5632 4.01323 13.5243 4.03015C13.4853 4.04706 13.4509 4.07049 13.4231 4.09899C13.4209 4.10123 13.4187 4.10343 13.4164 4.10561L7.31486 9.89168C7.29164 9.91369 7.26344 9.93162 7.2319 9.94442C7.20036 9.95721 7.1661 9.96462 7.13112 9.9662C7.09614 9.96779 7.06113 9.96353 7.02813 9.95367C6.99513 9.9438 6.96479 9.92853 6.93888 9.90875L4.91389 8.3621C4.70358 8.20029 4.42869 8.11044 4.14339 8.11026Z" fill="white"/>
</svg>
