<svg xmlns="http://www.w3.org/2000/svg" width="20" height="20" viewBox="0 0 20 20" fill="none">
  <path d="M12.9219 10.959H11.1135C9.63021 10.959 8.42188 9.75898 8.42188 8.26732V6.45898C8.42188 6.11732 8.14688 5.83398 7.79688 5.83398H5.15521C3.23021 5.83398 1.67188 7.08398 1.67188 9.31732V14.8507C1.67188 17.084 3.23021 18.334 5.15521 18.334H10.0635C11.9885 18.334 13.5469 17.084 13.5469 14.8507V11.584C13.5469 11.234 13.2635 10.959 12.9219 10.959Z" fill="black" fill-opacity="0.5"/>
  <path d="M14.8521 1.66602H13.2104H12.3021H9.94375C8.06042 1.66602 6.53542 2.86602 6.46875 5.00768C6.51875 5.00768 6.56042 4.99935 6.61042 4.99935H8.96875H9.87708H11.5187C13.4437 4.99935 15.0021 6.24935 15.0021 8.48268V10.1243V12.3827V14.0243C15.0021 14.0743 14.9937 14.116 14.9937 14.1577C16.8521 14.0993 18.3354 12.866 18.3354 10.691V9.04935V6.79101V5.14935C18.3354 2.91602 16.7771 1.66602 14.8521 1.66602Z" fill="black" fill-opacity="0.5"/>
  <path d="M9.98125 5.9591C9.72292 5.70077 9.28125 5.87577 9.28125 6.2341V8.41744C9.28125 9.3341 10.0563 10.0841 11.0063 10.0841C11.5979 10.0924 12.4229 10.0924 13.1313 10.0924C13.4896 10.0924 13.6729 9.67577 13.4229 9.42577C12.5146 8.51744 10.8979 6.89244 9.98125 5.9591Z" fill="black" fill-opacity="0.5"/>
</svg>