<svg xmlns="http://www.w3.org/2000/svg" width="22" height="23" viewBox="0 0 22 23" fill="none">
  <path opacity="0.4" d="M18.7891 10.3024H16.1399C13.9674 10.3024 12.1982 8.53326 12.1982 6.36076V3.71159C12.1982 3.20742 11.7857 2.79492 11.2816 2.79492H7.3949C4.57156 2.79492 2.28906 4.62826 2.28906 7.90076V16.0224C2.28906 19.2949 4.57156 21.1283 7.3949 21.1283H14.5999C17.4232 21.1283 19.7057 19.2949 19.7057 16.0224V11.2191C19.7057 10.7149 19.2932 10.3024 18.7891 10.3024Z" fill="#ED6F4D"/>
  <path d="M14.4798 2.98721C14.104 2.61138 13.4531 2.86805 13.4531 3.39055V6.58971C13.4531 7.92804 14.5898 9.03721 15.974 9.03721C16.8448 9.04638 18.0548 9.04638 19.0906 9.04638C19.6131 9.04638 19.8881 8.43221 19.5215 8.06554C18.2015 6.73638 15.8365 4.34388 14.4798 2.98721Z" fill="#ED6F4D"/>
  <path d="M11.2596 14.4543C10.9938 14.1884 10.5538 14.1884 10.2879 14.4543L9.62792 15.1143V11.2734C9.62792 10.8976 9.31625 10.5859 8.94042 10.5859C8.56458 10.5859 8.25292 10.8976 8.25292 11.2734V15.1143L7.59292 14.4543C7.32708 14.1884 6.88708 14.1884 6.62125 14.4543C6.35542 14.7201 6.35542 15.1601 6.62125 15.4259L8.45458 17.2593C8.46375 17.2684 8.47292 17.2684 8.47292 17.2776C8.52792 17.3326 8.60125 17.3784 8.67458 17.4151C8.76625 17.4426 8.84875 17.4609 8.94042 17.4609C9.03208 17.4609 9.11458 17.4426 9.19708 17.4059C9.27958 17.3693 9.35292 17.3234 9.42625 17.2593L11.2596 15.4259C11.5254 15.1601 11.5254 14.7201 11.2596 14.4543Z" fill="#ED6F4D"/>
</svg>