<svg xmlns="http://www.w3.org/2000/svg" width="21" height="21" viewBox="0 0 21 21" fill="none">
  <g clip-path="url(#clip0_560_23284)">
    <path d="M15.75 1.75C15.9643 1.75003 16.1712 1.82871 16.3313 1.97113C16.4915 2.11354 16.5938 2.30978 16.6189 2.52262L16.625 2.625V6.125C16.625 6.33932 16.5463 6.54617 16.4039 6.70632C16.2615 6.86648 16.0652 6.9688 15.8524 6.99387L15.75 7H13.125V7.875H15.75C15.8746 7.87505 15.9977 7.90169 16.1111 7.95314C16.2245 8.00459 16.3257 8.07967 16.4078 8.17335C16.4899 8.26704 16.551 8.37717 16.5871 8.49638C16.6232 8.61559 16.6334 8.74114 16.6171 8.86462L16.5996 8.96262L15.7246 12.4626C15.6812 12.6354 15.586 12.7909 15.4519 12.9082C15.3177 13.0254 15.1509 13.0989 14.9739 13.1189L14.875 13.125H13.125V18.375C13.125 18.5893 13.0463 18.7962 12.9039 18.9563C12.7615 19.1165 12.5652 19.2188 12.3524 19.2439L12.25 19.25H8.75C8.53568 19.25 8.32883 19.1713 8.16867 19.0289C8.00852 18.8865 7.9062 18.6902 7.88112 18.4774L7.875 18.375V13.125H6.125C5.91068 13.125 5.70383 13.0463 5.54367 12.9039C5.38352 12.7615 5.2812 12.5652 5.25612 12.3524L5.25 12.25V8.75C5.25003 8.53568 5.32871 8.32883 5.47113 8.16867C5.61354 8.00852 5.80978 7.9062 6.02262 7.88112L6.125 7.875H7.875V7C7.87495 5.64167 8.40137 4.33618 9.34366 3.35784C10.2859 2.37949 11.5707 1.80444 12.9281 1.7535L13.125 1.75H15.75Z" fill="white"/>
  </g>
  <defs>
    <clipPath id="clip0_560_23284">
      <rect width="21" height="21" fill="white"/>
    </clipPath>
  </defs>
</svg>