<svg xmlns="http://www.w3.org/2000/svg" width="430" height="241" viewBox="0 0 430 241" fill="none">
  <path d="M27.6485 10.9839C9.76568 -3.6613 -8.11716 -3.6613 -26 10.9839V241H513L510.485 10.9839C492.602 25.6291 474.72 25.6291 456.837 10.9839C438.954 -3.6613 421.071 -3.6613 403.188 10.9839C385.305 25.6291 367.423 25.6291 349.54 10.9839C331.657 -3.6613 313.774 -3.6613 295.891 10.9839C278.008 25.6291 260.125 25.6291 242.243 10.9839C224.36 -3.6613 206.477 -3.6613 188.594 10.9839C170.711 25.6291 152.828 25.6291 134.946 10.9839C117.063 -3.6613 99.1799 -3.6613 81.297 10.9839C63.4142 25.6291 45.5314 25.6291 27.6485 10.9839Z" fill="#05123C"/>
</svg>