<svg xmlns="http://www.w3.org/2000/svg" width="1479" height="196" viewBox="0 0 1479 196" fill="none">
  <path d="M810.555 20.9731C786.037 -6.99104 761.519 -6.99104 737.001 20.9731V196H1479V0C1454.48 27.9642 1423.51 48.9373 1398.99 20.9731C1374.47 -6.99104 1349.95 -6.99104 1325.44 20.9731C1300.92 48.9373 1276.4 48.9373 1251.88 20.9731C1227.36 -6.99104 1202.84 -6.99104 1178.33 20.9731C1153.81 48.9373 1129.29 48.9373 1104.77 20.9731C1080.25 -6.99104 1055.74 -6.99104 1031.22 20.9731C1006.7 48.9373 982.182 48.9373 957.664 20.9731C933.146 -6.99104 908.627 -6.99104 884.109 20.9731C859.591 48.9373 835.073 48.9373 810.555 20.9731Z" fill="#05123C"/>
  <path d="M73.6547 20.9731C49.1031 -6.99104 24.5516 -6.99104 0 20.9731V196H737.001L737.999 19.8498C713.448 47.814 687.444 48.9373 662.892 20.9731C638.34 -6.99104 613.789 -6.99104 589.237 20.9731C564.686 48.9373 540.134 48.9373 515.583 20.9731C491.031 -6.99104 466.479 -6.99104 441.928 20.9731C417.376 48.9373 392.825 48.9373 368.273 20.9731C343.722 -6.99104 319.17 -6.99104 294.619 20.9731C270.067 48.9373 245.516 48.9373 220.964 20.9731C196.412 -6.99104 171.861 -6.99104 147.309 20.9731C122.758 48.9373 98.2062 48.9373 73.6547 20.9731Z" fill="#05123C"/>
</svg>