<svg xmlns="http://www.w3.org/2000/svg" width="18" height="18" viewBox="0 0 18 18" fill="none">
  <path d="M17.0523 7.96347L10.0772 7.96313C9.76919 7.96313 9.51953 8.21276 9.51953 8.52077V10.749C9.51953 11.057 9.76919 11.3067 10.0772 11.3067H14.0051C13.575 12.4229 12.7722 13.3577 11.748 13.9517L13.4229 16.8511C16.1096 15.2972 17.698 12.5709 17.698 9.51888C17.698 9.08432 17.666 8.77367 17.6019 8.42388C17.5532 8.15812 17.3225 7.96347 17.0523 7.96347Z" fill="#167EE6"/>
  <path d="M9.14705 14.6548C7.22478 14.6548 5.54665 13.6045 4.64537 12.0503L1.74609 13.7214C3.22152 16.2785 5.98546 18.0005 9.14705 18.0005C10.698 18.0005 12.1615 17.5829 13.4222 16.8552V16.8512L11.7473 13.9518C10.9812 14.3961 10.0946 14.6548 9.14705 14.6548Z" fill="#12B347"/>
  <path d="M13.4236 16.855V16.8511L11.7487 13.9517C10.9826 14.396 10.0961 14.6546 9.14844 14.6546V18.0004C10.6994 18.0004 12.1629 17.5828 13.4236 16.855Z" fill="#0F993E"/>
  <path d="M3.94342 9.45036C3.94342 8.50285 4.20199 7.61639 4.64624 6.85031L1.74697 5.1792C1.01522 6.43592 0.597656 7.89541 0.597656 9.45036C0.597656 11.0053 1.01522 12.4648 1.74697 13.7215L4.64624 12.0504C4.20199 11.2843 3.94342 10.3979 3.94342 9.45036Z" fill="#FFD500"/>
  <path d="M9.14705 4.24566C10.4006 4.24566 11.552 4.69108 12.4513 5.43198C12.6732 5.61474 12.9957 5.60155 13.1989 5.39831L14.7777 3.81952C15.0083 3.58893 14.9919 3.21148 14.7455 2.99779C13.2387 1.69057 11.2782 0.899902 9.14705 0.899902C5.98545 0.899902 3.22152 2.62188 1.74609 5.17901L4.64537 6.85012C5.54665 5.29594 7.22478 4.24566 9.14705 4.24566Z" fill="#FF4B26"/>
  <path d="M12.4527 5.43198C12.6746 5.61474 12.9971 5.60155 13.2003 5.39831L14.7791 3.81952C15.0096 3.58893 14.9932 3.21148 14.7469 2.99779C13.2401 1.69053 11.2796 0.899902 9.14844 0.899902V4.24566C10.4019 4.24566 11.5534 4.69108 12.4527 5.43198Z" fill="#D93F21"/>
</svg>