<svg xmlns="http://www.w3.org/2000/svg" width="20" height="20" viewBox="0 0 20 20" fill="none">
  <path d="M18.0515 8.70005L17.2348 12.1834C16.5348 15.1917 15.1515 16.4084 12.5515 16.1584C12.1348 16.125 11.6848 16.05 11.2015 15.9334L9.80145 15.6C6.32645 14.775 5.25145 13.0584 6.06812 9.57505L6.88479 6.08338C7.05145 5.37505 7.25145 4.75838 7.50145 4.25005C8.47645 2.23338 10.1348 1.69171 12.9181 2.35005L14.3098 2.67505C17.8015 3.49171 18.8681 5.21671 18.0515 8.70005Z" stroke="#1E293B" stroke-width="1.2" stroke-linecap="round" stroke-linejoin="round"/>
  <path d="M12.5513 16.1583C12.0346 16.5083 11.3846 16.8 10.5929 17.0583L9.27626 17.4917C5.96793 18.5583 4.22626 17.6667 3.15126 14.3583L2.08459 11.0667C1.01793 7.75833 1.90126 6.00833 5.20959 4.94167L6.52626 4.50833C6.86793 4.4 7.19293 4.30833 7.50126 4.25C7.25126 4.75833 7.05126 5.375 6.88459 6.08333L6.06793 9.575C5.25126 13.0583 6.32626 14.775 9.80126 15.6L11.2013 15.9333C11.6846 16.05 12.1346 16.125 12.5513 16.1583Z" stroke="#1E293B" stroke-width="1.2" stroke-linecap="round" stroke-linejoin="round"/>
  <path d="M10.5352 7.10828L14.5768 8.13328" stroke="#1E293B" stroke-width="1.2" stroke-linecap="round" stroke-linejoin="round"/>
  <path d="M9.71484 10.3334L12.1315 10.95" stroke="#1E293B" stroke-width="1.2" stroke-linecap="round" stroke-linejoin="round"/>
</svg>