<svg xmlns="http://www.w3.org/2000/svg" width="21" height="21" viewBox="0 0 21 21" fill="none">
  <path d="M10.4986 7.28906C8.72756 7.28906 7.28906 8.72756 7.28906 10.4986C7.28906 12.2696 8.72756 13.7116 10.4986 13.7116C12.2696 13.7116 13.7116 12.2696 13.7116 10.4986C13.7116 8.72756 12.2696 7.28906 10.4986 7.28906Z" fill="white"/>
  <path d="M15.344 1.75H5.656C3.5035 1.75 1.75 3.5035 1.75 5.656V15.344C1.75 17.5 3.5035 19.25 5.656 19.25H15.344C17.5 19.25 19.25 17.5 19.25 15.344V5.656C19.25 3.5035 17.5 1.75 15.344 1.75ZM10.5 16.17C7.3745 16.17 4.83 13.6255 4.83 10.5C4.83 7.3745 7.3745 4.8335 10.5 4.8335C13.6255 4.8335 16.17 7.3745 16.17 10.5C16.17 13.6255 13.6255 16.17 10.5 16.17ZM16.289 5.8625C15.6275 5.8625 15.0885 5.327 15.0885 4.6655C15.0885 4.004 15.6275 3.465 16.289 3.465C16.9505 3.465 17.4895 4.004 17.4895 4.6655C17.4895 5.327 16.9505 5.8625 16.289 5.8625Z" fill="white"/>
</svg>