<svg xmlns="http://www.w3.org/2000/svg" width="22" height="22" viewBox="0 0 22 22" fill="none">
  <g clip-path="url(#clip0_560_20936)">
    <mask id="mask0_560_20936" style="mask-type:luminance" maskUnits="userSpaceOnUse" x="0" y="0" width="22" height="23">
      <path d="M0 0.000249863H22V22.0002H0V0.000249863Z" fill="white"/>
    </mask>
    <g mask="url(#mask0_560_20936)">
      <path d="M21.1398 11.0022C21.1376 11.9065 21.1274 12.8109 21.115 13.7152C21.1001 14.8062 21.0832 15.8977 20.8096 16.97C20.5227 18.0945 19.9568 19.0643 19.0764 19.7823C18.1486 20.5389 17.0272 20.9365 15.8168 21.0101C14.2115 21.1078 12.6055 21.1464 10.9996 21.1426C9.39357 21.1464 7.78757 21.1078 6.1823 21.0101C4.97196 20.9365 3.85056 20.5389 2.92278 19.7823C2.04235 19.0643 1.47645 18.0945 1.1895 16.97C0.915879 15.8977 0.899036 14.8062 0.884126 13.7152C0.871751 12.8109 0.86148 11.9065 0.859375 11.0022C0.86148 10.0979 0.871751 9.19352 0.884126 8.28925C0.899036 7.19823 0.915879 6.10674 1.1895 5.03441C1.47645 3.90992 2.04235 2.94011 2.92278 2.22215C3.85056 1.46555 4.97196 1.06788 6.1823 0.994271C7.78757 0.896646 9.39357 0.85806 10.9996 0.861841C12.6055 0.85806 14.2115 0.896646 15.8168 0.994271C17.0272 1.06788 18.1486 1.46555 19.0764 2.22215C19.9568 2.94011 20.5227 3.90992 20.8096 5.03441C21.0832 6.10674 21.1001 7.19823 21.115 8.28925C21.1274 9.19352 21.1376 10.0979 21.1398 11.0022Z" stroke="#ED6F4D" stroke-width="2.78266" stroke-miterlimit="10"/>
      <path d="M15.4688 11.0022C15.4688 13.494 13.4488 15.5139 10.957 15.5139C8.46527 15.5139 6.44531 13.494 6.44531 11.0022C6.44531 8.51044 8.46527 6.49048 10.957 6.49048C13.4488 6.49048 15.4688 8.51044 15.4688 11.0022Z" stroke="#ED6F4D" stroke-width="2.78266" stroke-miterlimit="10"/>
      <path d="M18.2188 5.19946C18.2188 5.91137 17.6416 6.48853 16.9297 6.48853C16.2178 6.48853 15.6406 5.91137 15.6406 5.19946C15.6406 4.48756 16.2178 3.9104 16.9297 3.9104C17.6416 3.9104 18.2188 4.48756 18.2188 5.19946Z" fill="#ED6F4D"/>
    </g>
  </g>
  <defs>
    <clipPath id="clip0_560_20936">
      <rect width="22" height="22" fill="white" transform="translate(0 0.000244141)"/>
    </clipPath>
  </defs>
</svg>