<svg xmlns="http://www.w3.org/2000/svg" width="148" height="148" viewBox="0 0 148 148" fill="none">
  <g opacity="0.4" clip-path="url(#clip0_317_6430)">
    <path d="M40.812 102.926C40.3799 102.942 39.8219 102.719 38.9323 102.147C35.3365 99.8357 31.8427 96.4012 29.339 92.9568C25.3307 87.4421 23.6244 79.9934 27.4585 74.4336L26.9528 72.5719C26.1533 69.6293 27.795 66.5425 30.6847 65.5453C32.4758 64.9208 34.3134 64.3327 36.169 63.7486C37.0883 61.2996 38.2702 59.2052 40.2764 57.1864C40.0021 55.5096 40.2117 53.76 40.9019 52.1971C36.669 49.036 34.1514 43.7092 34.3661 38.4296C34.3083 38.3523 34.2411 38.2836 34.2021 38.1908C33.1716 35.7385 34.3393 33.0566 36.0711 32.2975C37.4554 31.686 38.9619 31.745 40.3778 31.8993C50.383 32.9874 59.6291 37.942 67.8007 42.344C69.3024 40.9852 71.41 40.0705 73.8961 39.9078C80.1613 25.7397 82.1506 18.0714 88.1651 14.8342C89.4509 14.1422 91.4399 13.4787 92.9812 13.5557C94.1125 13.6118 95.4901 14.2448 96.5229 15.078C96.7641 15.1121 96.99 15.1998 97.1777 15.3724C99.757 17.7267 102.793 21.0215 103.37 25.6366C103.788 28.8891 103.002 32.2475 101.24 34.9909C104.777 36.1658 107.066 40.3703 105.091 45.1345C107.31 44.4348 109.41 43.7517 111.428 43.0699C113.861 42.2422 116.518 43.5714 117.206 46.103L120.361 57.717C121.009 60.1012 119.596 62.5677 117.212 63.2154L117.007 63.2712C117.256 63.7242 116.312 60.6345 127.581 101.976C128.812 106.507 126.832 111.55 119.273 114.808C115.308 116.517 111.2 117.862 107.098 119.197C103.081 120.505 99.1242 122.117 94.9429 122.836C93.3847 123.104 91.8009 123.244 90.2641 123.628C88.7518 124.006 87.475 124.864 86.0027 125.364C82.9286 126.408 79.652 126.585 76.4763 127.152C67.697 128.722 69.017 130.159 52.1836 131.86C50.6544 132.014 49.0429 132.157 47.6402 131.528C44.9163 130.307 45.2429 126.674 47.2177 125.763C46.4535 124.26 46.9034 125.09 40.812 102.926ZM67.0321 52.5425C66.8584 52.6671 66.6893 52.7948 66.5167 52.9204C66.6986 53.1114 66.8355 53.3481 66.8643 53.6308C68.9693 74.2724 74.4722 101.901 81.905 122.567C82.0319 122.949 82.1508 123.172 82.4561 123.377C84.2126 123.771 85.5547 121.79 87.7781 120.887C89.7975 120.1 91.8863 120.418 93.7215 120.341C94.8427 120.286 96.2711 119.843 96.8898 118.801C94.2629 110.913 84.5157 88.4693 81.0617 52.1943C77.7221 56.654 70.7237 57.5456 67.0321 52.5425ZM45.2191 63.6167C42.8262 64.2854 40.4488 64.9905 38.1253 65.7166C37.8323 66.7123 37.6145 67.7613 37.4556 68.8501C41.5947 69.325 44.4954 72.3162 45.5884 75.9745C49.0013 72.577 55.0112 72.4364 59.1953 76.4149L67.2372 74.2301C66.3454 69.137 65.5811 63.9838 64.9642 58.8364C60.2658 60.7934 57.1208 61.6904 53.8791 62.3609C51.196 63.9573 48.1046 64.779 45.2191 63.6167ZM37.175 71.2988C37.0976 72.5394 37.0994 73.85 37.1737 75.2519C38.9402 76.501 37.8545 79.1855 35.7568 79.0714C33.5916 78.9461 32.6814 76.0003 34.686 74.8532C34.6373 73.6553 34.6372 72.5144 34.6956 71.4257C29.7218 72.4986 26.274 78.8831 30.9425 88.029C33.2584 92.5608 36.6682 96.5026 40.8166 99.4528C41.7176 99.0915 43.9616 97.9727 44.8894 97.5138C53.8145 93.0965 55.7743 92.9483 57.9166 90.6633C59.6915 88.7713 60.5802 86.0113 60.2357 83.4574C59.3111 76.5226 51.0301 73.569 47.0873 77.9769C45.8893 79.2848 43.7554 78.7592 43.3239 77.038C42.6203 74.2208 40.4794 71.675 37.175 71.2988ZM79.1908 122.263C74.7158 109.593 71.0888 95.3127 67.8554 77.6557C66.1099 78.8885 63.5059 79.4353 61.716 79.8872C63.7509 84.2324 62.72 89.1467 59.7157 92.3504C57.1566 95.0793 54.9228 95.3047 45.9822 99.7237C44.8221 100.298 43.7826 100.811 42.9038 101.22L48.916 123.35C49.8935 126.948 53.6151 129.08 57.22 128.101L79.1908 122.263ZM64.6794 56.2878C64.6105 55.6656 64.5355 55.0429 64.4709 54.4216C63.0451 55.5067 62.6536 55.8312 59.4793 58.289C61.112 57.7366 62.8152 57.081 64.6794 56.2878ZM104.286 67.687C98.3544 69.5248 92.4226 71.3627 86.4909 73.2006C89.22 88.0267 93.3396 102.671 98.7752 116.807L120.449 110.918C124.048 109.941 126.179 106.219 125.202 102.622L114.765 64.2075C112.261 65.7118 107.839 66.5864 104.286 67.687ZM29.3067 71.7746C30.7693 70.2103 32.5927 69.1953 34.9623 68.888C35.0631 68.1155 35.1813 67.353 35.3451 66.6132C34.0539 67.0281 32.7521 67.4355 31.4923 67.8752C29.8703 68.4345 28.9403 70.1263 29.3067 71.7746ZM39.268 62.7884C40.3731 62.453 41.4823 62.1254 42.6029 61.8024C41.8816 61.0344 41.525 60.4889 41.1788 59.8394C40.4401 60.7276 39.8006 61.7221 39.268 62.7884ZM42.4112 50.2059C42.6794 50.0539 43.0037 49.9985 43.3285 50.0831C43.8531 50.2201 44.4806 50.0438 44.859 49.6548C45.3342 49.1631 46.115 49.1531 46.6013 49.6265C47.0909 50.0998 47.1034 50.8808 46.6291 51.3698C45.8339 52.1935 44.7603 52.631 43.4894 52.5644C40.6486 57.3601 45.1759 65.531 53.568 59.6253C57.655 56.7471 61.424 53.5021 65.8436 50.3575C65.2399 48.695 65.2284 47.1245 65.671 45.6605C55.7942 44.7487 46.1025 42.5168 36.8168 39.0453C36.8098 43.3636 38.9433 47.6277 42.4112 50.2059ZM40.1122 34.3502C38.8679 34.2158 37.8749 34.2037 37.0605 34.5555C36.7415 34.6957 36.3046 35.3714 36.2853 36.2145C45.1178 39.6546 54.3462 41.9186 63.7588 42.975C56.518 39.1292 48.51 35.2644 40.1122 34.3502ZM68.03 49.1778C68.1894 49.7093 68.409 50.1994 68.686 50.6431C72.3315 56.5815 81.4297 52.1119 80.279 46.443C79.2867 39.6134 66.0397 41.7915 68.03 49.1778ZM92.8585 16.0185C91.8533 15.9681 90.2901 16.4901 89.3338 17.0052C84.358 19.683 82.4027 26.5847 76.5224 40.0582C76.5721 40.0674 76.6226 40.0738 76.6721 40.0837C80.6438 36.513 84.2166 32.3137 87.2606 28.6249C90.1947 25.0912 93.1595 21.2805 94.8247 16.8692C94.2106 16.4227 93.3988 16.0452 92.8585 16.0185ZM99.1551 37.2005C97.3961 39.7075 93.4946 38.8119 94.306 36.8682C94.5711 36.2397 95.2923 35.9431 95.92 36.2084C96.3836 36.4013 97.0994 36.0807 97.2565 35.5866C97.4149 35.0838 97.8638 34.7607 98.3611 34.7318C100.363 32.3143 101.326 29.0786 100.924 25.9467C100.538 22.861 98.7245 20.3985 96.848 18.4754C95.0306 22.9175 91.9549 26.8306 89.16 30.1974C86.3081 33.6534 82.9796 37.5412 79.2756 41.0146C82.21 42.6551 83.3326 45.9491 82.5405 49.099C83.6562 49.3934 84.7531 49.5475 85.9 49.701C89.1288 50.1306 91.8739 50.9249 95.8501 50.1442C98.5245 49.5915 99.3879 48.7464 101.146 46.8247C101.306 46.6686 101.313 46.5729 101.497 46.3943C102.953 44.5773 103.602 42.5095 103.28 40.7041C102.949 38.8459 101.122 36.9749 99.1551 37.2005ZM114.827 46.7495C114.518 45.6155 113.333 45.0241 112.225 45.4035C109.377 46.3653 106.388 47.3254 103.081 48.3429C100.698 51.1162 99.0786 52.0025 96.334 52.5621C91.7969 53.4527 88.51 52.5351 85.5743 52.145C84.8973 52.0545 84.2074 51.9592 83.5042 51.8341C84.0623 57.7402 84.8303 63.568 85.7778 69.2004L116.566 60.8359C117.638 60.5446 118.273 59.4355 117.982 58.3635L114.827 46.7495Z" fill="#ED6F4D"/>
    <path d="M84.3582 99.1342C84.5811 99.7773 84.2412 100.479 83.5981 100.702C83.5709 100.712 83.5432 100.721 83.5153 100.728C82.8956 100.896 82.2431 100.558 82.0291 99.9417C79.4955 92.6369 77.5832 85.0593 76.345 77.4218C76.2371 76.7491 76.7019 76.1271 77.3648 76.0077C78.0373 75.899 78.6704 76.3558 78.7799 77.0281C79.9933 84.5252 81.871 91.9632 84.3582 99.1342Z" fill="#ED6F4D"/>
    <path d="M72.0242 51.0668C68.9736 49.7424 68.6785 45.0768 70.9437 45.4549C71.6147 45.5671 72.0684 46.2024 71.9564 46.8741C71.8299 47.6329 72.3011 48.498 73.0064 48.8038C73.6307 49.075 73.9178 49.8013 73.6466 50.4256C73.3766 51.0478 72.6534 51.3379 72.0242 51.0668Z" fill="#ED6F4D"/>
  </g>
  <defs>
    <clipPath id="clip0_317_6430">
      <rect width="120" height="120" fill="white" transform="matrix(-0.96502 0.262177 0.262177 0.96502 115.801 0)"/>
    </clipPath>
  </defs>
</svg>