<svg xmlns="http://www.w3.org/2000/svg" width="114" height="114" viewBox="0 0 114 114" fill="none">
  <g opacity="0.7" clip-path="url(#clip0_317_6366)">
    <path d="M77.7313 71.492C77.3757 70.5051 76.2874 69.9935 75.3007 70.3491C74.3138 70.7047 73.8022 71.793 74.1578 72.7797C74.1666 72.8039 74.1759 72.8279 74.1856 72.8519C75.9177 77.3721 76.0431 80.8288 74.5275 82.3482C72.689 84.1828 68.1099 83.6093 62.2754 80.8174C54.4642 76.7615 47.364 71.463 41.2524 65.1295C26.3755 50.2507 20.2371 35.6511 24.0338 31.8544C25.2452 30.8977 26.82 30.5302 28.3299 30.8516C29.3759 30.9285 30.2864 30.1427 30.3633 29.0967C30.4376 28.0856 29.7047 27.1944 28.6983 27.0721C26.0577 26.6049 23.3484 27.3748 21.3482 29.1613C14.3893 36.1183 25.0271 54.2657 38.5669 67.8074C44.9819 74.4458 52.436 79.9943 60.6363 84.2341C62.1213 84.9452 63.6516 85.5574 65.2173 86.0669L51.7231 91.1835C33.7038 84.3329 20.7321 68.3582 17.7263 49.3162C17.5637 48.2799 16.5917 47.5715 15.5555 47.7341C14.5192 47.8968 13.8108 48.8687 13.9734 49.905C14.2716 51.8043 14.6704 53.7035 15.1585 55.561C19.532 72.1318 31.0513 85.8979 46.5913 93.1246L24.3813 101.529C24.2795 101.359 24.1513 101.206 24.0015 101.077C18.3569 96.5449 14.8152 89.8987 14.2013 82.6862L13.32 72.0143C13.2507 70.9804 12.3562 70.1984 11.322 70.2677C11.3023 70.2691 11.2826 70.2705 11.2631 70.2727C10.2176 70.3558 9.43723 71.271 9.52033 72.3165C9.52056 72.3208 9.52104 72.3253 9.52151 72.3296L10.418 82.9977C11.0856 90.707 14.6818 97.8673 20.4669 103.006L4.62332 109.004L7.47221 97.3124C7.72078 96.2928 7.09592 95.2648 6.07626 95.0162C5.05659 94.7677 4.02862 95.3925 3.78005 96.4122L0.0745941 111.606C-0.175159 112.625 0.448274 113.653 1.46723 113.903C1.84091 113.995 2.23334 113.97 2.59301 113.834L72.8656 87.2445C72.9775 87.1899 73.0831 87.1236 73.1809 87.0469C74.7017 86.8133 76.1117 86.1101 77.213 85.0356C79.095 83.1534 80.715 79.2733 77.7313 71.492Z" fill="#FCC500"/>
    <path d="M95.6547 66.5936C85.3876 62.75 74.2904 61.6724 63.4756 63.4694L56.6895 64.6089C55.6594 64.8069 54.9849 65.8024 55.1829 66.8325C55.3743 67.8277 56.3132 68.4974 57.3163 68.3543L64.1004 67.2242C74.2572 65.5355 84.6796 66.5483 94.3215 70.1605C94.5354 70.2362 94.7611 70.2742 94.9881 70.2725C96.037 70.2742 96.8888 69.4254 96.8904 68.3763C96.8919 67.5822 96.399 66.8712 95.6547 66.5936Z" fill="#FCC500"/>
    <path d="M102.406 37.1685C101.955 36.2213 100.821 35.8191 99.8741 36.2702L59.9896 55.2628C59.0426 55.7136 58.6402 56.8468 59.0911 57.794L59.0913 57.7945C59.5421 58.7415 60.6753 59.1439 61.6225 58.6931L61.623 58.6929L101.507 39.7003C102.455 39.2492 102.857 38.1158 102.406 37.1685Z" fill="#FCC500"/>
    <path d="M46.1482 12.8902C45.9393 11.8622 44.9367 11.1982 43.9088 11.4071C42.8808 11.616 42.2168 12.6186 42.4257 13.6465C42.4302 13.6693 42.4354 13.6919 42.4409 13.7144C44.8449 24.4545 43.8541 35.6763 39.6053 45.829L36.8437 52.4555C36.4447 53.4211 36.9002 54.5276 37.8636 54.9322C38.0944 55.0293 38.3425 55.0789 38.593 55.0784C39.3595 55.0784 40.0509 54.6179 40.346 53.9104L43.1094 47.2915C47.6617 36.4161 48.7236 24.3952 46.1482 12.8902Z" fill="#FCC500"/>
    <path d="M104.483 68.3733C101.336 68.3733 98.7852 70.9242 98.7852 74.0711C98.7852 77.2179 101.336 79.7689 104.483 79.7689C107.63 79.7689 110.181 77.2179 110.181 74.0711C110.181 70.9242 107.63 68.3733 104.483 68.3733ZM104.483 75.9703C103.434 75.9703 102.584 75.1199 102.584 74.0711C102.584 73.0222 103.434 72.1718 104.483 72.1718C105.532 72.1718 106.382 73.0222 106.382 74.0711C106.382 75.1199 105.532 75.9703 104.483 75.9703Z" fill="#FCC500"/>
    <path d="M58.9009 15.1941C55.7541 15.1941 53.2031 17.745 53.2031 20.8919C53.2031 24.0387 55.7541 26.5897 58.9009 26.5897C62.0477 26.5897 64.5987 24.0387 64.5987 20.8919C64.5987 17.745 62.0477 15.1941 58.9009 15.1941ZM58.9009 22.7911C57.852 22.7911 57.0016 21.9407 57.0016 20.8919C57.0016 19.843 57.852 18.9926 58.9009 18.9926C59.9498 18.9926 60.8002 19.843 60.8002 20.8919C60.8002 21.9407 59.9498 22.7911 58.9009 22.7911Z" fill="#FCC500"/>
    <path d="M41.8102 7.59704C43.9081 7.59704 45.6088 5.89638 45.6088 3.79852C45.6088 1.70066 43.9081 0 41.8102 0C39.7124 0 38.0117 1.70066 38.0117 3.79852C38.0117 5.89638 39.7124 7.59704 41.8102 7.59704Z" fill="#FCC500"/>
    <path d="M94.9891 9.49634C93.9402 9.49634 93.0898 10.3467 93.0898 11.3956V13.2949C93.0898 14.3437 93.9402 15.1941 94.9891 15.1941C96.038 15.1941 96.8884 14.3437 96.8884 13.2949V11.3956C96.8884 10.3467 96.038 9.49634 94.9891 9.49634Z" fill="#FCC500"/>
    <path d="M94.9891 0C93.9402 0 93.0898 0.850394 93.0898 1.89926V3.79852C93.0898 4.84739 93.9402 5.69778 94.9891 5.69778C96.038 5.69778 96.8884 4.84739 96.8884 3.79852V1.89926C96.8884 0.850394 96.038 0 94.9891 0Z" fill="#FCC500"/>
    <path d="M100.685 5.69775H98.786C97.7371 5.69775 96.8867 6.54815 96.8867 7.59701C96.8867 8.64588 97.7371 9.49627 98.786 9.49627H100.685C101.734 9.49627 102.584 8.64588 102.584 7.59701C102.584 6.54815 101.734 5.69775 100.685 5.69775Z" fill="#FCC500"/>
    <path d="M91.1891 5.69775H89.2899C88.241 5.69775 87.3906 6.54815 87.3906 7.59701C87.3906 8.64588 88.241 9.49627 89.2899 9.49627H91.1891C92.238 9.49627 93.0884 8.64588 93.0884 7.59701C93.0884 6.54815 92.238 5.69775 91.1891 5.69775Z" fill="#FCC500"/>
    <path d="M81.6933 20.8521H72.1571C71.1082 20.8521 70.2578 21.7024 70.2578 22.7513V32.2875C70.2578 33.3364 71.1082 34.1868 72.1571 34.1868H81.6933C82.7421 34.1868 83.5925 33.3364 83.5925 32.2875V22.7513C83.5925 21.7024 82.7421 20.8521 81.6933 20.8521ZM79.794 30.3882H74.0563V24.6506H79.794V30.3882Z" fill="#FCC500"/>
    <path d="M67.8589 36.7117C67.1617 35.9674 66.0012 35.9066 65.2301 36.574L46.2375 53.6673C45.4584 54.3691 45.3954 55.5697 46.097 56.3491C46.7988 57.1282 47.9993 57.1911 48.7787 56.4896L67.7713 39.3963C68.537 38.6791 68.5762 37.4773 67.8589 36.7117Z" fill="#FCC500"/>
    <path d="M102.587 43.6831C101.538 43.6831 100.688 44.5335 100.688 45.5824V47.4816C100.688 48.5305 101.538 49.3809 102.587 49.3809C103.636 49.3809 104.486 48.5305 104.486 47.4816V45.5824C104.486 44.5335 103.636 43.6831 102.587 43.6831Z" fill="#FCC500"/>
    <path d="M110.643 43.3563L109.301 42.0135C108.546 41.2847 107.344 41.3055 106.615 42.06C105.904 42.796 105.904 43.9628 106.615 44.699L107.958 46.0418C108.712 46.7707 109.915 46.7498 110.643 45.9953C111.354 45.2591 111.354 44.0922 110.643 43.3563Z" fill="#FCC500"/>
    <path d="M112.08 36.0859H110.181C109.132 36.0859 108.281 36.9363 108.281 37.9852C108.281 39.0341 109.132 39.8845 110.181 39.8845H112.08C113.129 39.8845 113.979 39.0341 113.979 37.9852C113.979 36.9363 113.129 36.0859 112.08 36.0859Z" fill="#FCC500"/>
    <path d="M110.596 29.9286C109.861 29.2178 108.694 29.2178 107.957 29.9286L106.615 31.2714C105.873 32.0133 105.873 33.2157 106.615 33.9574C106.971 34.3133 107.454 34.5134 107.957 34.5134C108.461 34.5134 108.944 34.313 109.3 33.9569L110.643 32.6142C111.372 31.8597 111.351 30.6572 110.596 29.9286Z" fill="#FCC500"/>
    <path d="M102.587 26.5896C101.538 26.5896 100.688 27.44 100.688 28.4889V30.3881C100.688 31.437 101.538 32.2874 102.587 32.2874C103.636 32.2874 104.486 31.437 104.486 30.3881V28.4889C104.486 27.44 103.636 26.5896 102.587 26.5896Z" fill="#FCC500"/>
    <path d="M98.5536 31.2712L97.2108 29.9284C96.4564 29.1998 95.2541 29.2205 94.5253 29.975C93.8145 30.7109 93.8145 31.8778 94.5253 32.614L95.8681 33.9568C96.6225 34.6856 97.8248 34.6647 98.5536 33.9102C99.2646 33.174 99.2646 32.0072 98.5536 31.2712Z" fill="#FCC500"/>
    <path d="M22.7239 8.21244C22.5002 7.52538 21.906 7.02493 21.1912 6.92094L15.6168 6.10996L13.1307 1.05983C12.5766 0.11898 11.3646 -0.194636 10.4238 0.359473C10.1346 0.529695 9.89367 0.770663 9.72344 1.05983L7.22592 6.10996L1.65159 6.92094C0.613407 7.07075 -0.10665 8.03391 0.043154 9.07209C0.102743 9.48542 0.296943 9.86741 0.595601 10.1592L4.62773 14.0906L3.6781 19.6422C3.49577 20.6751 4.1852 21.6604 5.21816 21.8427C5.6341 21.9161 6.06238 21.8489 6.43583 21.6516L11.4214 19.023L16.4069 21.644C17.3354 22.1321 18.4838 21.7753 18.9719 20.8468C19.1663 20.4771 19.2333 20.0538 19.1628 19.6422L18.2131 14.0906L22.2472 10.1592C22.7635 9.65374 22.9482 8.89926 22.7239 8.21244ZM14.8401 12.0679C14.3928 12.5036 14.1884 13.1313 14.2931 13.7469L14.7641 16.4913L12.3045 15.1941C11.7516 14.9038 11.0911 14.9038 10.5382 15.1941L8.06919 16.4894L8.54021 13.745C8.6468 13.1318 8.44596 12.505 8.00272 12.0679L6.00659 10.125L8.76242 9.72425C9.3811 9.63451 9.91598 9.24587 10.1926 8.68535L11.4214 6.19163L12.6521 8.68535C12.9284 9.2454 13.4624 9.6338 14.0803 9.72425L16.8343 10.125L14.8401 12.0679Z" fill="#FCC500"/>
    <path d="M107.564 95.2005H107.556L106.773 94.0267C102.386 87.4655 95.4866 83.0041 87.7029 81.6948C86.6645 81.5467 85.7026 82.2684 85.5544 83.3068C85.4113 84.3101 86.081 85.249 87.0762 85.4402C92.6904 86.3931 97.8068 89.2453 101.569 93.5196C98.406 94.0887 95.6392 95.9886 93.9724 98.7369C91.9269 102.4 93.2386 107.028 96.902 109.074C100.565 111.119 105.193 109.807 107.239 106.144C108.02 104.636 108.442 102.967 108.471 101.269C110.492 104.204 110.654 108.037 108.887 111.131C108.352 112.034 108.65 113.199 109.552 113.734C110.454 114.269 111.619 113.972 112.154 113.069C112.171 113.04 112.188 113.011 112.203 112.981C115.681 106.77 113.633 98.9209 107.564 95.2005ZM103.926 104.29C102.913 106.127 100.602 106.794 98.7654 105.781C96.9288 104.767 96.2615 102.456 97.2752 100.62C97.2809 100.609 97.2866 100.599 97.2923 100.589C98.4131 98.7535 100.304 97.5232 102.436 97.2422C102.766 97.2331 103.093 97.3091 103.385 97.4625C104.988 98.357 105.074 102.235 103.926 104.29Z" fill="#FCC500"/>
  </g>
  <defs>
    <clipPath id="clip0_317_6366">
      <rect width="114" height="114" fill="white"/>
    </clipPath>
  </defs>
</svg>