<svg xmlns="http://www.w3.org/2000/svg" width="23" height="23" viewBox="0 0 23 23" fill="none">
  <path fill-rule="evenodd" clip-rule="evenodd" d="M3.72866 5.02043C3.07703 5.62551 2.64062 6.60729 2.64062 8.14738V14.8557C2.64062 16.3958 3.07703 17.3776 3.72866 17.9827C4.38992 18.5967 5.38622 18.9286 6.71354 18.9286H16.2969C17.6242 18.9286 18.6204 18.5967 19.2818 17.9827C19.9334 17.3776 20.3698 16.3958 20.3698 14.8557V8.14738C20.3698 6.60729 19.9334 5.62551 19.2818 5.02043C18.6204 4.4064 17.6242 4.07446 16.2969 4.07446H6.71354C5.38622 4.07446 4.38992 4.4064 3.72866 5.02043ZM2.75051 3.96703C3.76633 3.02377 5.16586 2.63696 6.71354 2.63696H16.2969C17.8446 2.63696 19.2441 3.02377 20.2599 3.96703C21.2854 4.91925 21.8073 6.3333 21.8073 8.14738V14.8557C21.8073 16.6698 21.2854 18.0839 20.2599 19.0361C19.2441 19.9793 17.8446 20.3661 16.2969 20.3661H6.71354C5.16586 20.3661 3.76633 19.9793 2.75051 19.0361C1.72505 18.0839 1.20312 16.6698 1.20312 14.8557V8.14738C1.20312 6.3333 1.72505 4.91925 2.75051 3.96703Z" fill="#ED6F4D"/>
  <path fill-rule="evenodd" clip-rule="evenodd" d="M18.5601 7.00612C18.8028 7.32023 18.7449 7.77162 18.4309 8.01433L13.1149 12.122C12.1658 12.8553 10.8413 12.8553 9.89212 12.122L4.57619 8.01433C4.26208 7.77162 4.2042 7.32023 4.44692 7.00612C4.68964 6.69201 5.14102 6.63414 5.45514 6.87685L10.771 10.9845C11.2025 11.3179 11.8046 11.3179 12.2359 10.9845L17.5519 6.87685C17.866 6.63414 18.3174 6.69201 18.5601 7.00612Z" fill="#ED6F4D"/>
</svg>