<svg xmlns="http://www.w3.org/2000/svg" width="20" height="21" viewBox="0 0 20 21" fill="none">
  <g clip-path="url(#clip0_560_23309)">
    <path d="M2.5 6.33464C2.5 5.89261 2.67559 5.46868 2.98816 5.15612C3.30072 4.84356 3.72464 4.66797 4.16667 4.66797H15.8333C16.2754 4.66797 16.6993 4.84356 17.0118 5.15612C17.3244 5.46868 17.5 5.89261 17.5 6.33464V14.668C17.5 15.11 17.3244 15.5339 17.0118 15.8465C16.6993 16.159 16.2754 16.3346 15.8333 16.3346H4.16667C3.72464 16.3346 3.30072 16.159 2.98816 15.8465C2.67559 15.5339 2.5 15.11 2.5 14.668V6.33464Z" stroke="white" stroke-width="1.5" stroke-linecap="round" stroke-linejoin="round"/>
    <path d="M2.5 6.33203L10 11.332L17.5 6.33203" stroke="white" stroke-width="1.5" stroke-linecap="round" stroke-linejoin="round"/>
  </g>
  <defs>
    <clipPath id="clip0_560_23309">
      <rect width="20" height="20" fill="white" transform="translate(0 0.5)"/>
    </clipPath>
  </defs>
</svg>