<svg xmlns="http://www.w3.org/2000/svg" width="24" height="24" viewBox="0 0 24 24" fill="none">
  <path fill-rule="evenodd" clip-rule="evenodd" d="M3.01968 4.75248L9.37874 11.1143C10.7657 12.4986 13.0328 12.4998 14.4209 11.1143L20.78 4.75248C20.844 4.68844 20.8347 4.58298 20.7604 4.53117C20.1118 4.07883 19.3226 3.81067 18.4726 3.81067H5.32709C4.47699 3.81067 3.68786 4.07888 3.03926 4.53117C2.96497 4.58298 2.95564 4.68844 3.01968 4.75248ZM1.32031 7.8174C1.32031 7.14895 1.48605 6.51736 1.77798 5.96223C1.82363 5.87539 1.93935 5.85783 2.00872 5.9272L8.28728 12.2058C10.2755 14.1969 13.523 14.198 15.5124 12.2058L21.791 5.9272C21.8603 5.85783 21.976 5.87539 22.0217 5.96223C22.3136 6.51736 22.4794 7.14899 22.4794 7.8174V16.1817C22.4794 18.3927 20.6808 20.1885 18.4726 20.1885H5.32709C3.11889 20.1885 1.32031 18.3927 1.32031 16.1817V7.8174Z" fill="#ED6F4D"/>
</svg>