<svg xmlns="http://www.w3.org/2000/svg" width="22" height="22" viewBox="0 0 22 22" fill="none">
  <g clip-path="url(#clip0_560_20068)">
    <path d="M10.0859 11.0007C10.0859 11.2438 10.1825 11.4769 10.3544 11.6488C10.5263 11.8207 10.7595 11.9173 11.0026 11.9173C11.2457 11.9173 11.4789 11.8207 11.6508 11.6488C11.8227 11.4769 11.9193 11.2438 11.9193 11.0007C11.9193 10.7575 11.8227 10.5244 11.6508 10.3525C11.4789 10.1806 11.2457 10.084 11.0026 10.084C10.7595 10.084 10.5263 10.1806 10.3544 10.3525C10.1825 10.5244 10.0859 10.7575 10.0859 11.0007Z" stroke="#64748B" stroke-width="1.83333" stroke-linecap="round" stroke-linejoin="round"/>
    <path d="M10.0859 17.4167C10.0859 17.6598 10.1825 17.8929 10.3544 18.0648C10.5263 18.2368 10.7595 18.3333 11.0026 18.3333C11.2457 18.3333 11.4789 18.2368 11.6508 18.0648C11.8227 17.8929 11.9193 17.6598 11.9193 17.4167C11.9193 17.1736 11.8227 16.9404 11.6508 16.7685C11.4789 16.5966 11.2457 16.5 11.0026 16.5C10.7595 16.5 10.5263 16.5966 10.3544 16.7685C10.1825 16.9404 10.0859 17.1736 10.0859 17.4167Z" stroke="#64748B" stroke-width="1.83333" stroke-linecap="round" stroke-linejoin="round"/>
    <path d="M10.0859 4.58268C10.0859 4.8258 10.1825 5.05896 10.3544 5.23086C10.5263 5.40277 10.7595 5.49935 11.0026 5.49935C11.2457 5.49935 11.4789 5.40277 11.6508 5.23086C11.8227 5.05896 11.9193 4.8258 11.9193 4.58268C11.9193 4.33957 11.8227 4.10641 11.6508 3.9345C11.4789 3.76259 11.2457 3.66602 11.0026 3.66602C10.7595 3.66602 10.5263 3.76259 10.3544 3.9345C10.1825 4.10641 10.0859 4.33957 10.0859 4.58268Z" stroke="#64748B" stroke-width="1.83333" stroke-linecap="round" stroke-linejoin="round"/>
  </g>
  <defs>
    <clipPath id="clip0_560_20068">
      <rect width="22" height="22" fill="white"/>
    </clipPath>
  </defs>
</svg>