<svg width="17" height="17" viewBox="0 0 17 17" fill="none" xmlns="http://www.w3.org/2000/svg">
<g id="compose 1" clip-path="url(#clip0_560_21885)">
<path id="Vector" d="M14.1719 6.09156L8.23604 12.0274C8.03063 12.2328 7.76146 12.3603 7.47104 12.3886L5.39563 12.5799C5.39563 12.5799 5.33896 12.5799 5.31771 12.5799C5.08396 12.5799 4.85729 12.4878 4.69438 12.3178C4.51021 12.1336 4.41813 11.8716 4.43938 11.6095L4.63063 9.53406C4.65896 9.24365 4.78646 8.97448 4.99188 8.76906L10.9135 2.83323L14.1719 6.09156ZM15.546 1.96198L15.0431 1.45906C14.2852 0.701146 13.0456 0.701146 12.2877 1.45906L11.6644 2.0824L14.9227 5.34073L15.546 4.7174C15.9144 4.34906 16.1198 3.86031 16.1198 3.34323C16.1198 2.82615 15.9144 2.33031 15.546 1.96906V1.96198ZM14.7031 13.4653V9.3499C14.7031 9.05948 14.4623 8.81865 14.1719 8.81865C13.8815 8.81865 13.6406 9.05948 13.6406 9.3499V13.4653C13.6406 14.3436 12.9252 15.0591 12.0469 15.0591H3.54688C2.66854 15.0591 1.95312 14.3436 1.95312 13.4653V4.95823C1.95312 4.0799 2.66854 3.36448 3.54688 3.36448H7.66229C7.95271 3.36448 8.19354 3.12365 8.19354 2.83323C8.19354 2.54281 7.95271 2.30198 7.66229 2.30198H3.54688C2.08063 2.30198 0.890625 3.49198 0.890625 4.95823V13.4582C0.890625 14.9245 2.08063 16.1145 3.54688 16.1145H12.0469C13.5131 16.1145 14.7031 14.9245 14.7031 13.4582V13.4653Z" fill="black"/>
</g>
<defs>
<clipPath id="clip0_560_21885">
<rect width="17" height="17" fill="white"/>
</clipPath>
</defs>
</svg>
