<svg xmlns="http://www.w3.org/2000/svg" width="23" height="23" viewBox="0 0 23 23" fill="none">
  <path opacity="0.4" d="M18.2301 13.7824L17.3134 12.2607C17.1209 11.9215 16.9467 11.2799 16.9467 10.904V8.58487C16.9467 5.59654 14.5176 3.1582 11.5201 3.1582C8.52257 3.1582 6.0934 5.59654 6.0934 8.58487V10.904C6.0934 11.2799 5.91924 11.9215 5.72674 12.2515L4.8009 13.7824C4.43424 14.3965 4.35174 15.0749 4.5809 15.6982C4.8009 16.3124 5.3234 16.789 6.00174 17.0182C7.78007 17.6232 9.65007 17.9165 11.5201 17.9165C13.3901 17.9165 15.2601 17.6232 17.0384 17.0274C17.6801 16.8165 18.1751 16.3307 18.4134 15.6982C18.6517 15.0657 18.5876 14.369 18.2301 13.7824Z" fill="#64748B"/>
  <path d="M13.5635 3.54398C12.931 3.29648 12.2435 3.15898 11.5194 3.15898C10.8044 3.15898 10.1169 3.28732 9.48438 3.54398C9.87854 2.80148 10.6577 2.33398 11.5194 2.33398C12.3902 2.33398 13.1602 2.80148 13.5635 3.54398Z" fill="#64748B"/>
  <path d="M14.0932 18.8432C13.7082 19.9065 12.6907 20.6673 11.4991 20.6673C10.7749 20.6673 10.0599 20.374 9.55573 19.8515C9.2624 19.5765 9.0424 19.2098 8.91406 18.834C9.03323 18.8523 9.1524 18.8615 9.28073 18.8798C9.49156 18.9073 9.71156 18.9348 9.93156 18.9532C10.4541 18.999 10.9857 19.0265 11.5174 19.0265C12.0399 19.0265 12.5624 18.999 13.0757 18.9532C13.2682 18.9348 13.4607 18.9257 13.6441 18.8982C13.7907 18.8798 13.9374 18.8615 14.0932 18.8432Z" fill="#64748B"/>
  <circle cx="17.121" cy="4.87878" r="3.12097" fill="#10B981" stroke="white"/>
</svg>