<svg xmlns="http://www.w3.org/2000/svg" width="24" height="24" viewBox="0 0 24 24" fill="none">
  <g clip-path="url(#clip0_560_20906)">
    <path d="M8.95913 3.172C9.13497 3.17195 9.30758 3.21917 9.45891 3.30872C9.61023 3.39827 9.73469 3.52686 9.81927 3.68102L9.86929 3.7889L11.8308 8.69275C11.9098 8.89004 11.9226 9.10765 11.8672 9.31284C11.8119 9.51802 11.6914 9.69967 11.5238 9.83044L11.4258 9.89713L9.78396 10.8818L9.84575 10.9828C10.6272 12.2235 11.6769 13.2732 12.9175 14.0546L13.0176 14.1154L14.0032 12.4756C14.1125 12.2932 14.278 12.1513 14.4749 12.0712C14.6717 11.9911 14.8893 11.9771 15.0948 12.0313L15.2076 12.0695L20.1115 14.0311C20.2747 14.0962 20.4175 14.2041 20.5248 14.3433C20.6322 14.4825 20.7001 14.6481 20.7215 14.8226L20.7284 14.9412V18.8643C20.7284 20.4894 19.4112 21.8066 17.7272 21.8046C9.31319 21.2937 2.60571 14.5862 2.09375 6.1143C2.09371 5.36381 2.38045 4.64166 2.89532 4.09563C3.41018 3.54959 4.11424 3.22093 4.86344 3.1769L5.03606 3.172H8.95913Z" fill="#ED6F4D"/>
  </g>
  <defs>
    <clipPath id="clip0_560_20906">
      <rect width="23.5385" height="23.5385" fill="white" transform="translate(0.132812 0.230591)"/>
    </clipPath>
  </defs>
</svg>