<svg xmlns="http://www.w3.org/2000/svg" width="21" height="21" viewBox="0 0 21 21" fill="none">
  <g clip-path="url(#clip0_560_23289)">
    <path d="M16.2958 2.56301C13.0723 -0.636129 7.10993 0.280102 4.74659 2.91077C3.41792 4.25561 2.65625 6.04124 2.65625 7.80986C2.65625 10.0306 3.58466 11.7352 5.1395 12.3694C5.55509 12.5502 6.01751 12.3421 6.12986 11.8746C6.18236 11.677 6.30395 11.1896 6.35687 10.9779C6.47006 10.56 6.37871 10.3591 6.13175 10.068C5.68214 9.53564 5.47277 8.90606 5.47277 8.08685C5.47277 5.65337 7.28381 3.06722 10.6405 3.06722C13.3039 3.06722 14.9583 4.58174 14.9583 7.01963C14.969 9.15827 14.1586 12.5256 11.7438 12.6292C11.2558 12.6292 10.8175 12.4286 10.5407 12.079C9.90608 11.2812 10.5262 10.2146 10.7356 9.34202C11.0214 8.41592 11.2915 7.54127 11.2915 6.84344C11.2915 5.6498 10.5581 4.84781 9.46655 4.84781C8.0795 4.84781 6.99275 6.25733 6.99275 8.05682C6.99275 8.93924 7.22711 9.59948 7.33337 9.85274C7.15865 10.5934 6.11999 14.9973 5.92301 15.8279C4.73168 21.5004 7.1303 22.2264 8.7914 16.6393C8.88548 16.2966 9.21476 15.0007 9.41636 14.2042C10.0323 14.7978 11.0241 15.1991 11.9893 15.1991C17.8411 15.2665 20.4727 6.44024 16.2958 2.56301Z" fill="white"/>
  </g>
  <defs>
    <clipPath id="clip0_560_23289">
      <rect width="21" height="21" fill="white"/>
    </clipPath>
  </defs>
</svg>