<svg xmlns="http://www.w3.org/2000/svg" width="1809" height="254" viewBox="0 0 1809 254" fill="none">
  <path d="M95.353 17C63.5687 -5.66667 31.7843 -5.66667 0 17V254H958L954.207 16.8352C922.422 39.5018 889.962 39.6667 858.177 17C826.393 -5.66667 794.609 -5.66667 762.824 17C731.04 39.6667 699.256 39.6667 667.471 17C635.687 -5.66667 603.903 -5.66667 572.118 17C540.334 39.6667 557.219 39.6667 525.435 17C493.651 -5.66667 413.196 -5.66667 381.412 17C349.628 39.6667 317.843 39.6667 286.059 17C254.275 -5.66667 222.49 -5.66667 190.706 17C158.922 39.6667 127.137 39.6667 95.353 17Z" fill="#CBE8F0"/>
  <path d="M954 17C982.367 -5.66667 1010.73 -5.66667 1039.1 17C1067.47 39.6667 1095.84 39.6667 1124.2 17C1142.59 2.31069 1160.97 -2.8591 1179.35 1.49064C1215.41 -0.950775 1256.73 5.1874 1274.02 19C1277.25 21.5884 1279.65 23.8551 1281.39 25.8062C1285.73 23.4005 1290.07 20.4651 1294.4 17C1322.77 -5.66667 1351.14 -5.66667 1379.51 17C1407.87 39.6667 1436.24 39.6667 1464.61 17C1492.97 -5.66667 1494.3 -4.66667 1522.67 18C1551.04 40.6667 1606.44 39.6667 1634.81 17C1663.18 -5.66667 1691.54 -5.66667 1719.91 17C1748.28 39.6667 1776.64 39.6667 1805.01 17L1809 254H954V17Z" fill="#CBE8F0"/>
</svg>