<svg xmlns="http://www.w3.org/2000/svg" width="540" height="244" viewBox="0 0 540 244" fill="none">
  <path d="M28.5661 4.73995C19.0441 -1.57998 9.52203 -1.57998 0 4.73995V244H286.5V4.41016C276.978 10.7301 266.617 11.0599 257.095 4.73995C247.573 -1.57998 238.051 -1.57998 228.529 4.73995C219.007 11.0599 209.485 11.0599 199.963 4.73995C190.441 -1.57998 180.919 -1.57998 171.397 4.73995C161.875 11.0599 166.933 11.0599 157.411 4.73995C147.889 -1.57998 123.786 -1.57998 114.264 4.73995C104.742 11.0599 95.2203 11.0599 85.6983 4.73995C76.1763 -1.57998 66.6542 -1.57998 57.1322 4.73995C47.6102 11.0599 38.0881 11.0599 28.5661 4.73995Z" fill="#CBE8F0"/>
  <path d="M286 4.74134C294.46 -1.58045 302.921 -1.58045 311.381 4.74134C319.841 11.0631 328.302 11.0631 336.762 4.74134C342.245 0.644457 347.728 -0.79741 353.21 0.415743C363.965 -0.265174 376.288 1.44678 381.443 5.29915C382.409 6.02106 383.124 6.65326 383.644 7.19741C384.937 6.52646 386.231 5.70777 387.524 4.74134C395.984 -1.58045 404.445 -1.58045 412.905 4.74134C421.365 11.0631 429.826 11.0631 438.286 4.74134C446.747 -1.58045 447.143 -1.30155 455.603 5.02025C464.064 11.342 480.588 11.0631 489.048 4.74134C497.509 -1.58045 505.969 -1.58045 514.429 4.74134C522.89 11.0631 531.35 11.0631 539.81 4.74134V244H286V4.74134Z" fill="#CBE8F0"/>
</svg>