<svg xmlns="http://www.w3.org/2000/svg" preserveAspectRatio="none" width="1813" height="373" viewBox="0 0 1813 373" fill="none">
  <path d="M95.353 356C63.5687 378.667 31.7843 378.667 0 356V0H958L958.5 356.5C926.716 333.833 889.962 333.333 858.177 356C826.393 378.667 794.609 378.667 762.824 356C731.04 333.333 699.256 333.333 667.471 356C635.687 378.667 603.903 378.667 572.118 356C540.334 333.333 557.219 333.333 525.435 356C493.651 378.667 413.196 378.667 381.412 356C349.628 333.333 317.843 333.333 286.059 356C254.275 378.667 222.49 378.667 190.706 356C158.922 333.333 127.137 333.333 95.353 356Z" fill="#F4F4F5"/>
  <path d="M958 356C986.367 378.667 1014.73 378.667 1043.1 356C1071.47 333.333 1099.84 333.333 1128.2 356C1146.59 370.689 1164.97 375.859 1183.35 371.509C1219.41 373.951 1260.73 367.813 1278.02 354C1281.25 351.412 1283.65 349.145 1285.39 347.194C1289.73 349.599 1294.07 352.535 1298.4 356C1326.77 378.667 1355.14 378.667 1383.51 356C1411.87 333.333 1440.24 333.333 1468.61 356C1496.97 378.667 1498.3 377.667 1526.67 355C1555.04 332.333 1610.44 333.333 1638.81 356C1667.18 378.667 1695.54 378.667 1723.91 356C1752.28 333.333 1780.64 333.333 1809.01 356L1813 0H958V356Z" fill="#F4F4F5"/>
</svg>