<svg xmlns="http://www.w3.org/2000/svg" width="33" height="32" viewBox="0 0 33 32" fill="none">
  <path d="M27.8516 15.0157H28.7405V16.7935H27.8516V15.0157ZM4.74027 16.7935C4.24935 16.7935 3.85138 16.3955 3.85138 15.9046C3.85138 15.4137 4.24935 15.0157 4.74027 15.0157V16.7935ZM12.7403 7.01562V6.12673H14.5181V7.01562H12.7403ZM5.25525 16.5956C4.82426 16.8307 4.28432 16.6719 4.04925 16.2409C3.81417 15.8099 3.97299 15.2699 4.40398 15.0349L5.25525 16.5956ZM14.5182 24.7042V25.5931H12.7404L12.7404 24.7042H14.5182ZM27.8516 16.7935H4.82968V15.0157H27.8516V16.7935ZM4.82968 16.7935H4.74027V15.0157H4.82968V16.7935ZM14.5181 7.01562C14.5181 8.32445 13.8112 9.57452 12.9434 10.6396C12.0579 11.7264 10.8989 12.7488 9.77293 13.6188C8.64176 14.4929 7.51501 15.2352 6.6736 15.7579C6.25206 16.0197 5.90013 16.2277 5.65249 16.3708C5.52862 16.4424 5.43072 16.4978 5.3631 16.5357C5.32928 16.5547 5.30303 16.5693 5.28488 16.5793C5.2758 16.5843 5.26875 16.5882 5.26379 16.5909C5.26131 16.5923 5.25935 16.5934 5.25793 16.5941C5.25721 16.5945 5.25663 16.5949 5.25619 16.5951C5.25596 16.5952 5.25573 16.5953 5.25562 16.5954C5.25541 16.5955 5.25525 16.5956 4.82961 15.8152C4.40398 15.0349 4.40388 15.0349 4.40381 15.035C4.40383 15.035 4.4038 15.035 4.40384 15.035C4.40393 15.0349 4.40415 15.0348 4.4045 15.0346C4.40521 15.0342 4.40644 15.0335 4.40819 15.0326C4.41169 15.0306 4.41726 15.0276 4.42483 15.0234C4.43998 15.015 4.46314 15.0022 4.49377 14.985C4.55506 14.9506 4.64621 14.899 4.76296 14.8316C4.99654 14.6966 5.33209 14.4983 5.73551 14.2477C6.54403 13.7455 7.61717 13.0379 8.68591 12.2121C9.75989 11.3822 10.8008 10.4547 11.5652 9.51659C12.3473 8.55671 12.7403 7.70682 12.7403 7.01562H14.5181ZM4.82968 15.9046C5.16269 15.0804 5.16293 15.0805 5.16321 15.0806C5.16334 15.0807 5.16365 15.0808 5.16392 15.0809C5.16447 15.0811 5.16515 15.0814 5.16596 15.0817C5.16758 15.0824 5.16973 15.0833 5.17241 15.0844C5.17777 15.0866 5.18523 15.0896 5.19471 15.0936C5.21368 15.1014 5.24077 15.1127 5.27545 15.1274C5.34478 15.1568 5.44451 15.1998 5.57029 15.256C5.82172 15.3683 6.178 15.5335 6.6043 15.7481C7.45467 16.1762 8.59461 16.8061 9.74023 17.6104C10.8813 18.4114 12.059 19.4069 12.9585 20.5744C13.859 21.7433 14.5182 23.135 14.5182 24.7042H12.7404C12.7404 23.6513 12.2996 22.6321 11.5502 21.6594C10.7998 20.6854 9.77763 19.8088 8.71875 19.0654C7.66447 18.3253 6.60451 17.7385 5.80495 17.3361C5.40629 17.1354 5.07509 16.9819 4.8453 16.8792C4.73046 16.8279 4.64113 16.7894 4.58157 16.7642C4.55179 16.7516 4.52947 16.7423 4.51514 16.7363C4.50797 16.7334 4.50281 16.7312 4.49971 16.73C4.49816 16.7293 4.49712 16.7289 4.49661 16.7287C4.49636 16.7286 4.49624 16.7286 4.49625 16.7286C4.49625 16.7286 4.49636 16.7286 4.49636 16.7286C4.4965 16.7287 4.49667 16.7287 4.82968 15.9046Z" fill="#05123C"/>
</svg>