<svg xmlns="http://www.w3.org/2000/svg" width="17" height="16" viewBox="0 0 17 16" fill="none">
  <path d="M7.58663 1.04906C7.93899 0.258571 9.06101 0.258571 9.41337 1.04906L10.8896 4.36094C11.035 4.68697 11.3431 4.91081 11.698 4.94828L15.304 5.32887C16.1647 5.41971 16.5114 6.48681 15.8685 7.0662L13.1749 9.49364C12.9098 9.7326 12.7921 10.0948 12.8661 10.444L13.6185 13.9911C13.7981 14.8377 12.8903 15.4972 12.1406 15.0648L8.99962 13.2532C8.69041 13.0748 8.30959 13.0748 8.00038 13.2532L4.85938 15.0648C4.10967 15.4972 3.20194 14.8377 3.38152 13.9911L4.13386 10.444C4.20792 10.0948 4.09024 9.7326 3.82508 9.49364L1.13149 7.0662C0.488574 6.48681 0.835296 5.41971 1.69598 5.32887L5.30195 4.94828C5.65694 4.91081 5.96503 4.68697 6.11036 4.36094L7.58663 1.04906Z" fill="#ED6F4D"/>
</svg>