<svg xmlns="http://www.w3.org/2000/svg" width="115" height="115" viewBox="0 0 115 115" fill="none">
  <g opacity="0.4" clip-path="url(#clip0_560_22690)">
    <path d="M36.5382 72.1241C36.8939 71.1372 37.9821 70.6256 38.9688 70.9812C39.9557 71.3368 40.4673 72.4251 40.1117 73.4118C40.1029 73.436 40.0936 73.46 40.0839 73.4839C38.3518 78.0042 38.2264 81.4608 39.742 82.9802C41.5805 84.8149 46.1596 84.2413 51.9942 81.4494C59.8054 77.3936 66.9055 72.0951 73.0171 65.7615C87.894 50.8827 94.0324 36.2831 90.2358 32.4865C89.0243 31.5298 87.4496 31.1623 85.9396 31.4837C84.8936 31.5606 83.9832 30.7748 83.9063 29.7288C83.8319 28.7177 84.5648 27.8264 85.5712 27.7042C88.2119 27.237 90.9212 28.0069 92.9213 29.7934C99.8802 36.7504 89.2425 54.8978 75.7026 68.4395C69.2876 75.0779 61.8335 80.6264 53.6332 84.8662C52.1482 85.5772 50.6179 86.1895 49.0522 86.699L62.5465 91.8156C80.5657 84.965 93.5374 68.9903 96.5432 49.9483C96.7058 48.912 97.6778 48.2036 98.7141 48.3662C99.7504 48.5289 100.459 49.5008 100.296 50.5371C99.998 52.4363 99.5991 54.3356 99.111 56.1931C94.7375 72.7639 83.2182 86.53 67.6783 93.7567L89.8882 102.161C89.9901 101.991 90.1183 101.838 90.2681 101.709C95.9127 97.177 99.4543 90.5308 100.068 83.3183L100.949 72.6464C101.019 71.6125 101.913 70.8304 102.948 70.8998C102.967 70.9012 102.987 70.9026 103.006 70.9047C104.052 70.9878 104.832 71.903 104.749 72.9486C104.749 72.9529 104.748 72.9574 104.748 72.9616L103.852 83.6298C103.184 91.3391 99.5877 98.4993 93.8026 103.638L109.646 109.636L106.797 97.9445C106.549 96.9249 107.174 95.8969 108.193 95.6483C109.213 95.3997 110.241 96.0246 110.489 97.0443L114.195 112.238C114.445 113.257 113.821 114.286 112.802 114.535C112.429 114.627 112.036 114.602 111.677 114.466L41.4039 87.8765C41.2921 87.8219 41.1864 87.7557 41.0886 87.679C39.5678 87.4454 38.1578 86.7422 37.0565 85.6677C35.1746 83.7855 33.5545 79.9053 36.5382 72.1241Z" fill="#FEC807"/>
    <path d="M18.6109 67.226C28.878 63.3823 39.9752 62.3047 50.79 64.1017L57.5761 65.2412C58.6062 65.4392 59.2807 66.4347 59.0827 67.4648C58.8913 68.46 57.9524 69.1297 56.9493 68.9866L50.1652 67.8565C40.0084 66.1678 29.586 67.1806 19.9442 70.7928C19.7303 70.8685 19.5045 70.9065 19.2775 70.9048C18.2287 70.9065 17.3768 70.0578 17.3752 69.0087C17.3738 68.2145 17.8666 67.5035 18.6109 67.226Z" fill="#FEC807"/>
    <path d="M11.8598 37.8021C12.3109 36.8548 13.4443 36.4527 14.3915 36.9037L54.276 55.8963C55.223 56.3472 55.6254 57.4803 55.1746 58.4276L55.1743 58.4281C54.7235 59.3751 53.5904 59.7775 52.6431 59.3266L52.6426 59.3264L12.7582 40.3338C11.8109 39.8827 11.4087 38.7493 11.8598 37.8021Z" fill="#FEC807"/>
    <path d="M68.1213 13.5235C68.3302 12.4955 69.3328 11.8315 70.3608 12.0404C71.3888 12.2493 72.0528 13.2519 71.8439 14.2798C71.8394 14.3026 71.8341 14.3252 71.8287 14.3477C69.4247 25.0878 70.4154 36.3096 74.6643 46.4623L77.4258 53.0888C77.8249 54.0544 77.3693 55.1609 76.4059 55.5655C76.1751 55.6626 75.927 55.7122 75.6766 55.7117C74.91 55.7117 74.2187 55.2512 73.9236 54.5437L71.1601 47.9248C66.6078 37.0494 65.5459 25.0285 68.1213 13.5235Z" fill="#FEC807"/>
    <path d="M9.77878 69.0059C12.9256 69.0059 15.4766 71.5568 15.4766 74.7036C15.4766 77.8505 12.9256 80.4014 9.77878 80.4014C6.63195 80.4014 4.081 77.8505 4.081 74.7036C4.081 71.5568 6.63195 69.0059 9.77878 69.0059ZM9.77878 76.6029C10.8276 76.6029 11.678 75.7525 11.678 74.7036C11.678 73.6548 10.8276 72.8044 9.77878 72.8044C8.72992 72.8044 7.87952 73.6548 7.87952 74.7036C7.87952 75.7525 8.72992 76.6029 9.77878 76.6029Z" fill="#FEC807"/>
    <path d="M55.3647 15.8262C58.5116 15.8262 61.0625 18.3771 61.0625 21.524C61.0625 24.6708 58.5116 27.2217 55.3647 27.2217C52.2179 27.2217 49.6669 24.6708 49.6669 21.524C49.6669 18.3771 52.2179 15.8262 55.3647 15.8262ZM55.3647 23.4232C56.4136 23.4232 57.264 22.5728 57.264 21.524C57.264 20.4751 56.4136 19.6247 55.3647 19.6247C54.3159 19.6247 53.4655 20.4751 53.4655 21.524C53.4655 22.5728 54.3159 23.4232 55.3647 23.4232Z" fill="#FEC807"/>
    <path d="M72.4593 8.22985C70.3614 8.22985 68.6608 6.5292 68.6608 4.43133C68.6608 2.33347 70.3614 0.632812 72.4593 0.632812C74.5572 0.632812 76.2578 2.33347 76.2578 4.43133C76.2578 6.5292 74.5572 8.22985 72.4593 8.22985Z" fill="#FEC807"/>
    <path d="M19.2804 10.1289C20.3293 10.1289 21.1797 10.9793 21.1797 12.0282V13.9274C21.1797 14.9763 20.3293 15.8267 19.2804 15.8267C18.2316 15.8267 17.3812 14.9763 17.3812 13.9274V12.0282C17.3812 10.9793 18.2316 10.1289 19.2804 10.1289Z" fill="#FEC807"/>
    <path d="M19.2804 0.632812C20.3293 0.632812 21.1797 1.48321 21.1797 2.53207V4.43133C21.1797 5.4802 20.3293 6.33059 19.2804 6.33059C18.2316 6.33059 17.3812 5.4802 17.3812 4.43133V2.53207C17.3812 1.48321 18.2316 0.632812 19.2804 0.632812Z" fill="#FEC807"/>
    <path d="M13.5765 6.33008H15.4757C16.5246 6.33008 17.375 7.18047 17.375 8.22934C17.375 9.2782 16.5246 10.1286 15.4757 10.1286H13.5765C12.5276 10.1286 11.6772 9.2782 11.6772 8.22934C11.6772 7.18047 12.5276 6.33008 13.5765 6.33008Z" fill="#FEC807"/>
    <path d="M23.0765 6.33008H24.9757C26.0246 6.33008 26.875 7.18047 26.875 8.22934C26.875 9.2782 26.0246 10.1286 24.9757 10.1286H23.0765C22.0276 10.1286 21.1772 9.2782 21.1772 8.22934C21.1772 7.18047 22.0276 6.33008 23.0765 6.33008Z" fill="#FEC807"/>
    <path d="M32.5724 21.4844H42.1086C43.1574 21.4844 44.0078 22.3348 44.0078 23.3836V32.9198C44.0078 33.9687 43.1574 34.8191 42.1086 34.8191H32.5724C31.5235 34.8191 30.6731 33.9687 30.6731 32.9198V23.3836C30.6731 22.3348 31.5235 21.4844 32.5724 21.4844ZM34.4716 31.0206H40.2093V25.2829H34.4716V31.0206Z" fill="#FEC807"/>
    <path d="M46.4067 37.345C47.1039 36.6007 48.2644 36.5399 49.0355 37.2073L68.0281 54.3006C68.8073 55.0024 68.8702 56.203 68.1686 56.9824C67.4669 57.7615 66.2663 57.8244 65.4869 57.1229L46.4943 40.0296C45.7286 39.3124 45.6895 38.1106 46.4067 37.345Z" fill="#FEC807"/>
    <path d="M11.6789 44.3164C12.7277 44.3164 13.5781 45.1668 13.5781 46.2157V48.1149C13.5781 49.1638 12.7277 50.0142 11.6789 50.0142C10.63 50.0142 9.77961 49.1638 9.77961 48.1149V46.2157C9.77961 45.1668 10.63 44.3164 11.6789 44.3164Z" fill="#FEC807"/>
    <path d="M3.61825 43.9893L4.96103 42.6465C5.71551 41.9177 6.91775 41.9386 7.64659 42.6931C8.35739 43.429 8.35739 44.5959 7.64659 45.3321L6.30381 46.6749C5.54933 47.4037 4.3471 47.3828 3.61825 46.6283C2.90722 45.8921 2.90722 44.7253 3.61825 43.9893Z" fill="#FEC807"/>
    <path d="M2.18585 36.7188H4.08511C5.13398 36.7188 5.98438 37.5691 5.98438 38.618C5.98438 39.6669 5.13398 40.5173 4.08511 40.5173H2.18585C1.13699 40.5173 0.286595 39.6669 0.286595 38.618C0.286595 37.5691 1.13699 36.7188 2.18585 36.7188Z" fill="#FEC807"/>
    <path d="M3.66523 30.5604C4.40119 29.8496 5.56805 29.8496 6.30425 30.5604L7.64703 31.9032C8.38869 32.6451 8.38845 33.8476 7.64655 34.5892C7.29044 34.9451 6.80755 35.1453 6.30425 35.1453C5.80047 35.1453 5.31758 34.9449 4.96147 34.5888L3.61869 33.246C2.88985 32.4915 2.91075 31.289 3.66523 30.5604Z" fill="#FEC807"/>
    <path d="M11.6789 27.2227C12.7277 27.2227 13.5781 28.073 13.5781 29.1219V31.0212C13.5781 32.07 12.7277 32.9204 11.6789 32.9204C10.63 32.9204 9.77961 32.07 9.77961 31.0212V29.1219C9.77961 28.073 10.63 27.2227 11.6789 27.2227Z" fill="#FEC807"/>
    <path d="M15.712 31.9033L17.0548 30.5605C17.8093 29.8319 19.0115 29.8526 19.7403 30.6071C20.4511 31.343 20.4511 32.5099 19.7403 33.2461L18.3976 34.5888C17.6431 35.3177 16.4409 35.2968 15.712 34.5423C15.001 33.8061 15.001 32.6393 15.712 31.9033Z" fill="#FEC807"/>
    <path d="M91.5417 8.84549C91.7654 8.15844 92.3596 7.65798 93.0744 7.554L98.6488 6.74301L101.135 1.69288C101.689 0.752036 102.901 0.438421 103.842 0.99253C104.131 1.16275 104.372 1.40372 104.542 1.69288L107.04 6.74301L112.614 7.554C113.652 7.7038 114.372 8.66696 114.222 9.70515C114.163 10.1185 113.969 10.5005 113.67 10.7922L109.638 14.7237L110.588 20.2752C110.77 21.3082 110.08 22.2934 109.047 22.4758C108.632 22.5491 108.203 22.4819 107.83 22.2847L102.844 19.6561L97.8587 22.2771C96.9302 22.7652 95.7818 22.4083 95.2937 21.4798C95.0993 21.1102 95.0323 20.6869 95.1029 20.2752L96.0525 14.7237L92.0185 10.7922C91.5021 10.2868 91.3174 9.53231 91.5417 8.84549ZM99.4256 12.701C99.8728 13.1366 100.077 13.7643 99.9726 14.3799L99.5015 17.1244L101.961 15.8272C102.514 15.5368 103.174 15.5368 103.727 15.8272L106.196 17.1225L105.725 14.378C105.619 13.7648 105.82 13.1381 106.263 12.701L108.259 10.758L105.503 10.3573C104.885 10.2676 104.35 9.87893 104.073 9.31841L102.844 6.82468L101.614 9.31841C101.337 9.87845 100.803 10.2669 100.185 10.3573L97.4314 10.758L99.4256 12.701Z" fill="#FEC807"/>
    <path d="M6.69821 95.8335H6.7058L7.4883 94.6598C11.8758 88.0985 18.7751 83.6372 26.5588 82.3279C27.5972 82.1797 28.5592 82.9015 28.7073 83.9399C28.8505 84.9432 28.1807 85.8821 27.1855 86.0732C21.5713 87.0262 16.4549 89.8784 12.6923 94.1527C15.8557 94.7217 18.6225 96.6217 20.2893 99.3699C22.3348 103.033 21.0231 107.661 17.3597 109.707C13.6963 111.752 9.06848 110.44 7.02298 106.777C6.24167 105.269 5.8198 103.6 5.79036 101.902C3.76955 104.837 3.60787 108.67 5.37442 111.765C5.90954 112.667 5.61207 113.832 4.70992 114.367C3.80777 114.902 2.64258 114.605 2.10746 113.702C2.09037 113.673 2.07398 113.644 2.05832 113.614C-1.41923 107.403 0.629124 99.5539 6.69821 95.8335ZM10.3353 104.923C11.349 106.76 13.6597 107.427 15.4963 106.414C17.3329 105.4 18.0002 103.089 16.9865 101.253C16.9808 101.242 16.9751 101.232 16.9694 101.222C15.8486 99.3866 13.9581 98.1563 11.8262 97.8752C11.496 97.8662 11.1691 97.9422 10.8766 98.0955C9.27361 98.9901 9.18814 102.868 10.3353 104.923Z" fill="#FEC807"/>
  </g>
  <defs>
    <clipPath id="clip0_560_22690">
      <rect width="114" height="114" fill="white" transform="matrix(-1 0 0 1 114.266 0.632812)"/>
    </clipPath>
  </defs>
</svg>