<svg xmlns="http://www.w3.org/2000/svg" width="148" height="148" viewBox="0 0 148 148" fill="none">
  <g opacity="0.4" clip-path="url(#clip0_560_22685)">
    <path d="M106.45 102.925C106.882 102.942 107.44 102.718 108.329 102.146C111.925 99.8349 115.419 96.4005 117.923 92.956C121.931 87.4414 123.637 79.9927 119.803 74.4329L120.309 72.5712C121.108 69.6286 119.467 66.5417 116.577 65.5446C114.786 64.9201 112.948 64.332 111.093 63.7479C110.173 61.2989 108.992 59.2045 106.985 57.1857C107.26 55.5089 107.05 53.7593 106.36 52.1964C110.593 49.0352 113.11 43.7085 112.896 38.4288C112.953 38.3516 113.021 38.2828 113.06 38.1901C114.09 35.7377 112.922 33.0558 111.191 32.2967C109.806 31.6853 108.3 31.7443 106.884 31.8985C96.8787 32.9866 87.6326 37.9412 79.461 42.3432C77.9593 40.9845 75.8517 40.0698 73.3656 39.9071C67.1004 25.739 65.1111 18.0707 59.0967 14.8334C57.8108 14.1414 55.8219 13.478 54.2805 13.5549C53.1492 13.611 51.7716 14.244 50.7388 15.0773C50.4976 15.1113 50.2718 15.1991 50.084 15.3717C47.5047 17.726 44.4687 21.0208 43.8919 25.6358C43.474 28.8884 44.2601 32.2468 46.0216 34.9902C42.4848 36.1651 40.1959 40.3696 42.1706 45.1338C39.952 44.4341 37.852 43.751 35.8336 43.0692C33.4003 42.2415 30.7434 43.5707 30.0557 46.1023L26.9004 57.7163C26.2526 60.1005 27.6652 62.5669 30.0494 63.2147L30.2548 63.2705C30.0055 63.7235 30.9502 60.6338 19.6803 101.975C18.4492 106.506 20.4298 111.549 27.9882 114.807C31.9536 116.516 36.0614 117.861 40.1638 119.197C44.1809 120.504 48.1376 122.116 52.3188 122.836C53.877 123.104 55.4609 123.243 56.9976 123.627C58.51 124.006 59.7867 124.864 61.259 125.364C64.3331 126.407 67.6097 126.584 70.7855 127.152C79.5647 128.721 78.2447 130.158 95.0781 131.859C96.6073 132.014 98.2189 132.156 99.6216 131.527C102.345 130.307 102.019 126.673 100.044 125.762C100.808 124.259 100.358 125.089 106.45 102.925ZM80.2297 52.5418C80.4034 52.6663 80.5724 52.7941 80.745 52.9197C80.5631 53.1106 80.4262 53.3474 80.3974 53.6301C78.2924 74.2716 72.7895 101.9 65.3567 122.566C65.2298 122.948 65.111 123.171 64.8056 123.376C63.0492 123.77 61.707 121.789 59.4836 120.886C57.4642 120.099 55.3754 120.417 53.5402 120.34C52.419 120.285 50.9906 119.842 50.372 118.801C52.9988 110.912 62.746 88.4686 66.2 52.1936C69.5396 56.6533 76.538 57.5448 80.2297 52.5418ZM102.043 63.616C104.435 64.2847 106.813 64.9897 109.136 65.7159C109.429 66.7116 109.647 67.7605 109.806 68.8494C105.667 69.3243 102.766 72.3155 101.673 75.9738C98.2605 72.5763 92.2505 72.4357 88.0664 76.4142L80.0246 74.2293C80.9164 69.1363 81.6806 63.9831 82.2975 58.8357C86.9959 60.7927 90.141 61.6897 93.3826 62.3602C96.0657 63.9566 99.1571 64.7782 102.043 63.616ZM110.087 71.2981C110.164 72.5387 110.162 73.8492 110.088 75.2511C108.321 76.5003 109.407 79.1847 111.505 79.0707C113.67 78.9454 114.58 75.9996 112.576 74.8525C112.624 73.6546 112.625 72.5137 112.566 71.4249C117.54 72.4979 120.988 78.8824 116.319 88.0282C114.003 92.5601 110.594 96.5019 106.445 99.4521C105.544 99.0907 103.3 97.972 102.372 97.513C93.4472 93.0958 91.4874 92.9476 89.3452 90.6626C87.5702 88.7706 86.6815 86.0106 87.026 83.4567C87.9506 76.5219 96.2316 73.5683 100.174 77.9761C101.372 79.2841 103.506 78.7584 103.938 77.0373C104.641 74.22 106.782 71.6742 110.087 71.2981ZM68.0709 122.262C72.5459 109.592 76.1729 95.3119 79.4063 77.6549C81.1518 78.8878 83.7558 79.4345 85.5458 79.8864C83.5108 84.2317 84.5417 89.146 87.546 92.3497C90.1052 95.0786 92.3389 95.304 101.28 99.723C102.44 100.297 103.479 100.81 104.358 101.22L98.3457 123.349C97.3682 126.947 93.6466 129.079 90.0418 128.1L68.0709 122.262ZM82.5823 56.287C82.6512 55.6649 82.7262 55.0422 82.7908 54.4209C84.2166 55.5059 84.6082 55.8305 87.7825 58.2883C86.1497 57.7358 84.4465 57.0802 82.5823 56.287ZM42.9755 67.6863C48.9073 69.5241 54.8392 71.362 60.7708 73.1998C58.0417 88.0259 53.9221 102.671 48.4865 116.806L26.8125 110.918C23.2138 109.94 21.0825 106.219 22.0598 102.622L32.4963 64.2068C35.0005 65.711 39.4231 66.5856 42.9755 67.6863ZM117.955 71.7738C116.492 70.2096 114.669 69.1946 112.299 68.8873C112.199 68.1147 112.08 67.3523 111.917 66.6125C113.208 67.0274 114.51 67.4348 115.769 67.8745C117.391 68.4338 118.321 70.1256 117.955 71.7738ZM107.994 62.7876C106.889 62.4523 105.779 62.1247 104.659 61.8017C105.38 61.0337 105.737 60.4882 106.083 59.8386C106.822 60.7269 107.461 61.7213 107.994 62.7876ZM104.851 50.2052C104.582 50.0532 104.258 49.9977 103.933 50.0824C103.409 50.2193 102.781 50.043 102.403 49.6541C101.927 49.1624 101.147 49.1523 100.66 49.6258C100.171 50.0991 100.158 50.88 100.633 51.369C101.428 52.1928 102.501 52.6302 103.772 52.5637C106.613 57.3594 102.086 65.5303 93.6937 59.6245C89.6067 56.7464 85.8377 53.5013 81.4181 50.3567C82.0218 48.6943 82.0333 47.1238 81.5908 45.6598C91.4675 44.748 101.159 42.5161 110.445 39.0445C110.452 43.3629 108.318 47.627 104.851 50.2052ZM107.15 34.3495C108.394 34.2151 109.387 34.203 110.201 34.5548C110.52 34.695 110.957 35.3706 110.976 36.2138C102.144 39.6539 92.9155 41.9179 83.5029 42.9743C90.7438 39.1284 98.7517 35.2637 107.15 34.3495ZM79.2317 49.1771C79.0723 49.7085 78.8527 50.1986 78.5758 50.6424C74.9302 56.5808 65.832 52.1111 66.9828 46.4423C67.975 39.6127 81.222 41.7908 79.2317 49.1771ZM54.4032 16.0178C55.4084 15.9673 56.9716 16.4894 57.9279 17.0045C62.9037 19.6823 64.859 26.5839 70.7393 40.0574C70.6896 40.0667 70.6391 40.073 70.5896 40.083C66.6179 36.5122 63.0451 32.3129 60.0011 28.6242C57.067 25.0905 54.1022 21.2798 52.437 16.8685C53.0511 16.422 53.8629 16.0444 54.4032 16.0178ZM48.1066 37.1998C49.8656 39.7067 53.7672 38.8112 52.9558 36.8674C52.6907 36.239 51.9694 35.9424 51.3417 36.2077C50.8781 36.4006 50.1623 36.08 50.0052 35.5859C49.8469 35.083 49.3979 34.76 48.9006 34.731C46.8988 32.3136 45.9355 29.0779 46.3378 25.946C46.7237 22.8603 48.5372 20.3977 50.4137 18.4747C52.2311 22.9168 55.3068 26.8298 58.1017 30.1967C60.9536 33.6526 64.2821 37.5405 67.9861 41.0139C65.0518 42.6543 63.9291 45.9484 64.7212 49.0982C63.6055 49.3926 62.5087 49.5468 61.3617 49.7002C58.1329 50.1298 55.3878 50.9242 51.4116 50.1435C48.7372 49.5907 47.8739 48.7457 46.1153 46.824C45.9554 46.6679 45.9488 46.5722 45.7648 46.3936C44.3088 44.5766 43.6596 42.5088 43.9821 40.7033C44.3123 38.8452 46.1394 36.9742 48.1066 37.1998ZM32.4352 46.7488C32.7433 45.6147 33.9282 45.0234 35.0366 45.4028C37.8846 46.3646 40.8741 47.3246 44.1805 48.3422C46.5641 51.1154 48.1832 52.0017 50.9278 52.5614C55.4648 53.452 58.7517 52.5344 61.6875 52.1442C62.3644 52.0538 63.0543 51.9584 63.7575 51.8334C63.1994 57.7395 62.4314 63.5673 61.4839 69.1997L30.6958 60.8352C29.6238 60.5439 28.9886 59.4348 29.2799 58.3628L32.4352 46.7488Z" fill="#ED6F4D"/>
    <path d="M62.9075 99.1338C62.6845 99.7768 63.0244 100.479 63.6675 100.702C63.6948 100.712 63.7224 100.72 63.7503 100.728C64.37 100.896 65.0225 100.558 65.2366 99.9412C67.7701 92.6364 69.6824 85.0589 70.9206 77.4213C71.0285 76.7486 70.5637 76.1266 69.9008 76.0072C69.2283 75.8986 68.5952 76.3553 68.4858 77.0276C67.2724 84.5247 65.3947 91.9628 62.9075 99.1338Z" fill="#ED6F4D"/>
    <path d="M75.2336 51.0666C78.2842 49.7421 78.5793 45.0766 76.3141 45.4547C75.6432 45.5669 75.1894 46.2021 75.3014 46.8738C75.4279 47.6327 74.9567 48.4978 74.2515 48.8035C73.6272 49.0748 73.34 49.801 73.6112 50.4253C73.8813 51.0476 74.6044 51.3377 75.2336 51.0666Z" fill="#ED6F4D"/>
  </g>
  <defs>
    <clipPath id="clip0_560_22685">
      <rect width="120" height="120" fill="white" transform="translate(31.4609) rotate(15.1993)"/>
    </clipPath>
  </defs>
</svg>