<svg xmlns="http://www.w3.org/2000/svg" width="20" height="20" viewBox="0 0 20 20" fill="none">
  <path d="M4.54906 15.409V12.9757C4.54906 12.1673 5.1824 11.4423 6.0824 11.4423C6.89073 11.4423 7.61573 12.0757 7.61573 12.9757V15.3173C7.61573 16.9423 6.26573 18.2923 4.64073 18.2923C3.01573 18.2923 1.66573 16.934 1.66573 15.3173V10.184C1.57406 5.50065 5.27406 1.70898 9.9574 1.70898C14.6407 1.70898 18.3324 5.50065 18.3324 10.0923V15.2257C18.3324 16.8507 16.9824 18.2007 15.3574 18.2007C13.7324 18.2007 12.3824 16.8507 12.3824 15.2257V12.884C12.3824 12.0757 13.0157 11.3507 13.9157 11.3507C14.7241 11.3507 15.4491 11.984 15.4491 12.884V15.409" stroke="#1E293B" stroke-width="1.2" stroke-linecap="round" stroke-linejoin="round"/>
</svg>