<svg xmlns="http://www.w3.org/2000/svg" width="22" height="22" viewBox="0 0 22 22" fill="none">
  <g clip-path="url(#clip0_560_20951)">
    <path d="M11.448 0.706885C12.5735 0.689697 13.6907 0.698635 14.8072 0.689697C14.8443 2.08601 15.4108 3.34276 16.3121 4.27363L16.3107 4.27226C17.2808 5.14607 18.543 5.71257 19.9345 5.80882L19.9538 5.8102V9.27245C18.6393 9.23945 17.4032 8.93626 16.2887 8.41513L16.3451 8.43851C15.8061 8.17932 15.3503 7.91326 14.9172 7.61626L14.9529 7.63964C14.9447 10.1483 14.9612 12.657 14.9357 15.1568C14.8649 16.4307 14.4414 17.5926 13.7622 18.5626L13.7759 18.5413C12.6402 20.1679 10.8004 21.2356 8.70836 21.2989H8.69873C8.61417 21.303 8.51448 21.3051 8.41411 21.3051C7.22473 21.3051 6.11304 20.9737 5.16567 20.3983L5.19317 20.4141C3.46892 19.3766 2.27954 17.6015 2.05954 15.5369L2.05679 15.5088C2.03961 15.0791 2.03136 14.6494 2.04854 14.2286C2.38542 10.9431 5.13817 8.40138 8.48423 8.40138C8.8603 8.40138 9.2288 8.4337 9.58698 8.49489L9.54848 8.48939C9.56567 9.76057 9.51411 11.0324 9.51411 12.3036C9.2233 12.1984 8.8878 12.1373 8.53786 12.1373C7.25361 12.1373 6.16117 12.9581 5.75692 14.1042L5.75073 14.1248C5.6593 14.4184 5.60636 14.7559 5.60636 15.1052C5.60636 15.2468 5.61529 15.3871 5.63179 15.5246L5.63042 15.5081C5.85867 16.9147 7.06455 17.9762 8.51861 17.9762C8.56055 17.9762 8.6018 17.9755 8.64304 17.9734H8.63686C9.64267 17.9432 10.5158 17.4021 11.0094 16.6026L11.0163 16.5902C11.1999 16.3344 11.3257 16.0251 11.3676 15.6889L11.3683 15.6793C11.4542 14.1413 11.4199 12.6123 11.4281 11.0744C11.4364 7.61213 11.4199 4.15813 11.4453 0.704822L11.448 0.706885Z" fill="#ED6F4D"/>
  </g>
  <defs>
    <clipPath id="clip0_560_20951">
      <rect width="22" height="22" fill="white" transform="translate(0 0.000244141)"/>
    </clipPath>
  </defs>
</svg>