<svg xmlns="http://www.w3.org/2000/svg" width="21" height="21" viewBox="0 0 21 21" fill="none">
  <g clip-path="url(#clip0_560_21337)">
    <path d="M10.5 1.75C11.3653 1.75 12.2112 2.00659 12.9306 2.48732C13.6501 2.96805 14.2108 3.65133 14.542 4.45076C14.8731 5.25019 14.9597 6.12985 14.7909 6.97852C14.6221 7.82719 14.2054 8.60674 13.5936 9.21859C12.9817 9.83045 12.2022 10.2471 11.3535 10.4159C10.5049 10.5847 9.62519 10.4981 8.82576 10.167C8.02633 9.83584 7.34305 9.27508 6.86232 8.55562C6.38159 7.83615 6.125 6.99029 6.125 6.125L6.12938 5.93512C6.1783 4.80878 6.66016 3.74481 7.47444 2.96508C8.28873 2.18535 9.37259 1.75007 10.5 1.75Z" fill="black"/>
    <path d="M12.25 12.25C13.4103 12.25 14.5231 12.7109 15.3436 13.5314C16.1641 14.3519 16.625 15.4647 16.625 16.625V17.5C16.625 17.9641 16.4406 18.4092 16.1124 18.7374C15.7842 19.0656 15.3391 19.25 14.875 19.25H6.125C5.66087 19.25 5.21575 19.0656 4.88756 18.7374C4.55937 18.4092 4.375 17.9641 4.375 17.5V16.625C4.375 15.4647 4.83594 14.3519 5.65641 13.5314C6.47688 12.7109 7.58968 12.25 8.75 12.25H12.25Z" fill="black"/>
  </g>
  <defs>
    <clipPath id="clip0_560_21337">
      <rect width="21" height="21" fill="white"/>
    </clipPath>
  </defs>
</svg>