<svg xmlns="http://www.w3.org/2000/svg" width="25" height="24" viewBox="0 0 25 24" fill="none">
  <path d="M6 18.5006V15.5006C5.99805 14.4725 6.24103 13.4588 6.70882 12.5433C7.17661 11.6278 7.85574 10.8369 8.69 10.2361C8.12739 9.57711 7.74687 8.78245 7.58619 7.93098C7.42551 7.07951 7.49025 6.20083 7.774 5.38211C7.046 4.99374 6.19744 4.89714 5.40078 5.11194C4.60411 5.32674 3.91913 5.83682 3.48504 6.53851C3.05094 7.24021 2.90031 8.08086 3.06376 8.88962C3.22722 9.69838 3.69248 10.4146 4.365 10.8926C3.5149 11.2611 2.79092 11.8697 2.28195 12.6439C1.77299 13.4181 1.50121 14.3241 1.5 15.2506V17.5006C1.50079 18.1634 1.76444 18.7988 2.23311 19.2675C2.70178 19.7362 3.3372 19.9998 4 20.0006H6.3425C6.11772 19.5325 6.00068 19.0199 6 18.5006Z" fill="black"/>
  <path d="M20.6375 10.8926C21.31 10.4146 21.7753 9.69838 21.9387 8.88962C22.1022 8.08086 21.9516 7.24021 21.5175 6.53851C21.0834 5.83682 20.3984 5.32674 19.6017 5.11194C18.8051 4.89714 17.9565 4.99374 17.2285 5.38211C17.5122 6.20083 17.577 7.07951 17.4163 7.93098C17.2556 8.78245 16.8751 9.57711 16.3125 10.2361C17.1468 10.8369 17.8259 11.6278 18.2937 12.5433C18.7615 13.4588 19.0044 14.4725 19.0025 15.5006V18.5006C19.0018 19.0199 18.8848 19.5325 18.66 20.0006H21.0025C21.6653 19.9998 22.3007 19.7362 22.7694 19.2675C23.2381 18.7988 23.5017 18.1634 23.5025 17.5006V15.2506C23.5013 14.3241 23.2295 13.4181 22.7205 12.6439C22.2116 11.8697 21.4876 11.2611 20.6375 10.8926Z" fill="black"/>
  <path d="M14.5785 10.4117C15.3242 9.95823 15.901 9.27331 16.2212 8.46142C16.5413 7.64953 16.5871 6.75522 16.3516 5.91486C16.1162 5.0745 15.6123 4.33422 14.9169 3.80689C14.2215 3.27957 13.3727 2.99414 12.5 2.99414C11.6273 2.99414 10.7785 3.27957 10.0831 3.80689C9.38769 4.33422 8.88384 5.0745 8.64836 5.91486C8.41288 6.75522 8.4587 7.64953 8.77883 8.46142C9.09897 9.27331 9.67585 9.95823 10.4215 10.4117C9.41082 10.825 8.54587 11.5296 7.93663 12.4357C7.32738 13.3419 7.00135 14.4088 7 15.5007V18.5007C7.00079 19.1635 7.26444 19.7989 7.73311 20.2676C8.20178 20.7363 8.8372 20.9999 9.5 21.0007H15.5C16.1628 20.9999 16.7982 20.7363 17.2669 20.2676C17.7356 19.7989 17.9992 19.1635 18 18.5007V15.5007C17.9986 14.4088 17.6726 13.3419 17.0634 12.4357C16.4541 11.5296 15.5892 10.825 14.5785 10.4117Z" fill="black"/>
</svg>