<svg xmlns="http://www.w3.org/2000/svg" width="20" height="20" viewBox="0 0 20 20" fill="none">
  <path d="M10.138 9.05768C10.0547 9.04935 9.95469 9.04935 9.86302 9.05768C7.87969 8.99102 6.30469 7.36602 6.30469 5.36602C6.30469 3.32435 7.95469 1.66602 10.0047 1.66602C12.0464 1.66602 13.7047 3.32435 13.7047 5.36602C13.6964 7.36602 12.1214 8.99102 10.138 9.05768Z" stroke="black" stroke-width="1.2" stroke-linecap="round" stroke-linejoin="round"/>
  <path d="M5.96562 12.134C3.94896 13.484 3.94896 15.684 5.96562 17.0257C8.25729 18.559 12.0156 18.559 14.3073 17.0257C16.324 15.6757 16.324 13.4757 14.3073 12.134C12.024 10.609 8.26562 10.609 5.96562 12.134Z" stroke="black" stroke-width="1.2" stroke-linecap="round" stroke-linejoin="round"/>
</svg>