<svg xmlns="http://www.w3.org/2000/svg" width="23" height="22" viewBox="0 0 23 22" fill="none">
  <g clip-path="url(#clip0_560_20959)">
    <path d="M21.8556 2.18561C21.5869 1.85696 21.1844 1.67603 20.7222 1.67603C20.4709 1.67603 20.2047 1.7289 19.9311 1.83347L1.30851 8.94227C0.320225 9.31942 0.187123 9.8854 0.195683 10.1892C0.204243 10.493 0.369236 11.0506 1.37732 11.3713C1.38337 11.3732 1.38941 11.375 1.39545 11.3767L5.25827 12.4822L7.34729 18.4558C7.63213 19.2702 8.27146 19.7761 9.01602 19.7761C9.48549 19.7761 9.94724 19.5794 10.3514 19.2074L12.7407 17.0075L16.2062 19.7979C16.2066 19.7983 16.2071 19.7984 16.2074 19.7988L16.2403 19.8253C16.2433 19.8276 16.2465 19.8301 16.2495 19.8325C16.6348 20.1313 17.0552 20.289 17.4659 20.2892H17.4661C18.2686 20.2892 18.9076 19.6952 19.0937 18.7761L22.145 3.70949C22.2675 3.10474 22.1648 2.5636 21.8556 2.18561ZM6.55053 12.2722L14.0031 8.46492L9.36263 13.3957C9.28659 13.4765 9.23271 13.5753 9.20619 13.6829L8.3114 17.3074L6.55053 12.2722ZM9.47811 18.2591C9.44722 18.2875 9.41617 18.3128 9.38512 18.3361L10.2153 14.9738L11.7254 16.1899L9.47811 18.2591ZM20.8816 3.45352L17.8303 18.5203C17.8009 18.6645 17.7071 19 17.4659 19C17.3468 19 17.197 18.935 17.0438 18.817L13.1169 15.6551C13.1163 15.6546 13.1157 15.6541 13.115 15.6538L10.7784 13.7722L17.4891 6.6416C17.7039 6.41333 17.7234 6.0637 17.5352 5.81294C17.3469 5.56218 17.0057 5.48329 16.7266 5.62596L5.6893 11.2646L1.77394 10.1444L20.3908 3.03776C20.5481 2.97768 20.6579 2.96509 20.7222 2.96509C20.7616 2.96509 20.8318 2.96979 20.8578 3.00185C20.892 3.04364 20.9357 3.18614 20.8816 3.45352Z" fill="#ED6F4D"/>
  </g>
  <defs>
    <clipPath id="clip0_560_20959">
      <rect width="22" height="22" fill="white" transform="translate(0.195312 0.000244141)"/>
    </clipPath>
  </defs>
</svg>