<svg xmlns="http://www.w3.org/2000/svg" width="2097" height="267" viewBox="0 0 2097 267" fill="none">
  <path d="M104.411 27.756C69.607 -9.25201 34.8035 -9.25201 0 27.756V267H1045.12V27.8559C1010.32 64.864 974.499 64.7641 939.695 27.756C904.892 -9.25201 870.088 -9.25201 835.285 27.756C800.481 64.7641 765.678 64.7641 730.874 27.756C696.07 -9.25201 661.267 -9.25201 626.463 27.756C591.66 64.7641 610.149 64.7641 575.346 27.756C540.542 -9.25201 452.446 -9.25201 417.642 27.756C382.839 64.7641 348.035 64.7641 313.232 27.756C278.428 -9.25201 243.625 -9.25201 208.821 27.756C174.018 64.7641 139.214 64.7641 104.411 27.756Z" fill="white"/>
  <path d="M1045 27.9839C1080.04 -9.32797 1115.07 -9.32797 1150.11 27.9839C1185.14 65.2958 1220.18 65.2958 1255.21 27.9839C1277.92 3.80365 1300.63 -4.7064 1323.33 2.45376C1367.87 -1.56508 1418.9 8.53904 1440.25 31.2761C1444.25 35.5369 1447.21 39.2682 1449.36 42.4799C1454.72 38.5199 1460.07 33.6879 1465.43 27.9839C1500.46 -9.32797 1535.5 -9.32797 1570.54 27.9839C1605.57 65.2958 1640.61 65.2958 1675.64 27.9839C1710.68 -9.32797 1712.32 -7.68186 1747.36 29.63C1782.39 66.9419 1850.82 65.2958 1885.86 27.9839C1920.89 -9.32797 1955.93 -9.32797 1990.97 27.9839C2026 65.2958 2061.04 65.2958 2096.07 27.9839V267H1045V27.9839Z" fill="white"/>
</svg>