<svg xmlns="http://www.w3.org/2000/svg" width="29" height="26" viewBox="0 0 29 26" fill="none">
  <path d="M4.52123 13.2076C3.93406 13.172 4.05324 11.8265 5.01097 7.47204C6.02777 2.86331 6.41978 1.88366 7.06751 2.164C7.95351 2.56048 5.47231 13.2406 4.52123 13.2076Z" fill="#ED6F4D"/>
  <path d="M24.4443 19.323C24.213 21.068 23.8841 21.2527 19.9025 21.8833C15.7908 22.539 15.0164 22.5124 14.8297 21.752C14.4969 20.3719 15.5301 19.8493 20.5754 18.7848C24.2982 18.0015 24.615 18.0351 24.4443 19.323Z" fill="#ED6F4D"/>
  <path d="M19.7266 8.88082C19.5769 10.1377 19.267 10.5617 17.5835 11.8436C12.5752 15.6273 9.29787 18.7273 9.63833 16.2865C9.77051 15.2894 10.629 14.49 16.3402 9.86937C19.5094 7.33004 19.9159 7.1979 19.7266 8.88082Z" fill="#ED6F4D"/>
</svg>