<svg xmlns="http://www.w3.org/2000/svg" width="22" height="21" viewBox="0 0 22 21" fill="none">
  <g clip-path="url(#clip0_560_23279)">
    <path d="M7.98306 2.625C8.10284 2.62505 8.22134 2.64969 8.33121 2.69741C8.44109 2.74512 8.53999 2.81488 8.62181 2.90237L8.68831 2.98287L12.4281 8.08237L17.6308 2.88137C17.7883 2.72445 17.9996 2.63334 18.2218 2.62655C18.444 2.61977 18.6604 2.69781 18.8272 2.84484C18.9939 2.99187 19.0984 3.19686 19.1195 3.41817C19.1406 3.63947 19.0767 3.86051 18.9407 4.03637L18.8681 4.11862L13.4754 9.51037L18.9547 16.9829C19.0454 17.1067 19.102 17.2522 19.1187 17.4048C19.1354 17.5574 19.1116 17.7117 19.0498 17.8523C18.988 17.9928 18.8904 18.1146 18.7666 18.2054C18.6429 18.2962 18.4974 18.3529 18.3448 18.3697L18.2494 18.375H14.5158C14.396 18.3749 14.2775 18.3503 14.1677 18.3026C14.0578 18.2549 13.9589 18.1851 13.8771 18.0976L13.8106 18.0171L10.0691 12.9167L4.86806 18.1186C4.71059 18.2756 4.4993 18.3667 4.2771 18.3734C4.05489 18.3802 3.83843 18.3022 3.67169 18.1552C3.50494 18.0081 3.40041 17.8031 3.37933 17.5818C3.35825 17.3605 3.4222 17.1395 3.55818 16.9636L3.63081 16.8814L9.02168 11.4887L3.54418 4.01712C3.45345 3.8933 3.3969 3.74778 3.38019 3.59518C3.36349 3.44258 3.38723 3.28827 3.44903 3.14775C3.51082 3.00722 3.6085 2.88543 3.73225 2.7946C3.856 2.70376 4.00147 2.64708 4.15406 2.63025L4.24943 2.625H7.98306Z" fill="white"/>
  </g>
  <defs>
    <clipPath id="clip0_560_23279">
      <rect width="21" height="21" fill="white" transform="translate(0.75)"/>
    </clipPath>
  </defs>
</svg>