<svg xmlns="http://www.w3.org/2000/svg" width="23" height="22" viewBox="0 0 23 22" fill="none">
  <g clip-path="url(#clip0_560_20955)">
    <path d="M11.1945 18.9922C11.1927 18.9922 11.1907 18.9922 11.1887 18.9922C10.5248 18.9877 4.65622 18.9342 2.99353 18.4845C1.83153 18.1721 0.914243 17.2559 0.60104 16.0937C0.165981 14.4604 0.193676 11.3158 0.196697 11.0647C0.193844 10.8147 0.165813 7.64411 0.599698 5.99737C0.600201 5.99585 0.600537 5.99418 0.60104 5.99267C0.910718 4.84375 1.84865 3.89911 2.99068 3.58591C2.99353 3.58507 2.99655 3.5844 2.99941 3.58356C4.6433 3.15152 10.5235 3.09865 11.1887 3.09412H11.2006C11.8661 3.09865 17.7503 3.15219 19.3977 3.60252C20.5567 3.91405 21.4733 4.82915 21.7874 5.98981C22.2387 7.63773 22.1969 10.8152 22.1924 11.0835C22.1956 11.3477 22.2219 14.4641 21.7894 16.1056C21.789 16.1073 21.7885 16.1088 21.7882 16.1103C21.4748 17.2725 20.5577 18.1888 19.3944 18.5015C19.3929 18.502 19.3912 18.5023 19.3897 18.5028C17.7459 18.9347 11.8656 18.9875 11.2006 18.9922C11.1986 18.9922 11.1965 18.9922 11.1945 18.9922ZM2.26105 6.43813C1.87903 7.89169 1.91511 11.0219 1.91545 11.0534V11.0761C1.90404 11.9442 1.94415 14.4582 2.26121 15.6489C2.41496 16.2191 2.86731 16.6708 3.44101 16.825C4.6678 17.1568 9.44758 17.2612 11.1945 17.2735C12.946 17.2612 17.7328 17.1597 18.9506 16.8411C19.5224 16.6864 19.9733 16.2362 20.128 15.6654C20.4454 14.4572 20.4852 11.9554 20.4736 11.0929C20.4736 11.0838 20.4736 11.0747 20.4738 11.0657C20.4896 10.1872 20.4585 7.64378 20.1295 6.4435C20.1292 6.44233 20.1289 6.44115 20.1287 6.43998C19.9743 5.86728 19.5218 5.41561 18.9481 5.26136C17.7332 4.92919 12.9457 4.82512 11.1945 4.81287C9.44423 4.82512 4.6621 4.9265 3.44068 5.24474C2.87788 5.40084 2.4153 5.86863 2.26105 6.43813ZM9.00396 14.5235V7.56271L15.0196 11.0432L9.00396 14.5235Z" fill="#ED6F4D"/>
  </g>
  <defs>
    <clipPath id="clip0_560_20955">
      <rect width="22" height="22" fill="white" transform="translate(0.195312 0.000244141)"/>
    </clipPath>
  </defs>
</svg>